/* XPM */
static char *_02cd0ea1a0e42dec70b422f52c78b3aFt1jc67Q7Z0wedRy[] = {
/* columns rows colors chars-per-pixel */
"64 64 213 2 ",
"   c #430100",
".  c #490500",
"X  c #470B00",
"o  c #4C0E00",
"O  c #560700",
"+  c #530E00",
"@  c #5A0D00",
"#  c #4F1400",
"$  c #4E1900",
"%  c #541300",
"&  c #5B1400",
"*  c #561A00",
"=  c #5D1C00",
"-  c #631600",
";  c #691500",
":  c #641C00",
">  c #6A1D00",
",  c #721D00",
"<  c #532400",
"1  c #5D2300",
"2  c #542B00",
"3  c #5D2A01",
"4  c #642300",
"5  c #6C2400",
"6  c #652A00",
"7  c #6C2B01",
"8  c #6E2C09",
"9  c #722500",
"0  c #7A2500",
"q  c #732B01",
"w  c #7B2D01",
"e  c #742D09",
"r  c #7B2E0B",
"t  c #643300",
"y  c #6C3301",
"u  c #6E3A01",
"i  c #6D3309",
"p  c #6B380D",
"a  c #743301",
"s  c #7B3302",
"d  c #743A01",
"f  c #7C3B02",
"g  c #74340A",
"h  c #7C340B",
"j  c #753B0C",
"k  c #7C3B0C",
"l  c #773610",
"z  c #7C3412",
"x  c #723811",
"c  c #7B3B12",
"v  c #7E3E19",
"b  c #6D4400",
"n  c #734201",
"m  c #7C4203",
"M  c #744A05",
"N  c #7C4C03",
"B  c #7D420B",
"V  c #764908",
"C  c #7D4B0B",
"Z  c #7A5706",
"A  c #775A00",
"S  c #7D5609",
"D  c #775402",
"F  c #7C4213",
"G  c #7F4A12",
"H  c #822E00",
"J  c #882E00",
"K  c #812F0A",
"L  c #833402",
"P  c #8A3502",
"I  c #833B03",
"U  c #8B3C03",
"Y  c #83350B",
"T  c #8A370B",
"R  c #843B0B",
"E  c #8B3C0B",
"W  c #913607",
"Q  c #913D03",
"!  c #993F00",
"~  c #90370B",
"^  c #923E0C",
"/  c #993D0E",
"(  c #833613",
")  c #843C13",
"_  c #8A3D13",
"`  c #833C19",
"'  c #8B3E1A",
"]  c #8B3611",
"[  c #923F12",
"{  c #844304",
"}  c #8B4205",
"|  c #834903",
" . c #8C4B05",
".. c #84430B",
"X. c #8C430C",
"o. c #844A0B",
"O. c #8C4B0C",
"+. c #924205",
"@. c #984000",
"#. c #974805",
"$. c #93440B",
"%. c #99460D",
"&. c #934A0D",
"*. c #9A4C0D",
"=. c #8D5406",
"-. c #83530C",
";. c #8D520B",
":. c #87580A",
">. c #93520E",
",. c #9B530D",
"<. c #92580F",
"1. c #905205",
"2. c #854313",
"3. c #8B4413",
"4. c #844B13",
"5. c #8C4B13",
"6. c #84441B",
"7. c #8C451A",
"8. c #844C1B",
"9. c #8C4B1C",
"0. c #934513",
"q. c #9A4514",
"w. c #934C13",
"e. c #9B4C14",
"r. c #93441A",
"t. c #944B1B",
"y. c #9B4D1B",
"u. c #865711",
"i. c #8C5213",
"p. c #815A12",
"a. c #8E5810",
"s. c #87551A",
"d. c #8C531B",
"f. c #8E581C",
"g. c #945314",
"h. c #9A5215",
"j. c #945A14",
"k. c #9B5C14",
"l. c #93531B",
"z. c #9B531B",
"x. c #955B1D",
"c. c #9B5B1B",
"v. c #A04F0D",
"b. c #A3530E",
"n. c #A04411",
"m. c #A14A16",
"M. c #A34D1C",
"N. c #A25514",
"B. c #A55A16",
"V. c #A95917",
"C. c #A3541B",
"Z. c #A45A1B",
"A. c #AB5C1C",
"S. c #816208",
"D. c #8D671E",
"F. c #8F6F1A",
"G. c #93661A",
"H. c #9C611A",
"J. c #936C1E",
"K. c #A4631D",
"L. c #A8631E",
"P. c #A56C1F",
"I. c #B2621E",
"U. c #8F4C21",
"Y. c #944E21",
"T. c #9C4D22",
"R. c #8B5223",
"E. c #8F562B",
"W. c #945422",
"Q. c #9C5422",
"!. c #965A24",
"~. c #9B5C23",
"^. c #925229",
"/. c #9F5D28",
"(. c #9C5129",
"). c #965130",
"_. c #A54C20",
"`. c #A35422",
"'. c #AA5323",
"]. c #A35C23",
"[. c #AC5D24",
"{. c #A4562A",
"}. c #A35B2B",
"|. c #AC5B2B",
" X c #9D6323",
".X c #9E652A",
"XX c #947120",
"oX c #9F6438",
"OX c #A46224",
"+X c #AB6324",
"@X c #A46B24",
"#X c #A4652A",
"$X c #AA642B",
"%X c #A66B2A",
"&X c #AB6B2C",
"*X c #B16623",
"=X c #B26529",
"-X c #B36A2C",
";X c #B96C2B",
":X c #A9792F",
">X c #B9722E",
",X c #B3742F",
"<X c #A66A32",
"1X c #B46A33",
"2X c #AB7036",
"3X c #AD7832",
"4X c #AD7238",
"5X c #B67235",
"6X c #B97230",
"7X c #B77B37",
"8X c #C77A36",
"9X c #C17633",
"0X c #C87B43",
/* pixels */
"Z J.b :X X{ s q I y.w 7.) 4 e % k 7.g y 4 y .Xo. Xm l.%Xy d s.V b D.N u.m j.f c.z.s s R 7 6 k B F d k 2.z.s w s &.X.X.5.7 a % q ",
"S p.:.@X3Xf f s w s T t.5 5 : U.2.k d y 1 d i.o.;.o.O.{ o.m 3 -.M 2 < C m { I 0.I q s : 9.6 j y j F B 2.s 9 w e.} f ..d g a h 7.",
"n N | j.H. .s L L w q.y.t.& q a z.f 5 m { m H.<.;.y k.k.d y t t M t 3 1 4 m O.s X.L q q E a 4 = d k 4 q : L &.6Xh.s 5 & 7 q 7.r.",
"u i.m m I h.} L $.U `.E L w w 0.+Xf  . .;.K.<.k.f a <.@X;.d a.d C d f..X6 7 y.y.y.L 9 0.5 2.e a = 4 & 5 > U U V.%.w - 5 s _ ) q ",
"f OXO.f U %.C.P Q $.M.^ q.E 3.X.&.B.L.k. . . .f a 7 f  .| m j.6 6 8.B !.l.Q.R H y.0 L [ w h h ) 2.5.R L 0 L $.[.].%.I X.3.0.' q ",
"f ~.I X.I U Q Q q.M.P L |.q y.I } I Z.,.{ { 7 f { g.w...#X~.d d y j 4 9.7 w 9 w [ Y ] Y w 9 ; r a ..w.y.%.L w L e.L I q 9 : w w ",
"q I 5 X.L T 0 L , P T ^ y.T > R L w s h.l.f a d ..k 2.l.W.9.j y i oX4 = @ h 5 w Y T T w > 0 ; h d s s 0.0.U L E X.> q q w r h Y ",
"h : 5 9 t._ 0 w H [ 9 ; r.q 5 5 L T 3.3.3.2.d q 9.9.& a ) 7 4 1 6 8.4 g & : : Y T.R [ 0 @ w Y Y d 7 5 s L w w w.1Xq & q q r.9 5 ",
"4 e h & q 5 r.w w Y 9 - Y Y.q 5 w w r.a k 7 2.4 g % + g 6.c 4 x x i g * 4 4 7 ) 9 5 0 w q 5 q R a % s q 0.y.q s t.g : g e 5 & e ",
"h h 7.: : 5 9 ) Y r & & 5 q @ & q s R 7.& 7 j = 5 g : & g 6.j 1 6 7 g 4 c 2.g 7 q E : E s t.h 3.l.a a q s h {.3.g 6.^.= . & & e ",
"e l ` g 4 4 & ) ) ) e h e 7 7 h y.s f 3.d l.!.% 7 7 & 4 7 k 4.4 7 g j 6 a k ..3.d 4 5.5 R 3.& R 3...7 : 9 : 7.h 6.= g % : 8 : ` ",
"c c * 7 h g 4 g 7 g h e e : z h s s $Xl.2.a /.a 7 f 5 s ..O.d ..7 4 4 7 k k d f a k w.f 7 R k Q.f a R R > h R h h 4 l * 8 c e ( ",
"g 9.g 7 7 4 a ^.) e e 5 z > ` 5 q U h.w.I f X.a 5 X.z.U 5 &X>.7 q 4 : a ..o.k a k 5.l.7 & d ~.l.{ `.z.L s 3.> ) 5 e h 7 e z h e ",
"k k k 4 7 g 7 2.) : 4 : z - r q 9 0.0.X.q 5 q I E w.%.$.U +Xd h.X.I q s ..z.~.O.O.f f f 4 f f I O.g.w.s w 9 Y q h 7 * a ) 5 9 9 ",
"5 7 ..a a k 7 d g 4 q 5 z 9 r ( 9 H Y q s : 0 w T q.M.P L =XC.$.w.E q E w.$X].{ { I f { $X7 w.I I &.+.s U 0 0.Y h k q 7 h - q > ",
": a a ..k 2.2.R h q q q h ( > ; K 0 9 w E s L H 0 0 P P y.$.L q I L s 0.I I } I a h.O.f I I q } *XN.Z.e.s w 0.q s q q > 3.0 _ 0 ",
"4 7 k R g 7.Y.R s w R Y w r _ w r r w w s e.9 +.J _., r.Y 5 7 m ..l.s I E y.z.w L X.c.&.d O.X.k.;XA.%.e.0.s I 5.c.f 5 : E _ r., ",
"7 7 g k h h ' 3.Y I H 0 0.{.T r 5 Y s s $.L +.Q / ~ , r.h q 7 d.d ..a q &.q.'.C.w I X.O.c.O.>.} 8XV.w : > d I OXc. . .f &.E Y ] ",
"k a g 2.h q r 3.q > w w 9 0.w > 9 q 3.0.h.A.e.+.m.'.H w : q a o.....5 : E M.Q I w.s s  .c. .{ I } U +.L s w.I c.{  .4 d 5 9 {.[ ",
"f g R 7.) 5 5 R E 5 q q > I w @ 5 s 3.h.} *.V.+.P q.; [ q : l.o.5...q L L q.L w.I q d O.O.h.O.Z.U L *.I s ..w.c.| g.o.| X.I w _ ",
"q q h 3.) 5 > s I I s q a 7 s 5 I q 5.a d L *.L U e.q.L `.t.% ..o.5 5 U w L w %.s I s w.OX5X].} L , Q U X.f c.{ O.f OX%X5.d 5 q ",
"w q h ) h 5 9 w X.z.z.].X.f #Xz...7 OX .d >.U U $.T T q.3.3.l.= f 5 I I L P U w U } s c.5XO.w.q %.L C.w.z.I OXO.7 m { a m m f a ",
"_ s Y R r 9 q w t.w.w.+Xf l.&X..4 O.OX7X{  .h.%.'.L 0 E L : a = & a [.} U w $.L I L X.].h.: q w.L E M.L I 7 7 6 { | c.a 7 #Xo.a ",
"_ q w Y q 9 q q 0.OXh.c.7 c.i.{ d d ;.c.O.g.&.w Q q.q.L 0.I f 5.O.h.[.C.e.L U e.C.s X.} I w.9 X.U M.0.5 L O.7 { g.%Xo.{ 7 m m f ",
"w s w h ( q w E q &.O.>. .a { ..g.j.j.d { d s q L w L w 3.I 7 R f I } L U L V.U w.h.X...w.I L E L T q.L @ s h.c.j.O.&Xm 5.m 1 d ",
"w 3.' ' q 0 q X.X.w.}  .{ 7 a a o.f m d m a R t.w I L z.3.X.d 2.z.f h.} } C.V.s X.X.c.X.d q E R L w 0.q L { &.g.{ a 7 m m #Xa j.",
"q Y R h Y h s s s h. .d a f O.{ g.H.o.7 d 7 4 5 s q L w.s f 7 k { w.I U U s *.} I w.OXf I s s R q w E s } h.6X} Z.f 0.#Xk g.o.f ",
"& q 2.R ) 3.3.3.q I  .h.&.d f O.o.m l.!.4 % a 3.q q 9 R 3.5 2.k ..{ I &.} U s f I ..h.5 ..R s Y _ 0.L } %.&.U A.N.} X.I ..{ ..q ",
"% 4 5 a 5 9.Y Y 9 d I &.O.d f O.c...m k 4 * 7 ) w q I 7 2.4 6 a f 5  .=X%.Z.h.q O.a { 7 d X.3.) t.s X.e.L B.I *Xh.I L 0.s X.X.q ",
"4.7 7 4 k 9.3.s w } I q s &.z.w.O.d 4.4.4 7 ^.7.7.}.E I 2.7 k 4.O.h.} h.I &.L.a O.f f y f f s s & 3.s q N.*XN.I.N.$.L E X.X.L w.",
"d.a j 4 7 g Y R X.U } &.e.&.U X.m 7 1 6 v 4 : h ) Y d a a 4.k d...{ a 5 O.6XL.L.f O.d y f s : q 5 Y 5 { >X,.*.+.e.@ ; > L L e.y.",
"l.d % k % W.q E L } e.h.h.&.I I f m d 1 j 4 4 c h 9 7 a d 9.k 7 7 { d } w.} O.X.c.l.m m a ..3.R a f 5.s -X*X9 L L ; / / [ H P L ",
"2.a a 4 @ : w t.U I w.h.&.a h.{ f y d.B B 7 a k 7 d g g ) g e : ..a 3.s w.&.q s ].X.f a d o. Xd i.l.k 5 }.3.L Q q.P W './ n.J ! ",
"3.3.q 9 : w q Q.C.X.h.&.d f >.a l.f d B B d f 7 q s R 7 k 7.& a g ..d 5.I ].L q E 0.d 4 d d m d O.I R r Y > w +.Q 0 0 q.[ m.! @.",
"q t.s & R Q.E I I w } { q &.g.a q a l.5.f I q d I X.s 3.I I s 5 a ..f ..q E L & w Y h a j d B d s $.P 9 9 9 H %.L U y.q.Y E } L ",
"s Q.t.q R w 9 L } X.h.O.f ..O.7 4 t.d q w.{ I w.e.s U e.} h.z.I s q f 3.X.y.y.> q 9 q 7 j j B a w ^ L 0 H T U N.U U T q q R 0.d ",
"L C.U ^ L 0.5 > w X.X.f f 6 m f s : 0.I I I U %.%.} U U h.U v.+.q s z.$Xw w 0 0 q h 5 & c j 6 B U 0 H M.T T Q *.U q s 9 q 7 g q ",
"P [.q.w ; U E w w X.O.{ O.4 ..4.t.E I w.0Xe.} e.e.N.*.V.I.s V.L } 5 q s s s w w h z r 4 g 7 6 k z.U L y.`.C.+.U $.E Q.r 5 5 q 5 ",
"+.Q q.q.|.9 5 - q q f { m y 9.l.R L 0.E e.U s Z.+XL A.Z.V.B.V.*.`.w.I w I H _ ] Y 5 r 5 4 4 y k f I : : E 3.q 5 ;Xw.t.> ; ' T Y ",
"Q P P Q y.; 5 X.1XO.5.o.6 7 j k I } 0.X.} w.&.} +XI q > U $.U $.w `.q T L E E Y ' h q & 7 7 k .X2.a 7 a k ..{ I -XL t._ 0 w ; E ",
"J Q 0 $.y.w.0.R w.5.5...y 1 6 k R s &.I z.q s s 0.X.z.s L 0 ; w I 0.T E 0 w Y Y ) 5 4 4 7 7 OX Xd j l l e 7 s I -X} E 0 ; r r.5 ",
", L L L 9 R Q.t.x. Xl...a o 7 a s s w.X.].7 q 5.l.f a 7 s I 0 q _ R s s L q R s h E s 4 a a K.%X..4 % 4 7 : q X.+Xw.q : q q f X.",
"0 H 0.T : 7 a 6 f d 6 d 2.7 4   & q z.f d ..9...4 a }.Y.Y.3.t.s I I s 0.I s w I q ) q 4 | m =.j.k h z z r 5 4 5 a ..R 7 7 9.2Xo.",
"q.T r.3.5 4 = a m d y B a 2.4 q s I X.7 d 7 * 7 4 7 2.k q h Q.X.Y s t.X.t.q I s t.t.f d g.f m  .: 5 5 : : e a q = * = c R.y V x.",
"s w ' 7.g y 7 <Xf.d 4 y 4 g = e r.5 a ..d 5 4 6 k g k l.q s 3.t.3.R f X.f R s s R h a a m f k.,XO.q : : 8 5 5 7 4 7 7 6 1 * t t ",
"; > 9 e g y 1 s.G V m B k 5 e e : w h s 2.7.2.k 1 a /.5.d 5 I s ..f X.a R s s q ) h a q 7 a  .;.m 7 4 g v g g 2.j = 7 =   X 6 % ",
"h q : 4 4 4 $ t s.d 6 4 2.2.7.q ) Y ) ' k 7 2.7 k B !.4 f d &.O.f f ..5.f ..q a ) g q q g ..I f u t t 6 6 7 g j c z z : ( ` d X.",
"z e h U.F j 6 j G u d 6 a Q.E h ' Y 9 q h : 7.c k d ..5.w.g.s Z.O.f { ..{ 5.I R 3.h 7 a k a 7 I i.o.B j j F j d g 4 e : ' (.3.y.",
"h r R 5.x.6 y 1 i F k 4 w.X.w U 0.X.s t.5 5 c 7.k 7.2.f q q +.9XA.O.f d m m z.y.`.f a 1 d R.q 5 R w 3.Y q 9.4X4.y m 6 q X.X.0.3.",
"_ q L OXg.7 6 * * 7 7 R 0.U U e.s I I R s E 2.2.a 1 f o.{ q #.A.} w.c.i.O.O.c.X.h.I d = y 7 g r Y Y T q.5 f { j.o.d d a a 4 q 0.",
"O 0.R X.w.l.6 6 9.4 4 h y.} [.w s q s Y 3.q 4 g 4 1 k 7 f I Z.e.I ..w.h.w.I X.{ X.I d 4 7 = h h w w q X.o...a c.{ m d y a q ) q ",
"s R R 0.q f a 5.5.d 4 Y R y.A.U ..q R t.3.5 4 7.6 7 j d h.L I w.f a s I E q f f f I s R f k ) 2.s w 5 R 5.x.d x.l.B l.4.B 2.4 ) ",
"q I T.(.f 5.| f f I h - r.L U *.3.k 9.3.q g R l.a a 7 a R q 9 I q g h w Y s k a 4.o.X.q.E 3.7 7 3.f o.4 a 4 B <Xl.W.a g 7 7 e ^.",
"5 q 5 q a X. . .L.{ q q 0 P P U t.) E d 5 X.z.t.x...d d s t.T._ e g r r Y 9 d ..4.o.y.q.y.y.3.4.j 1 7 y !.y a 7 4 g k a 7 6.4 i ",
"q 3.3.R q ].>X} +XI } T H 0 m.U R a q 5 s 0.&X$X&.a q s Y R ] 0 e 7 5 w h : q 5.W.Q.0.I w 9 5 1 y F 1 4.6 4 : 5.3.2.g k 7 4 j g ",
": ..4 d d I } N.&.Z.$.$.q.P P 9 q q 5 & L I Z.h.} w.} & q w 0 ; : 8 7 e h 5 a k Q.$XL X.q w s 4 F R.F y 6.+ 5 g 7.q h 7 k F d.X ",
"d B f ..I d &.I *.%.#.%.Q %.q.E q q 3.I &.#.N.} U U I > 9 E Y ' > ).& 4 j R s X.}.X.I X.I s L Y 6 p i E.= 7 5 ) h h q f 4 = d < ",
"j 4.o.O.f 7 s } w *.L A.P P q.T.) 5 w L %.Q *.#.} q $.U `.|.Y Y ) l o 8.4 7 q w w s X.a q d 0 $Xj 3 1 7 4 7 e 9 q q Y q 5.i.1 C ",
"4.B o.j.>.h.0.s U U b.U Q +.^ T R : w T e.Q @.U B.B.=Xh.&.: w Y q g y u t * d } w q 7 a 4 q q.E g 1 # = * z ) ) ; h I 5 d j.{ y ",
"t 4.C m O.g.d I w L P I.v.L E T.q q _ 0.e.Q #.U L q s q I 5 R 5 a 2.t u n B O.w.} X.X.7 q I U q.j y 4 4 & q h 7.) R q s 4 y %X;.",
"p.M n d 6 d s s q.$.U A.V.L w 9 q a ) R T $.e.$.%.s &X{ { a 4 q k .Xn 3 N m a OX{  .f 5 q I U I d 7 g 7 e : h ( r s Y s f O.l.%X",
"XXp.< t 8.W.g X.w L [.U U L L q 7 4 5 q w T 0.I h.q w...B d 1 a u -.3Xj.;.m | d  . .I &.&.0.`.q k a a E t.R s w > w I q R l...l.",
"S.D 2 u c 9.3.X.} e.L e.U s U q a 4 5 7 q Y s 5 d a y 5.4.d y u G.G.j.;.| P.a.;.m g.c.} %.E q I w.O.s z.t.T.w 9 r.w 5 w s a ..5.",
"A F.t t 6 l Y I e.$.e.L 0.w.Z.O.6.6.v a 5 h s : ..5.4.4.d 4.y C G.b N =.1.=.N :.@XH.{ U L w X.a { { } } 0.3.R s q h R R s s q : "
};
