/* XPM */
static char *c2695107980e46b2f2ad4a5535ce14adfIiDD9KhNsfEMHLR[] = {
/* columns rows colors chars-per-pixel */
"64 64 256 2 ",
"   c #0B0701",
".  c #190A05",
"X  c #1A160C",
"o  c #1A1912",
"O  c #031A06",
"+  c #280A08",
"@  c #350B07",
"#  c #28170C",
"$  c #37150C",
"%  c #241B13",
"&  c #2B1C14",
"*  c #2A1817",
"=  c #3B1514",
"-  c #341A14",
";  c #3B1B15",
":  c #3D1D1A",
">  c #341817",
",  c #360D11",
"<  c #192516",
"1  c #0E2B19",
"2  c #24241C",
"3  c #2C241D",
"4  c #2B2718",
"5  c #33241C",
"6  c #3C221C",
"7  c #342A1D",
"8  c #392719",
"9  c #2D2814",
"0  c #2F1E20",
"q  c #183324",
"w  c #2B2923",
"e  c #332422",
"r  c #3A2423",
"t  c #342B23",
"y  c #3C2C23",
"u  c #382C2B",
"i  c #2B3428",
"p  c #3C342B",
"a  c #38362A",
"s  c #3B3935",
"d  c #2D3731",
"f  c #470806",
"g  c #48130B",
"h  c #431414",
"j  c #4C1414",
"k  c #441915",
"l  c #4C1A14",
"z  c #441C1A",
"x  c #4C1D1B",
"c  c #45171D",
"v  c #541D1B",
"b  c #5B1C1B",
"n  c #561715",
"m  c #541210",
"M  c #651A19",
"N  c #751A1B",
"B  c #43231C",
"V  c #4C231C",
"C  c #49271B",
"Z  c #53231D",
"A  c #5C221C",
"S  c #53261A",
"D  c #44321E",
"F  c #66261D",
"G  c #7B291D",
"H  c #481E21",
"J  c #521E23",
"K  c #5A1D22",
"L  c #701C24",
"P  c #432522",
"I  c #4B2423",
"U  c #442B23",
"Y  c #4B2B24",
"T  c #422E2B",
"R  c #4C2C2A",
"E  c #4A262B",
"W  c #532423",
"Q  c #5C2524",
"!  c #532B25",
"~  c #5C2A24",
"^  c #542628",
"/  c #5C262A",
"(  c #542D2A",
")  c #5C2C2B",
"_  c #443225",
"`  c #4C3225",
"'  c #43332C",
"]  c #4C332C",
"[  c #4C3A2C",
"{  c #443A2C",
"}  c #523123",
"|  c #54332C",
" . c #5B332C",
".. c #58392B",
"X. c #572D31",
"o. c #443433",
"O. c #4B3632",
"+. c #433C33",
"@. c #4B3B34",
"#. c #473C3B",
"$. c #533533",
"%. c #5B3432",
"&. c #543A33",
"*. c #5C3B34",
"=. c #533D3A",
"-. c #5C3C3A",
";. c #593739",
":. c #472D30",
">. c #632423",
",. c #6B2525",
"<. c #6C2C25",
"1. c #632C2A",
"2. c #6B2D2C",
"3. c #652728",
"4. c #722A24",
"5. c #722C2B",
"6. c #7A2B2B",
"7. c #762424",
"8. c #63332D",
"9. c #6C332C",
"0. c #673729",
"q. c #76352C",
"w. c #662C32",
"e. c #772E34",
"r. c #643432",
"t. c #6B3433",
"y. c #643B34",
"u. c #6C3B35",
"i. c #6A363A",
"p. c #643C3B",
"a. c #6B3C3A",
"s. c #633639",
"d. c #733433",
"f. c #743A35",
"g. c #7B3C34",
"h. c #753C3B",
"j. c #7C3C3B",
"k. c #793436",
"l. c #384537",
"z. c #2C4632",
"x. c #13442E",
"c. c #4C433B",
"v. c #48453A",
"b. c #54433B",
"n. c #5B433C",
"m. c #534B3C",
"M. c #574437",
"N. c #564B35",
"B. c #64433C",
"V. c #6C433C",
"C. c #68473A",
"Z. c #73423D",
"A. c #7C433C",
"S. c #774838",
"D. c #683C42",
"F. c #783D42",
"G. c #5F3C40",
"H. c #345545",
"J. c #30654B",
"K. c #4A4B43",
"L. c #584844",
"P. c #495546",
"I. c #585548",
"U. c #5B5954",
"Y. c #505252",
"T. c #644442",
"R. c #6C4443",
"E. c #644B44",
"W. c #6B4B44",
"Q. c #6C4D4A",
"!. c #654B4A",
"~. c #744542",
"^. c #7B4543",
"/. c #734B44",
"(. c #7B4A45",
"). c #744D4A",
"_. c #7B4C4A",
"`. c #74464B",
"'. c #675549",
"]. c #73534B",
"[. c #7C534D",
"{. c #795548",
"}. c #695A52",
"|. c #7B5451",
" X c #765B56",
".X c #7D4D50",
"XX c #51624E",
"oX c #676658",
"OX c #786458",
"+X c #6E654F",
"@X c #7B6B63",
"#X c #6A7365",
"$X c #5E5E60",
"%X c #841118",
"&X c #901A25",
"*X c #86282B",
"=X c #96252C",
"-X c #83352B",
";X c #823C3B",
":X c #8A3C3B",
">X c #853835",
",X c #933837",
"<X c #903132",
"1X c #AA3536",
"2X c #892919",
"3X c #84443C",
"4X c #88463C",
"5X c #93443C",
"6X c #A3423B",
"7X c #B0433E",
"8X c #813F43",
"9X c #913543",
"0X c #A13C43",
"qX c #824C44",
"wX c #8C4A44",
"eX c #854C4B",
"rX c #884547",
"tX c #934443",
"yX c #994947",
"uX c #83534C",
"iX c #8B544B",
"pX c #885548",
"aX c #97554B",
"sX c #8C4E51",
"dX c #9A4B51",
"fX c #845452",
"gX c #8C5452",
"hX c #875B56",
"jX c #985956",
"kX c #A64645",
"lX c #A7524B",
"zX c #A55959",
"xX c #B6514D",
"cX c #89645A",
"vX c #98665B",
"bX c #90624A",
"nX c #A2645C",
"mX c #B4615C",
"MX c #8A5D61",
"NX c #AB5E61",
"BX c #896966",
"VX c #986A63",
"CX c #9A7569",
"ZX c #927670",
"AX c #A86865",
"SX c #A6776C",
"DX c #B1746E",
"FX c #C65956",
"GX c #CD7069",
"HX c #E8626B",
"JX c #8A8578",
"KX c #AC857A",
"LX c #CC877B",
"PX c #B17881",
"IX c #948E83",
"UX c #D38F85",
/* pixels */
"B.&.! [.(.uXqXhXSXCXcX|...$ V.C.'.& %.p.T.U W.B | V fX(.h.F.%.B W x z : a p ) e.zXNX>.q.G 1XFXGXN 7.d.S ..Y jXrXl t.8.r.v.v.l.K.",
"C.C.y.~._.Z.gXuXuXVXCXcXV.| V.].U !.H ^ p.%.! ! Z t.gXrX8Xd.y.I h w.x R p p W ,.yX7.9.wXkXkX6XkX:XF ~ Z.).cXj.;XZ ~ v Z { v.K.U.",
" .V.r.a.uXZ.CXvXVXSX[./.)./._.).-.Q.|.W h.Q t.u.j A.tX:X>X,.2.n j K h ) - 4 ( Q M 6.6.tXkX<XF F aXg V.V.j.8X6.,.d.9.>.8.c.P.L.L.",
"Z.uXZ.[.uX_.VXVXvXvXVX(.V.uX .V.U B ; ~.k.M f.g v 3X>X6.5.>.5.g h J j ) n.[ C ~ rXtXM 5XkX6Xq.S.A.pXl u.j.dXk.5.Z.~ n A ` b.=.;.",
"9.(.uXfXvXCXSXSXvXVXiXh.~ u.Z./.U - | _.d.b v 1.u.f.g.5.>.f.f.l B $ h Q # ] V x sXM >X5XkXxX>XF pXg.DXF h.h.2.1.8.S >.d.u.~./ J ",
">.A.iX(.VXCXCXhXvXqXwX<.9.iXu. .T.T.: R.Z v v 1.(.9.f.2.Z Z.u.C - *.r.Z.z /.$ l m 5.<.lX*XxX6.M <.;Xb m ^.(.8.r.y.~ b M b 3.v v ",
"m 5.9.Z.VXCXCXvXvXnX;XF <.9.Z.V.B.| ].B.| (  .u.Z.t.t.8.Z  .` 8 ] *.t.h.g u.>.b >.f.A F mX-X4X3Xg.k.A h.v h.! V. .1.7.L 2.h.W ^ ",
"6.;Xv pXcXcXvXCXiXzXyX4.j.d.8.p.W.!.-.Q.@.'.U r.u.F.u.u.Q W 6 U y.8.2.t.t.8.d.5.b ;XA.9.3XF F F 3X>.uXu./ i.Y ].y.t.7.L 2.~.^ %.",
"tXaXnXqXvXVXcXvXvX3Xk.yXn A.r./.- ] 5 t v.t &.^ w.>.rXe.k.F.I ; ~ d.j.2._.Z.h.>.5.k.;Xq.4.<.S S <.rXgXu.^.V.M.&.cXv M M A y.Q.-.",
"6.yXj.pXbXS.S.SXg.g.F M <.n Z.V.%.BX Xc.w w r %.J F.e.sXgXuXT.*.) Q ^.1._.8.) b b ;X6.tXN q.g 0.<.2.fXa.hX( U y &.! d.>.l ) R.R.",
"6.;XjXvXgXS.vXS.nX5.F <.f.~ u.1.i.D.R % % o.e R hXD.F.p.$.5 +.{ *.%.Z.t.r.h.r.(.t.2.dX:X:XM f.A.Q qXjXhXD.E.y 3 _ M.Y ! ) v W _.",
"<.aXjXvXaXnXnXjXnXj.q.f.A ~ Z.uXgX.X* . 5 & c.=.-.= + , @.I.y ] | B.Z.t.b t.) a.) x j.k.,.5.jXVX(.Z.).Q.p.;.o.+.y M.M.C.) u.^.W ",
"f.f.wXjXnXjX4XnXq.jXA.f.Z.8.).*.).U +.< v.I.3 ' -.P I B.B.C.u.Q ^ ) f.d.rXj.t.k B Y %.~.W (.^.eX[.OX'.}.D.MXL.T U V = | : : y.u.",
"n <.jXf.zX4X4.wXjXvXt.~ W y.y.! Q.OXm.p t y &.!.-.R &.U W.u.,.5.v Q i.^.f./ i.a.*.Q.W.] B.y.Q ~ hXM.oXU.BX:.p y + a.W C y.%.) w.",
"g A jX4XF 4XzXzXjXA.Z.V.z ! B (  .~.x I Y ( ~.(.%.Y n.E.! j.7.yX8XQ + ` 6 *.I W D.R.*.= U W Q t.) &.P.i a 3 2 e %.^ W  . .x ) Q ",
"8.S A.g.AXdXzXzXzXgXfX .).k I V ) r.1.Q  .k Q i.p.] 9 8  .A :XtXk.1.$.M.y n.^ ) %.I p.%.| I 3.b h ] v.d l.K.i e p.w.%.! W x 3.>.",
"} V.l d.jXAXmXzXdXjXVX].a.x %.k $ z = z : z I p.n.7 # U  .A dX:XzXj.qXr.Q.| ) D.%.R W r.( *.(.j h R c.v.i o #.6 ^ k Y T. .1.>.>.",
"} /.^.gX(.~ d.aXAXhXW.].a._.%.P &.$ = B : $ = ] 7 7 P R ! k 2.j.j.j.qX~ B.U p.s.= U J ) %. .f.~ = *.' y +.3 =.E I = B  .V ~ 1.A ",
"Z.fXqXZ.B.*.C.B. X+XZX X/.r.| -.! [.(.W I P ( + & 5 z %.B.n.` B.~.(. .C c.n.).X.Y : = ) 8.u.A.v = Q.=.O.p.z E I = J Q / r.u.~ 8.",
"rXj.t. .C.M.'.'.m.I.OXOX[.u.I B ( ~._.r.|.p.h %.| P |.p.}.M.y M.{.[.` [ p @.%.) r.= $  .u.4XwXA ^ Q.=.E X.c z ^ / W 3.Q W y.Z.Z.",
"*XL 5.Z &.m.I.m.I.oX}.OXhX~.%.B C  Xp.*. XhXh./ ^ p.R Q.{ 5 @.B %.| c.v.I.b.( J Q ) Y y.wXyXyXdX1.^ -.-.!.-.I h = ^ ) ! V.u.A t.",
"%XN >.$ _ }.'.I.OX+XI.'.Q.y.r.! [ _ -.Q.W.fXw.>.^ , R $.# b.P *.( | . 7 o L.H >.j v Y 8.*X=X<X:XsX) -.6 r T -.^ x z ] | %.8.f.;X",
"&XN b C M.I.E.ZXBXBXOXJXn.C.i.hXy % P ).p.^ w.J U , ).( P B *.C.W *.=.' @.P 3.n 5.b } 0.%X&X,X-X^.%.-.# X % n.= = P { _ *.8.2.rX",
"%XM n C M.+Xn.hXSXp.m.oX#XOXh.r.'.y ] *.*.z h z > P = p.B R $.P = ( + ] R ^ 3.>.n v k g %X&X=X4Xa.=.@.% 4 3  X- P : y # $ h >.d.",
"6.>Xj V *.OX X|.VXT.v.XXH.P.W./ r.! *.| ' r : ^ > r : , y 5 =.&.$.I : : s.w.VXd.b Z ~ q.=X&X*X9.'.m.+.& 6 T.| P + ; z I $ k Q j.",
",.n A ~ {.]. XcXZX&.v.z.z.P.T.i.t.~.I U . I.&.P - O.| R @.y @.U . -.D.H i.i.1.r.8. .y.q.=X%Xf @ ] 4 % 5 I %.( @ $ k 1.Z V @ b d.",
"<.<.M 2.u.|.}.+XBX}.v.oXz.I.).^.W _.%.z . % X 5 t e + X.-.L.O.& y > I a.r.`.fX|.C._ ` A 7.*Xf V 8 y ] - ( @ ) W j ~.~.8.Q b M *X",
"7.-X6.6.rX~.OX+.u v.a oXi s T.R.Y  .(  Xb.p 3 u I.s . G.$.$.$.T . ' = %..X).y.&._ [ [  .;Xk.@ Y Y $ ; $ p.@ w.rXgX8.u.l b ,.*X&X",
"=X&X&X,XdXk. X'.a i I.P.i i a y &.*.P + @.& T @.L.w * =. XT | , L.5 + ) r.V.Q.B 9 m.U B Z.t.@ *.) r.Z.) -.|.vX2.b uX$ {.d.N *X=X",
"1X=X6.;Xd.^.Q.JXi i s K.I.K.K.p B | U U % p =.=.t c.+.I.e e r ] @.# -..X%.I %.E.m.{ ] -.R.p.I @ f t.(.^ hXr.K 3.2.r.B ; 8.dX,X0X",
"-X<.'.{ n.E.L.oXXX#X+.}.}.Q.E.Y a.i.r.I ' y e T t +. XL.U.i i o % 6 p.) z x k V @X& U %.$.p._.W $ V ).a.^.Q qX1.) C } ..@ qXjX>X",
"9.C.l.z.l.U.c.I.#XoXb.P U : ; k Z g Q ) U 5 > r 3 e e 3 w d 1 q o 6 I %.c = z B '.- n.&.$.I W t.k BX|.VXeXh.~.cX8.(.S ..} C uXiX",
"_.V.b.v.s $X#.L.v.I.. - # 8 : ! S l ,.>.@ + U r e u u X o K.z.1 X '.%.H : 6 * $.n.* 2 p E J ~./ R.%.ZXBXeX_.&.] eX3.! 6 U ( _.VX",
"SXV.B.L.U.Y.U.L.% t 4 t v.{ P z ..u.d.d.V._ - > 0 e w X u U.q z.< 5 z a., : 5 T O.y i < &.( `.p.-.OXZXZX_.|.[ U t.jX).` *.I $.T.",
"wX4XV.D v.2 p . 3 a < < a 5 X.c  .S d.h M.& =.L.:.. p % !.!.w o t ] ).w.H > e w :.o.w 2 m.@.=.n.y +.OXR hX|.| | 1.vXW V SXB y L.",
"g.F @ |.# # - - @.u i l.e -.D.c V.V ~ y.c.m.}. Xb.o.3 u + |.o.K.7 # : R.R.!.p u r L.w     m.L.{ p m.}.8 | VX[.Z.j.9.r.].= P % 4 ",
"@ {.{.cXpXq.iXqXa.W.' > / rX, %.a.a.i.%.p 4 y L.e o.2 . E X.H > @.@.  5 L.!.o u + o.p +.e { t c.L.t 7 9 8 ..VXd.yXnXC.m.E.> 5 X ",
"| cXV.LXGXmX5XAXA.^.%.%.e.3.r.I ~.j r.( +.2 { + =.L.% e P X.E P b.+.X o 2 v.#.p e O.u 3 L.E.y y ' # X % 7 D Z.rXk.eXn.m.c.y ' O.",
"Y.O.a.UX,X6.aXKXnXAX~.p.V.l vX_.W ) h ; 5 t > $.P O.w s + P $.E.b.m.  w l.P.w u * * i s L.I + r - ` OX8 8 8 l A.(.V.| 7 a a @XE ",
"H.s I gX5XyX-XyXmXzXSX/.M.$ 0.0.1.h ^ Q.& { &.= I R p X { T o.O.' L..   d d z.w =.* o w P W.$.-  X].fXKX` W.g Z.Z.C Y 7 2 2 r D.",
"z.XXI.C.S.5X,X7X1XkXAXfX_ [ g F W |.; U ' ' Y ~.r.Y OXc.{ @.{ p L.-.PXhXo XXq H.U.u s X > n.E.U R.~.hXKXKXcXuX0.f.(.6 m.d d :.BX",
"U.oX+X{.bXG 1XFXxXyXh.V.N.[ S >.-.r O.b.& P ) v j _.U & @Xc.t X 5 %.w.F.=.z.H.x.i +.s * =. XB.W./.hXcXDXA.iXiXA tXd...m.P.Y.u E ",
"kXGXLXLXUXGX1X1XwXy.U t v.  $.R { 3 t 5 y U ) 2.M h.a.cXE.E.I.5 5 E w.3.D.s H.x.1 2 ' -._.fX).*. .cXy.8.pX4X>X,XkXf z oXi #XX BX",
"1XxX,XGX-XLX1X6XZ._ m.v.s v.2 +.w 2 2 p *.! 9.n k.zX3.Z.Y 6 5 7 &  X%.i.`. Xz.J.q l.T ^ sXsX[.].| | ! ~ n f ,X<X,XzX| m.v.K.I.o.",
"2X6XGXFXG DXLX4.0.M.U.XXv.l.q d i 7 . # V ~ >.b 4X6.wXt.! &.@.c.3 % y R %. XP.d z.P.L.hXzXzX(.] ] &.$ 1.5.:XyXyXyXwXOX_ ).P 3 K.",
"-XxXxXGXwXvXUXjXA.} oXl.c.3 < l.v.5 [ B.~ wXj.4.4.>XrXrXW B }.p I.o +.t $.-.L.a z.1 4 ZXrXtXV.[ ] ] ! ^.5.7.*X,X5XA.7 # 8X8X* P.",
"4XaX<XN (.hXDXDXzX3XN.m._.i.@.#.b.].a.v >.>XM 4Xq.<.5.j.k &.'.U.U.I.o L.* P Q.' I.P.XXJXVXj.B 7 ' 6 %./.uXf.,XyXtXcXl.9 dX*X> i ",
"DXq.,XM u.V.rXyX,X4.OX'.vXrX%.O.%.hX^.3.<.<.<.wX4Xq.3XeXB.' l.U.p '.7 y $.%.p.T.@.oXIXXXI k { 9 ; R./.Z.V.(.6.lXjXOXXX% dX9X, 5 ",
"F M G N 7.6.:XkXkXlX~ C.3XvXV.../.hXuXZ. .V.qXm 4Xq.A.u.Q.p l.XX@X}.8 8 R $ 6 [ -.OXJXK.+.@.v.% u.<.j.A y.[.uX~.Q.OXoXp rXL h ! ",
"g.F 4XM 6.>XtXzXkX>X4XA.j.wXV.y._.[.Z. .} C.pXq.aXwXg.0.Y I.w v.'.BXC B.8. .U Q.|.R.IX@X}.I.U.BX9.<.wXA.S.].VXcXp oXl.L.rXf >.Q ",
"g A l S } $ S.wX:X:XyX>X-XN 3XA._.y.! ....y.g.g.A.<.:X4X .@X}.b.W.vXA.9.jX3.8.!  .v rXVXL.@. XhXSXqX1.u.k p.gX_.X O q +.F.tXf.1.",
"qXf.~ S # y ` u.n yX:X:XyXzX<.uX/.Q.| B Y /.A.;XvXg.<X,XS.uXVXy.~ qX<.,.tXk.jXeX/.gXk.d.cX'.Q.) V.W r. .*.a.jX~.< 1 1 m.t.;Xf.S ",
"6.,.rXx . 9 | y.~ n M 5.j.9.CX` B.Q.%.| [ B.f.:XaXaXkXxXyXn A wXmXlXM 3XdXzXvXu.Z.9.jX8.M.7 8.1.*.] *.; U p.rX_.l.q O I.u.5.(.y.",
"rXj.K [.5 I.` V V.8.h.AX8.V.C.M.C.]. .V.E.W.d.,.4.,XxX6XlXlXq.M xX*X>XaXaX<.A. .0.S 9.S.'.D Z t.z $.E Y B )./ ).c.o i p r.^. .*.",
"-.+ U * y 7 B  .B.} 8.fX; $ _ [ B.VXu. .| [.iXM :XN ,XlXkX6X5XyXmXtX5XaXf.~ ..| ` } Z.AX]...>.b W -.R.%.Y B B ).# % p % ( p.[ [ ",
"* c.' > > ; V V V.! _.uX{.fX/.hXV S.~ V.! W Z.t.:XmX7.yXN lXlXnXwXwXtX3X~ } C - 8 ..VX9.vXjX6.M u.p.! %.Y $ - p.|.T.L.X -.-.3 2 ",
"w c.u L.@ @ v 1.j.h.j eXsXd.zXj.aXS.S. .A.f.y.u.,.:X>XF M 4.j.9.8.(.j.f. ...M...! (.eX<.5.6.7.6.h.a.8.u.0.V ! /.MX`.=.* =.u 2 i ",
"u o u =.J i.i.~ v t.^.Q jXb AXdXq.S.~ C.f.2.SXV >.,.F >.f n h.fXY /.u.v hX&.- y.Q jXgXt.M 6.>X4XwX9.d.3Xd.A.qX8.hXp.=.% * 0 u i ",
"e u w * $.| L.E.] Y 8 _ &.Y ).hXq.S.0.pX1.t.VX~ Q 1.v Q @ ( %.V | Y y.= ).| P J m NXKXZXvXF 3XS.pXn 4Xq.wX;XlXrXa.T r 0 e u w s ",
"o.u 2 % 6 - v.t M.&.5 5 M._ P cXS.F 0.A.a.) W u.x x k ! z B P R &.n.%.) B : , J n M  X].SXSXS.uXiXDX<.F m 5XtX:X|.5 > e * u s s ",
"b.e w % 5 T { I.8 &.OX&._ + [ OXcXS.u.u.hX( Z Q j Z ..Y R.I $.@.L.Y n >.%.: ^ h v ~  .V.SXKXcXS.S.vXAX<.wXyX,XtXV P * + u Y.s s ",
"L.L.t % P B ; ].B.{.V.| M._ ` W.*./.8.) y.~.a.Z j ^.} W.I R.: y ] | d.b ! + W.W x l 1.A wXjXaXvXDXeXiXd.q.q.M aXhXp.I > # o.+.#.",
"c.o.e &.).^.rX^.(.gXjX^.&.5 Q.T.C.].Q.B.) F.| U 1.v } ..( = ] E.I hXA x : ` z ) ) j.,.lXkXxX1XkXdXf.j 9.q.F 0.1.jXd.) $.O.+.p L.",
"c.c.=.: i.2.n k.>.AXzXrX! [  XR R 6 y ] hXQ n.W.h.A V W.V.). XQ.x x j ~ ] T ( a.1.5.tX<X=XxX1XHX9Xj jXf.iXg V _.jX,.r.p.{ c.c.+."
};
