/* XPM */
static char *_415a1e0e0634e308465a87312683fa6ZPQzjfbBff23xtSW[] = {
/* columns rows colors chars-per-pixel */
"64 64 213 2 ",
"   c #350C00",
".  c #3C0D00",
"X  c #3E1201",
"o  c #4C0400",
"O  c #440C00",
"+  c #4C0C00",
"@  c #4A0A08",
"#  c #540400",
"$  c #5B0300",
"%  c #540B01",
"&  c #5B0B02",
"*  c #5C0F09",
"=  c #441403",
"-  c #4C1203",
";  c #4E1906",
":  c #4B150A",
">  c #451909",
",  c #4C1B0C",
"<  c #521302",
"1  c #5B1203",
"2  c #531904",
"3  c #5B1B05",
"4  c #55140A",
"5  c #5B140A",
"6  c #531B0B",
"7  c #5B1B0C",
"8  c #571D12",
"9  c #5F1D11",
"0  c #640400",
"q  c #6C0300",
"w  c #640B02",
"e  c #6C0B02",
"r  c #640E0A",
"t  c #6C0D0A",
"y  c #740300",
"u  c #7C0401",
"i  c #740B02",
"p  c #7C0B02",
"a  c #7A0609",
"s  c #750C0A",
"d  c #7C0C0A",
"f  c #641304",
"g  c #6C1304",
"h  c #641A05",
"j  c #6C1906",
"k  c #64140B",
"l  c #6C130B",
"z  c #631A0B",
"x  c #6D1B0C",
"c  c #741205",
"v  c #7B1205",
"b  c #731906",
"n  c #7D1805",
"m  c #74140C",
"M  c #7C130B",
"N  c #741B0C",
"B  c #7B1A0C",
"V  c #6D1511",
"C  c #631911",
"Z  c #6C1C13",
"A  c #751414",
"S  c #7D1411",
"D  c #731A14",
"F  c #7B1B13",
"G  c #741F18",
"H  c #7E1D1C",
"J  c #562306",
"K  c #55210C",
"L  c #5C2015",
"P  c #64230F",
"I  c #6C220E",
"U  c #74210C",
"Y  c #78210E",
"T  c #672214",
"R  c #6C2113",
"E  c #642810",
"W  c #6C2119",
"Q  c #742112",
"!  c #7A2114",
"~  c #73241B",
"^  c #7F201C",
"/  c #74291B",
"(  c #7E2C21",
")  c #830401",
"_  c #8B0501",
"`  c #840B03",
"'  c #8C0B04",
"]  c #84070A",
"[  c #8D060B",
"{  c #840C0A",
"}  c #8B0D0A",
"|  c #930402",
" . c #9C0402",
".. c #930B04",
"X. c #9B0B04",
"o. c #950609",
"O. c #9A0709",
"+. c #940D0A",
"@. c #9B0C0B",
"#. c #831205",
"$. c #8B1205",
"%. c #831805",
"&. c #8C1905",
"*. c #84130B",
"=. c #8C130B",
"-. c #841A0C",
";. c #8B1A0D",
":. c #921205",
">. c #9D1205",
",. c #991805",
"<. c #93130B",
"1. c #9B130C",
"2. c #931A0E",
"3. c #9C190E",
"4. c #840E12",
"5. c #8C0D11",
"6. c #910D12",
"7. c #9C0E12",
"8. c #841412",
"9. c #8B1512",
"0. c #841B13",
"q. c #8B1B13",
"w. c #851E1A",
"e. c #8B1C19",
"r. c #931411",
"t. c #9A1512",
"y. c #9B1512",
"u. c #921A11",
"i. c #961B15",
"p. c #961F17",
"a. c #941B13",
"s. c #9B1C13",
"d. c #9E1815",
"f. c #9C1B14",
"g. c #931619",
"h. c #941C1B",
"j. c #9C1E1B",
"k. c #A10604",
"l. c #A50704",
"z. c #A30503",
"x. c #A80506",
"c. c #A20800",
"v. c #A30B05",
"b. c #A90B06",
"n. c #A90C05",
"m. c #AB0B02",
"M. c #A10C08",
"N. c #A30D0B",
"B. c #AB0C0C",
"V. c #B00807",
"C. c #B50C0A",
"Z. c #B80C08",
"A. c #A01007",
"S. c #A41105",
"D. c #AB1103",
"F. c #A5150E",
"G. c #A3120C",
"H. c #A9110C",
"J. c #AB130D",
"K. c #A41B0D",
"L. c #AB190E",
"P. c #B5120D",
"I. c #BE100F",
"U. c #A60910",
"Y. c #AA0E12",
"T. c #B20F10",
"R. c #A21714",
"E. c #A31512",
"W. c #AE1414",
"Q. c #AC1413",
"!. c #A41912",
"~. c #A21A14",
"^. c #AE1817",
"/. c #AA1B14",
"(. c #A11519",
"). c #AD1519",
"_. c #A51B18",
"`. c #A51E18",
"'. c #A31D1A",
"]. c #AB1C1B",
"[. c #B31314",
"{. c #BA1614",
"}. c #B41913",
"|. c #BB1C16",
" X c #B4151A",
".X c #B91418",
"XX c #B11B1A",
"oX c #8C210F",
"OX c #95200F",
"+X c #842113",
"@X c #8D2215",
"#X c #82231B",
"$X c #8A231C",
"%X c #832A1C",
"&X c #8C2A1F",
"*X c #922215",
"=X c #9A2116",
"-X c #94241A",
";X c #9C231B",
":X c #962F1E",
">X c #A42316",
",X c #A4231B",
"<X c #A82619",
"1X c #AC231F",
"2X c #931721",
"3X c #9D1E20",
"4X c #912120",
"5X c #912825",
"6X c #992C21",
"7X c #A62721",
"8X c #A52C24",
"9X c #AF2C24",
"0X c #B82221",
/* pixels */
"$ t t l % < % j e.` ) ) =.i c e M 0.M -.n p 1.X. .l. .G.1.3.' ` F m ) | X.b.I.Z.c.A.X._ s # k 4 o ~ A H t G D k k % % o % 4 .   ",
"D D G k 1 o 1 Q M i.d._.s.;.n w B w $ 0 i ;.<..._  .M.F.X.+.' =.M i ] _ | J.b.n.X.1.X...*.0 w # o * r 0 l l G f # # & $ % 5 - > ",
"W 5 7 < z 1 h w i a.R.0X^.`.-.g 1 < k w e -.;.;X' 1.@.G.X.@._ } *.s g.+.@.!._ ' :.:.....r.{ m r % 5 # w e F D f x l e 0 $ & 1 z ",
"o % z z f f b e ;.<. .W.W.E.q.Y < + 1 w g B c -.*.u.+.1.+.<.} u.y q { <.t.s.` ;.$.....+.7.6.8.m # % o 0 0 M 0 0 N B { { s t 0 0 ",
"& 0 t B g b B ;.<XF.k. .1.' =.B % 7 & l G D N b B -Xi.i.` ` p 0.y y q M 9.p i *.+.@.t.t.+.+.` d f 1 l t M p c s p { 6.r.6.] d s ",
"H 0 $ B +X@X%.2.G.Q.!.' *.i *.t $ k # % k & f e c 0.=.a.=.#.i n a.=.e g B q i =.@.7.i.i.[ +.) { 0 & i M p *.u ` ' <.+.+.| _ 6.g.",
"s q w N Y c ` 3._ :.;.n j f j w D D % O K 7 1 e y ` ) +.2.i.=.=.r.=.e 1 x N s g.7.@.=.*.` <._ } M c p s.` s.` t._ @.@.Q.U. .+.] ",
"4.S j % j c ` _ ..` e N z k & r t A T - = O o m p.,XE.1.' ' u ) 1.} B & f x $ y j.r.d p u <._ :.a.p [ ..1.1._ ..1.@.| @.B.O.+._ ",
"g.a e w N v 1.E.+.` B l l V r A 8.q j % < + & M ) 1X@.G._ ..' 3.+.r.p e # % w $ w m q q ` } _ <._ [ 1.| J.N.| _ | | W.Q.@.+.' 2.",
"5.a i e i y =.d.' 9.B f o & $ A d *.i g w $ i y u <._ X.1.3.$.:.d.t.} M $ # & w & $ y *.=.2.<.) @.@.@.N.B.B. .1.....N.M...' ) ` ",
"y d { a.*.p q q $X#X$ 1 + 4 % r s i.` =.) ` ` y u } :.:.3.3.$.$.} ` ` *.e g i c w w p ` v #.} +.@.N. .W.z.l.X.1.:.>.X.1...) #.*.",
"u ` | R.d.i.M t w Z % 1 + o + # i ` r.+.| (.' p p p a.` <.<.#.=.p u u p v -Xi.} y i #.#.v p ` :.y.E.N. XN.M.G...' :._ ..+.) #.i ",
" .v.v. X[.].r.M $ ~ ~ r V l Z % w q *.) o.6.] { y q *.y =.2.$.#.-.i y u ` 1XQ.G.t.u p *.i v u.` ` ' N.N.@...<.) _ ' ) <.~.<.` 0 ",
"m.P.P.[.B.N.' i & % w 0 0.i m 0 e e y u +.) 5.{ y i 0.M *.*.*.#.B e p <.@.Q. .M.1.' ` u u ` r.=.y u 1._ :.<.$.u ` ' ' 2.<.[ ` p ",
"v.D.m. . ...=.0.0 $ l m *.y u i.p *.u d ] ) 6.5.y M G x f w N b g 0 #.!.B.P.| ..) 3.2.} y.+.) } *.v *X} <.,X=.*Xp ` .._ ) ) ` u.",
">.S.D.c.J.1.=.i 0 0 c 0 y } _ [ } ` *.d y 9.] g.u i $ & % % j 0 B p :.X.l.}.X...<.s.s.<.+.(.g.{ 0.n 0.v p -Xp 6X#.u ' | <.s.:.r.",
"| X.J.v.B.F.p v q -.B q u ` u ` ` =.p p q y } 5.q q 0 w & w 0 9.<...:.3.,.X. .A.' 3.' s.i.{ 5Xm M B N N w g g c q.a.+.+.`.1._ t.",
"X.G.Q.B.T.M.y q p *.n p } ` d *.} ` =.p M i a.{ y q e l l m q ` _ ..:.' ' :.H.S.:.$.) 7Xe.e j j F B j U 3 z 1 w d r.d.s.a.} ) ' ",
"|  . . .B.Q.2.a.;.` u =.<._ u ` _ ' ` #.{ { *.i 8.i $ 0 s 9.u ` u #.=.$.' 1.H. .$.=X=.*Xi j 3 3 ! N f f 2 3 h c 2.t.=.y 0 0 i v ",
"X.X.N.W.^.1.) u ;X` ) <.~.t.} ` ' 2.` u.' u.0.M e.M 0 q y =.] 9.s M *.*.' ..| | s.2.:.=X%.g - E f l f 1 < 3 I +Xa.<.} p e g n i ",
"@.X.O.O...' =.;.=.) ) +.1.1.=.` #.$.2.=.s.} j.{ 9.9.q.9.u p u *.8.d i y u ) ' ' 1.X.N.^.~.#.% 3 # x Z 1 3 z x c ` [ +.<.;.;.;.p ",
"+.t.E.d.=.p p y y ` +...[ ' ` p p ` ' <.<.<.r.` { p } <.` =.u u d *.d y p =.;.` ..Q.[.N.Q.r.f < f ~ ! w k z 1 & *.2.1.@...' ..<.",
"r.s.<.=.i i *.p i a.`.1.2.=.` $.#.<...~.+.j.r.#.c q u _ _ r.' ) ) { 8.M { *.B c a.~.@.W. X+.f E P / e.y b 1 - < c ;X1XE.1.1.v.B.",
") } ` ` c c q.u q ;.1.<.s.a.$.$.2.:.X.| 1.:.a.p q q ` +._ @...[ _ ) { { ) y e j i 6Xr.'.(.3Xx 7 - R h.5.0.% = J & @Xj...<.E.B.B.",
"=.` 9.y n c p =.y u <.<.2.$.2.:.<.' 1.~.1.t.#.q v p ` ) _ | ..[ =.` ` ~.N.~.n $ f f % l w.F 5 6 ; R h.3Xd #X< 2 < $ n @X#.$.1.| ",
") ' ] u *.p 2.t.` u _ ..' ' 1.`.' ' :.+.E.y.#.n q.` p } +._ _ $.$.p <.@. X@.;.w % + + % l k - 6 7 R S 9.y c w h I h & 0 n =.' ' ",
"..t.[ ' =.) +.| 2.' ' 1.....@.!.=.2.2.[ t.+.u ` u.` u } <.' ' $.%.$.$.X. .k.:.q.j f 1 & l k < 6 / z # j *.;Xr.*.N % f B y ` i.` ",
"| +._ [ 1.+.@.O.y.1.:.s.:.R.M.O.' $.2.=.2.=.u ` *.#.p ` =.2.=.$.p &.` ..|  ...j.-.B m i i r & 1 z x % N M } +._ *.i e c =.2.=.` ",
"+.+.<.+.1.Q.@.@.1.=.p -.=.j.@. ..._ r.r.*.M p i c b v p *.;.t.<.` $.OX' 1.' 1.1.=.=.} +.[ } n m g ! N ! B 9.j.d.d.+.` d *.*.' +.",
"+.=.2.+.@.Q. .+.+.u q B q.u.@.O.y.[ 2.=.i i p q g w e n -.*.1.`.2.2.a.$.$.=.R.E.=.=.+.N.@.y.a.*.0 e q q e n e.r.E.O.i.p.i i u.i.",
"y ` ` =...E.+.2.2.y 1 h B #.+.+.[ ) p p i n *.*.p q w g B v =.s.2.2.$.;.y ;.f.j.v p ' ....1.1.) ` =.a.#.e w g n +.y._ p %XQ i 0.",
"q -.v ;.` _ [ } -XN 3 + % e =.=.` #.p i *.*.p *.q.*.c g c v p p ) u ;.*.%.$.j.:.#.p ' :.,.~.3._ a.=.d.r.+XN % 0 =._ _ } e w w l ",
"q c M m 0.e.6.] H % 7 6 + Z w.a y y i p ` } ` u.' a.p i p *X#.p q.-.;.p } j.1.1.' s.:.2.2.a.;.y %.=.y.d.=.-.N g ;...| | } q l k ",
"0 q e e t s 5.2Xw % 4 + O 5 t q s v *.` } +.' :._ ' 2.$.s.<.$.` y i -.=.:.1.| ..1._ 1.' *.i i @Xp ` 1.E.+.` %.n %.:.X.M.R.{ m & ",
"e 0 q s B S 8.4.$ & k 5 < % 0 d ` =.a.<.<.<.| ..<.' :.1.>X3.3...=.p v $.y./.1.1.1.+.+.s.0 c q =.<._ | 1.1...' ` ` $.1.G.].<.m # ",
"e v i.=.q 0 q 0 # # w & % w y ] ` ` <.<.<.+. .@.<.' | !.1.`.!.@.,X<.` ` X.G.1.1.<.f.<.s.i i M y 3.X.| M.Q.G.+.' =.;.<.1.~.} 0.t ",
"a.j.].<.q $ $ # o + f w 0 9.E. ._ ) ' <.2...| G.) ' G.`...G.J.F.@.3.3.1.X.| ....2.:.' ;XM s B y ' >.F.F.F.G.1.s.=.$.$.=.<.u ` ` ",
"1X1.X.1.9.M e & z o f F 9.~.[.Y...' ..<.<.' _ 1.$.:.f...X.X.Q.F.X././.`.!.1.1...<.=.` 9.0 0.e n ` ,.G.>.G.1.1.r.=.` *.*.;.u _ | ",
"X.| ..1.2.{ u M N $ 0 *.t.@. .W...:.2.:.:.$.` $.=X2.$.u <.+.E.F.G.H.l.H.3.<.1...<.` 0.0 q s m N %.&.' ..1.1.=.=.9.*.B B 0.#.!.W.",
"Q./.<.' } } _ ` p B i q ' G. .N._ :.2.' ' <.#.%.2.a.v -.=.<.' R.G.J.V.P.1.` <.1.} #.$ g d y m ! c v ` ' ,...+.'.{ s w $ e ` ^.[.",
"J.J.1.$.) _ o.+.' ` i p ' X.v.J...:.$.s.<.2.#.%.-X#.n :X$.) ' R.X. .C.J.<X` y ' =.q w g p y 0 F ;.` p $.' 1.Q.) y 0 Q & 0 }  .|.",
"{.J.' ` u _ o.7.+.` i i =.<.X.X.1.<.' :.' =.#.-.v v i p ` 2.' ' /.c.m.c.3.i.i.=.=.0.0 # M M 0 &X#.) ) :.| v. X@.e.w 1 # i ;XX.c.",
"C.B.| 1.' r.) ) [ ) q w c { | @.) ) _ +.r.=.=.` q *.$.=.=.$.' `.L.c.n.F.R.s.=Xy ;.M c q 0 c c s r.| +./.v.x..X).g.m w & m ;XG. .",
"P.J.| <.' =.{ ) [ ] e & w e ) r.9.{ ] ) { u ' ` p *.2.>Xs.2...!.}.S.X.K.1.' =.p *.q e.e.$ 0 M 0 { [ +.Q.c. .B.@.r.S e w g #.1.S.",
"N.G...' _ ) d { 6.5.w % % & 0 s w.S 8.s *.p =.} i #.2.j.:.s.1.| J.L...K./...=.;.p *.=.{ i q y s y a [ @. . .1.| } a 0 t b i ..X.",
"X.@.1.} ' u s s 4.s # + 5 1 % # $ w t m S M 8.*.p p =.;X<.`.R.X.M./.:.1.!.E.' } u i.) u e.c y 8.$ t a ] ' :.1.` { y q m B p _ X.",
"C.B...} ) s l k & % O - 5 5 % + 4 5 1 & 0 e l m @Xv y =.=X9X~..././.>.' _ 1.[ } ) r.' } =.` ` s o @ # w i ` $.` c i m m M ` ' ..",
" .@.} i.{ *.$ # % 5 6 4 k * 4 6 O 6 6 T l N c c u s.} u _ `.u.$.3.,.>X>X..d.+.` { r.=.+._ _ 1.*.# o o w n #.;.oX-.c i y d <.' | ",
"o.+.M c ` y $ w q q # & D D < = > , 4 % w e p ' >. .v.N.y.j.M e c n *X#.:.,Xi.=.i 0.i._  .B.@...=Xq y ` ' ' ;.i y =.' [ u ` _ M.",
"_ } s i { ` c 0.a.=.#X0 i #X< O O < Z F @X2.<.>.L.J.P.N.t.e.l 1 U w e -.=.2.u p B c #.<.N.l. ./.<.1.' 3...:.p -.;.2.1...2.=.@.@.",
"_ [ ` p ` ' =.i.=.;X*.i s w.( % * k 0.9.,XK.!.K.:.:.:.` p j % % h f Q b q.` *.*.B c p ` G.Q.X...1.:.:.) f.' %.-.` :._ 1.p a...@.",
"| +.=.} ..+.+.[ ` q.y { d s #X$ l m e.' /.M.L.K.,.&.$.i e j 1 1 x N w e p 8Xi.` i -.*X$.' +...<.j.=.' :.[ s.2.#.) ....R.u ;.<.1.",
"1.<.:.' ......_ ` y s p a M t $ 1 j e.+.XXv.J.K.3.&.#.y i c e q F M 0.p r._ E.f.=X-.-.-.*Xq.p p *.=.=.2.) ' $.} ..| ~._ #.u <._ ",
"1.' ` ) _ ..<.} q 0 e g S F D w 1 k 0.+.^.B.J.K.>X&.&.v p q.0.M 0.M q e.=.t.X.X.2.#.-.-.B i 0 c q p q.u r.u ` ' +.| +.u ` u ' ) ",
"<.u y p _ [ ` i g x < 5 Z V Z % 5 k d _ N.B.B.J.1.) ` p y *.0.s $ r l g c y <...:.` i w g m e 0 e M i 9.*.a.` ' @.G...' ` =.' | ",
"=.p i *.<.=.s $ Q < ; = 5 W + L + % q ) 7.W.Q.F.!._ ' ` y 8.w.l r C f x c p :.1.' $.*.i e e s 0.0.0 c M i y *.y +.E.y.) #.` ..X.",
"#.y @Xi 9.d e l T - X = O - , = . + & S r.+.E.@...y.+.` d q $ k r r Z l p =...M.Q.G.3.q.9.*.] e.e $ 0 g w 0 y y 7.(.' ` a.2.X.M.",
"=.` -.9.e.y i l 7 = > , : : : =   O o w i u 2.<.~._ [ g.8.l * o # t r m M p [ _  .| +.` p *.] { m w b b w g q u 6.t.{ p ;.=.@.M.",
"[ <.] -X0.q 0.t - = 6 8 : - = O   X < k g s 9.u.} ) +.h.M & 4 : % l r m B s 9.} +.+.` y e m d 0.$ e w x k & m s ] ] s c n *.1.@.",
") r.` q.i t 4Xe - : 7 C 5 4 - + - < z x e q i y =.} u y m 5 = , 4 & D l t m m e.=.` ` d M i y M M c F w % 1 # 0 y y r g c *.t.@.",
"_ <.} 8.0 m 0.0 < 6 k V Z z 1 & l e i i q y i p =.a.` y e 1 X = + % D l w w $ e 9.] [ ] =.} ) g.=.e.q $ % - Z l q q % < w c i.y.",
"..' *.0.g Q m l + 5 l F ! D k g *.) ` } ` =.%.%.#.2.;Xa.y 0 5 + + f w m w o # $ M 4.5.] } r.} r.j.} *.0 + 2 # & r r + O % t q.s.",
"' ` v b j I x x % z N m B b f b u.[ 1.<.' $.u y $.' G.E.+.r.*.0 & f q s l # 1 1 $ e *.{ *.M y y [ _ ) M 5 - 7 & r z = . < w M } ",
"$.;.i $ % 1 h 1 1 x N i i e w b a...1...' $.` ` ` 1.F.N.Y.O.) 8.w $ s S F Z + % Z r q q e e e *.'.+.i.0.5 2 9 z & C = X 2 f y u "
};
