/* XPM */
static char *aaa20659cb844d80e9f2a57e293ea669BrlbbG3iLlqZnZud[] = {
/* columns rows colors chars-per-pixel */
"64 64 256 2 ",
"   c #3B2838",
".  c #3D333D",
"X  c #3A393C",
"o  c #37292D",
"O  c #331B28",
"+  c #472A37",
"@  c #582B3A",
"#  c #45333D",
"$  c #4A343D",
"%  c #49383A",
"&  c #54363C",
"*  c #4D252D",
"=  c #69373B",
"-  c #79363A",
";  c #732836",
":  c #611E26",
">  c #4E4E3B",
",  c #75493A",
"<  c #706B3E",
"1  c #3D3744",
"2  c #3D3856",
"3  c #342D49",
"4  c #3B3E69",
"5  c #4A2A45",
"6  c #562D46",
"7  c #4C3444",
"8  c #4C3B44",
"9  c #4B354B",
"0  c #4C3C4A",
"q  c #453746",
"w  c #533543",
"e  c #5B3444",
"r  c #533B44",
"t  c #5C3C46",
"y  c #54354B",
"u  c #5B344B",
"i  c #543C4B",
"p  c #5B3C4B",
"a  c #4C3C52",
"s  c #473857",
"d  c #543C54",
"f  c #5B3C53",
"g  c #553C5B",
"h  c #593858",
"j  c #4B2E53",
"k  c #622A47",
"l  c #792C46",
"z  c #643B45",
"x  c #63344C",
"c  c #643B4B",
"v  c #6B3C4C",
"b  c #683646",
"n  c #753C49",
"m  c #793845",
"M  c #643C53",
"N  c #683B56",
"B  c #773B57",
"V  c #762B53",
"C  c #533A65",
"Z  c #4D376E",
"A  c #653D65",
"S  c #7A3B65",
"D  c #733870",
"F  c #364550",
"G  c #4C4449",
"H  c #54414C",
"J  c #5B434C",
"K  c #594649",
"L  c #4B4554",
"P  c #544254",
"I  c #5C4353",
"U  c #5C4A54",
"Y  c #5C445B",
"T  c #5C4B5C",
"R  c #554858",
"E  c #5C5359",
"W  c #535251",
"Q  c #63434C",
"!  c #6B444D",
"~  c #664A4C",
"^  c #78464A",
"/  c #644453",
"(  c #6C4353",
")  c #644B55",
"_  c #6C4B55",
"`  c #63445A",
"'  c #6A445A",
"]  c #644C5B",
"[  c #6C4B5C",
"{  c #734454",
"}  c #754D54",
"|  c #734C5B",
" . c #7B4C5B",
".. c #784657",
"X. c #63525C",
"o. c #6A525C",
"O. c #695657",
"+. c #74535C",
"@. c #7A525B",
"#. c #765758",
"$. c #745849",
"%. c #766B51",
"&. c #494568",
"*. c #5C4B64",
"=. c #574767",
"-. c #5B5568",
";. c #5A4A74",
":. c #585576",
">. c #4A5572",
",. c #644C62",
"<. c #6C4C62",
"1. c #6C4C6B",
"2. c #654867",
"3. c #7A4D62",
"4. c #734D6A",
"5. c #774967",
"6. c #645364",
"7. c #6C5363",
"8. c #6B526B",
"9. c #695A69",
"0. c #735463",
"q. c #7B5464",
"w. c #725B65",
"e. c #7C5B64",
"r. c #74546B",
"t. c #7C546C",
"y. c #745B6B",
"u. c #7C5B6B",
"i. c #674B76",
"p. c #794B79",
"a. c #685877",
"s. c #735B73",
"d. c #7B5B73",
"f. c #7B5C7A",
"g. c #765676",
"h. c #596474",
"j. c #6B656A",
"k. c #78656A",
"l. c #6C6879",
"z. c #7A6373",
"x. c #7C637B",
"c. c #7C6B7A",
"v. c #776876",
"b. c #787376",
"n. c #883837",
"m. c #8F2C2F",
"M. c #A93339",
"N. c #8C5038",
"B. c #9F663B",
"V. c #A9593E",
"C. c #882B47",
"Z. c #863748",
"A. c #972B58",
"S. c #873858",
"D. c #95395A",
"F. c #933449",
"G. c #A83B4D",
"H. c #903A65",
"J. c #AA396C",
"K. c #86464B",
"L. c #97464B",
"P. c #89544B",
"I. c #97574A",
"U. c #874957",
"Y. c #974957",
"T. c #83555D",
"R. c #8C5C5B",
"E. c #875658",
"W. c #96585A",
"Q. c #AC4B52",
"!. c #866659",
"~. c #956859",
"^. c #90724E",
"/. c #A66F51",
"(. c #864966",
"). c #954A66",
"_. c #825564",
"`. c #835B64",
"'. c #8A5B64",
"]. c #82546B",
"[. c #8B5C6C",
"{. c #885769",
"}. c #965968",
"|. c #894B74",
" X c #835B73",
".X c #8B5D73",
"XX c #865878",
"oX c #965B77",
"OX c #A55B68",
"+X c #A65C75",
"@X c #AB4F6B",
"#X c #8D636A",
"$X c #886669",
"%X c #9C646B",
"&X c #966769",
"*X c #897868",
"=X c #997768",
"-X c #846373",
";X c #8C6374",
":X c #846C75",
">X c #8B6B73",
",X c #83637A",
"<X c #8B657B",
"1X c #846B7C",
"2X c #8C6B7B",
"3X c #9B6C73",
"4X c #92657B",
"5X c #936B7C",
"6X c #976776",
"7X c #897477",
"8X c #977678",
"9X c #A56467",
"0X c #A67868",
"qX c #A66A77",
"wX c #B46B79",
"eX c #A67579",
"rX c #B67A78",
"tX c #B1706B",
"yX c #958656",
"uX c #978372",
"iX c #AA8275",
"pX c #A2805D",
"aX c #5B4C83",
"sX c #6B5982",
"dX c #795781",
"fX c #77558C",
"gX c #596A88",
"hX c #696686",
"jX c #796985",
"kX c #7B7385",
"lX c #6F738E",
"zX c #8C5782",
"xX c #836A84",
"cX c #896985",
"vX c #956A87",
"bX c #887587",
"nX c #937283",
"mX c #987789",
"MX c #9A6A91",
"NX c #887594",
"BX c #977995",
"VX c #856C93",
"CX c #A46B87",
"ZX c #A67887",
"AX c #A67896",
"SX c #B3738B",
"DX c #AF6790",
"FX c #CC6785",
"GX c #768392",
"HX c #9A8388",
"JX c #958693",
"KX c #A88589",
"LX c #A88598",
"PX c #B48292",
"IX c #B083AA",
"UX c #CB8796",
/* pixels */
"9.a Y ,X' / I + % J / + u ` d Y p | ( {.v v { ( p r U 0 T 9 d 9 f f *.T :X8X$X3X'.4X5X$X$X#.#.^ 9XZ.Z.l C.- < < %.> O.9.I $ K % ",
"s 9 x.<.' I i 8 r $ / r.r.` T 9 0.0.e { v v v & t p 7.T ,.d Y ,.f Y P R 7Xk.>X#XqX6X[.`.&X&X#X'.E.U.l l Z.m %.> %.> O.k.$Xe.O.# ",
"Y d ,.r.<.r.7 ] i i 7 p 0.` T i y.0.c ( { b v z t t X.U P i 7 d g *.2 -.j.b.e.'.).OX+XqX%X&X'.3XqX3X}.Z.; n k.j.k.O.!.!.P.#Xz.j.",
"xX<.,.,.[ y.1X7 7 ] ] ] y.] U X.i / / Q { @ z ! t & K I J ] 9 d =.&.:.h.l.b.+.[.U.).}.qX%X%XR.#XT.&XE.}.U.k y.T k.} $.~.^ eXu.y.",
"cXcXY f x.I y d.y.i ] z.1Xk.o.X.U / / Q +.c ! ( ~ t $ K i ] i T >.>.gXlXlXb.w.$X'.[.T.#X'.#XR.3XeXT.#X>X-X<Xd.cX .^ E.!.^ R.3. X",
"t.4.r.8.9 8.,.d.d.d i H k.c.+.o.y.7.7.[ q.[ | _ _ Q $ r $ r i T >.gXh.GXl.v.y.q.T.'.$X$Xe.e.$XeX3X3X7XHX>X2X2X.X}.K.R.P.R.E.`._.",
" Xf y.6.9.8.4.XXf y.y.U w.w.#.e.7.7.7.] ` ` [ _ _ _ r J r 7 / ,.:.hXkXl.1Xr.4X].'.T.e.k.bX2X>X3XKXuXHX7X#.$X$X&XW.}.wX9X}. .T.T.",
"q.d.7.9.9.s.g.1.d.,Xz.k.k.o.`.} <.*.,.] ` 0.0./ 0.q.J ) / $ p 7 a.a.bXz.z.5X4XoX%X#X>X:XmXbXmX8X$X8X*XHX*X!.!., 9XOXY.U.U.'.#X#.",
".X<Xz.bXd 8.,X4.XXXX1X1X0.>X&X .r.2.8.,.8.,.` <.<.[ u.[ p _ I ` h f.u.8X:X-X3.[.'.%X5X-Xx.NXmX8X8X7XuX*X%.%.^./.N.: L.K.K.eX[.+.",
"{.;Xu.w.] ,.r.r.t.d.nXy.e.! '.6XbX*.2.8.s.8.s.d.r.' [ [ 0.y.) f M <.] K 7X>X4X{.'.3XmXnXcXbXbXmX#X!.*X*X%.< N.B.N.N.n., E.[.4X.X",
"KXZX$X_ 0.[ 0.[ 4.t.nX-XZX_.%XZXr.8.2.Y s.8.` ` ,X4./ M ' 0.7.[ I r nX7X) >X;X#X6X>X,Xd.f.f.1XZXeX=X=X*X%.%.N.B./.: N.0X}  .CXCX",
"^ T.6X3X@._ 0.| t. Xt.].;X[.{..XBX1.s.s.8.d ,.r.<. X].3.[ / _ ] 7.9.% k.~ `.&X3X8X;X:X1XcXvXoX6X~.!.*X7X*X*X^./.B.B.N., ! ( B (.",
"E.E.9X%XT.@.[. Xq.u.q.;X]..X]..Xd.xXx.d Y Y Y <. X;X].| M t ) k.8 ] ) >X#X^ K.R.ZX;X2XnX4XCX+X).!.#.>X5X7X8X=X/.^./.N.P.U.v (.l ",
"K.m K.Z.qXqX;Xe.o._ 3.4X.X].3.u.cX8.z.s.7.Y ] [ q.| | q.q.p & ) k.t -X#.#X&X^ ^ [.e.>X-X`.6XCX}.eX>X4X4X:X8X=X=X^.P., P.&X^ m K.",
"OXY.Y.n.Y.}.6X>XmX5X;X4X4X].t.2X1XcXz.i U o.[ _ q.3. .{ } Q & ) +.q.f J 7X*X!.E.! e.2X>X>X3XqX6XcXf.;X>X7X8X3X&X8X=X~.N.R.W.Z.).",
"Y.n.F.L.- %X8Xk.`.ZX4X4X4X<Xt.mX-X-X<X[ ) _ +.( ..;XeX`.+.+.K o.e.( 7.7.:Xk.>X} +.-X$X#.$X&X'.CXAXcX<X:X:X7X2X5X:X:X$X0X=XR.Y.S.",
"L.L.m.n.n.R.>X-XE.qXoXAXvXcX;X.X;X;XCXCX'.R.n n = n R.} o.8 J _ _ _ [ y.w p 4. X'  X8X`.^ =X&XR.3X[.q.9.bXkXNXVXjXz.v.O.w.5XoX|.",
"}.S.F.n.N.= ~ >XP.K.6XvXvX<Xt.q.4X3.oXoXZXE.^ U.n ^ &X} y.U ~ } _ _ _ 0.<.d. X4.' ].#X@.E.P.R.P.E.[.q.6.hXjXNXVXxXx.bXc.v.z.<.' ",
"..[.b - K.= $.E.Q.F.nX1Xx.,X-X.X3.B B (.{ #.`.} / u._.| ] <.t '.+.+.| <.[ 4.4.4.( 6X^ }.^ m K.W.U.^ _.c.kXa.a.jXVXxXcX,Xy.r.,.r.",
"XX,Xe.#XP.P.= R.Y.Y.8Xc.9.8.cX<Xu ..k N _ ] / <.1XbXr.f r./ e z } @.| q.' ' M t.' {.{ T.'.= n K.}.U.6Xq.6.v.s.cXxXxXvXXXt.d.7.r.",
"8.x.<.2X} = ^ K.}.U.mX:Xk.X.1X X` f ' [ 8.1.cXr.j jX2.f.,.] / u.{ B {  .].].[ y./ _ Q e.>X`.! b ^ U.%X[._.<Xd.g.x.xXcXt.5.t.[ 0.",
"9.R y.0.`.'.R.U.5Xu 2Xk.:X] y.d.,XmX1X,.*.=.A 2.;.a.C A f.7.7.p { B (.c  X<X-Xk.o.k.o.7X:XnXr. X! n b U...{ u.y.s.g.g.5.5.t.[ $X",
"k.U U r.mX{ } Q 8.3 T 7.0.| | 0.0.w.k.c.=.C C i.&.&.Z i.2.z.7.] / [ 0.p U z.j.k.k.b.7Xv.c.s.xXvXx b m K.- ^ } I ,.8.g.p.XX.X| e.",
"~ k.:Xt.oX(.! K 3 2 1 v.' ].t.' q.z.7XR &.;.;.C &.4 fXsX` 0.] U p / i ] # j.G E k.b.j.c.9.s.8.r.4Xb Y.L.; m @ u.x.cXvX5.5. X[ o.",
"} `.| ;XvX[.! r &.3 T mX' B 5.t. X2XK E =.:.;.:.gXgXaXsX` p [ p ] J y.9.X.9.X G X X.c.6.T =.=.1.].6Xm m U.R.>X+.1X1XXX(.B ].y.X.",
"3X3Xq.3.CX(.m !   3 6.7.5.5.p.A .X].7X0 L :.3 &.>.>.aXa.d w e / / p [ / I J $ 8 % K P T a.jXa.dXN ..U.K.m m $Xo.u.vXvX|.|.XX] j.",
"6X;X.X' 3.}.L.: * O w 5X4.2.p.dXAX5X_ ] -.=.NX=.:.>.sXi.<._ c ( c ( 3.( ' t / / r I y.P g.=.i.g.<X .U.S.Y.m } +.[ <XoX|.oXXX] v.",
" X X X;X6XSXQ.L.; = * x vXdXA p.4..X0.7.R -.2.8.a.>.i.=.s.[ / c z v ( c N N ( ( / [ [ d.1.VXi.i.vX{ ).l ; l [.`.| [ ].(.XXXXf.x.",
"XXr.<XvXU.Y.G.G.n.L.K.{ XXi.i.i.y  Xt.mXi I xX*.2.8.1.<.,.P I J Q t t e c  .v v { @ x 5.p.zXdXA 1.;XCXl D.@X}.[.+._  X' .XXXcXXX",
"g.xXr.' SXwXD.G.Q.m.; SX5.2.i.C y N |.oXq.p I 1.g 8.` y.P Y ] _ ] ) o.) p | c ..].x x vX5.p.p.dX<...oXS.H.).). .} q.;Xv oX|.XXzX",
"l.s.<XCXCXZ.A.J.m.m.F.@X|.h g g 5.k CXCX;XJ i Y a d i ] d Y ' ( J O.w.0.c e x ' ].6 u N g.i.i.p. X(.(.S.S.V (.SXT. ._.B |.|.p.dX",
"jXs.XXSX).D.J.A.n.n.m.FX+X].f h |.S S B >Xk.z.a R q 1.g =.d M e Q o.+.e.q.u N x { x u 6 g.g.a.8. X..B H.V V S.l }.n ..U...XXvXzX",
"cXt.vXCXH.A.A.A.C.Z.C.@XC.qX(...zXH.|.p.>X$Xz.6.L s Z aX;.8.f [ @ ( c | t.5 5.N B N N M ,.s.a.9.e.&XU.U.B ).U.).Z.OX}. .2X<.vX|.",
"cXr. X|.H.J.A.C.l ; F.Y.).l ).B AXMXD .XKX!.7X,.v.*.fXaXC 3 9 7 { {.c M u N A h S 5.5.N f T j.j.O.*XR.T.v B V S.D.U.n >Xw.7.XXXX",
"a.s.cXt.J.A.C.C.; : - }.Z.n B }.UXoXB U.~.=Xq.mXmX] a 9 a d g h z { ( ' 5 g h 1.h 2.<.[ f ] k.) #.O.r u.(.k V S.D.S.].Q z.r.M p.",
"*.l.JXvXDX@XA.F.l Z.m wXSX[.PXZXSXU.oXT.iX%XmXmXu.+.K K 8.g j 2.x e M u f Y g 2.Y Y i ` i p -Xy.7XG c.y XX|.V S.V S.@ p f f g.2.",
"6.6.6.[ }.+XF.C.Z.; l U.SXPXLX[.}.Z.U.}.W.rX6X.X[._ _ ) BX2.g h f ' <.7 Y Y 6.I 8 # r 7.[ M  Xr.X.j.E s.M oXS H.S.B c / ` d 1.2.",
",.7.j.c.6XwXF.n.F.wXY.wX}.AXIXZXW.K.m m - W.qX6X{ = $.e.xXi.8.,.7 ` ` ` f f / ) K U H r / <XAX XU G E 9.<.5.H.(.CX{.nXO / 8.` xX",
" Xd.v.O.~ R.W.L.Q.Q.F.Z.U.ZXCX6X9XI.9XL.K.9XI.rXP.^ ^ 8XcXbXy.8 U H 7 ` <.N u f ` o.] K ] nXmXy.X.j.W j.7.4.oXB N | '. .! -Xy./ ",
"XX1.c.O.#.8XtXn.m.F.L.L.K.%XqXrX~.I.I.n.tX- P.I.%XeXeX#XnXxXc.6.j.w.<.f x x u x / w 8 8 # + y w.O.G G j.X.0.(.6X| _ } = !  .( #.",
"f.f.c.7X8XiX~./.tXI.N.W.rXrXUXrXSX%XtX9XqXwXP.W.SXZXZX>XmXx.jXa.jX8.y N x v @ @._ K O.K $ Y h r._ O.E E y.[ r.' / e.$Xz n }.T.+.",
"s.BX7X7XuXuX, ~.P.I.~.=XrXrXwXwXqXeXiXrXqXSXW.W.PXPXeX8XHXx.sXhXf.,X' N k v ! } & O.#.+ i ] g.5 q./ R j.1X8.y.z.0.[ >Xv B )._.T.",
"k.KX=X*XyX^.< ^.~.~.=X&XeXSXwX9XZXeX0X0XSXAXqX~.&X3X#X8XHX7XjXVX,Xc z 6 x 3.N [ k.$ J 8 I / w r.<.[ ] Y ,.,.x.x.s.1.t.].(.(.oX[.",
"*XuX0XpXyXyXyX^.!.=XKXKXZXZXCXCXKXKXiX#XAXAXqX, %XeX8X8X7X7XNXbXu.z @ z N e ' / [ 0.J + $ ) 7.7.y f <.r.2.2.s.jX1.h 5.|.B |.{ 5X",
"~./././.^.^.yX^.=X3X;X,XMXMXIXAXAX;X6XmXIXMXCX3XE.R.ZXmXnXk.x.Y [ & _ w w p t Q t Q / $ p w <.,.9 y.,X1.Y x.xXf.=.1.V |.5.N | nX",
"0X0X/.V././.^.~.R.&X;XcXMXvXAXMXAX Xu.LXIXMX;XeX3X#X4X X-X] s.7.J & $ r t + t e z z  .e + I d R R 0 y u d Y Y f.g.5.|.S t.| 0.HX",
"R.P.Q.M.Q.N.n.P.%X&X-Xu.vXZXZX2XMXIXAXZXnXZX .@ ZXPXZX5XKXe.J K W > W G 8 7 + v v ..@ ( * i T 1 X G r c [ r.,.1Xt.|.(.B 0.) k.b.",
"E.- Q.G.M.m.m.n.- R.KXnX5XnXmXmXBXBXAX3X3XeXqX3Xz ;X0.0.HX:Xt r > > o O i 0.' 6 k @ @ @   X.-.X X 8 $ & w w # u.(.(.(.5.' w.b.k.",
"U.L.G.Q.M.m.m.M.Y.U.8XnX1XnXmXLXBXvXoXY.OXW.%XKXT.$X9.j.9.JX' M H E i i 9 I ` p M M / o U q q . . q i p & & Q t #X{  Xt.[ d.x.v.",
"K.Y.Q.Q.M.m.M.Q.OXwX`.nXbXbXBXBXd.mX).OXL.L.qXqX#Xk.b.l.j.6.u <.6.6.d d y 7 y w y I U   G X 0 P 9 d d U K K _ t @ e ' XXt.bXg.cX",
"}.OXOXQ.G.G.Q.Y.K.3X( -XBXbXBXcX5X'.'.9XY.}.qXqX-XbXJX-.R P I 7.d U T T i * + w 0.7.U 8 i # 1 q i h f ] J K I i J p f 2.r.T 9 xX",
"}.U.Y.OXwXY.Y.K.^ @.u.w.JXBXmX2XZX} U.U.Y.).}.vXbXjXl.a.6.Y 0 7.k.J # . i $ u p ) I 0 0 I H G L 9 y y ] J # 9 d   i *.g P   . jX",
"[.[._.n n ^ '.@._ ) :Xw.bXJXLXLX&X&X@.^ }.}.CXMXVXhXa.l.jX6.0 H H i I r 7 o + + i i r H 8 X X G I f f ` ] I *.*.q *.=.=.  0 . L ",
"6 q.;X`. .@.#.r p w.c.bXc.bXLXHX#X&X ._.4XAXvXBXsXa.a.=.l.T R 8 E K K r i i i I r 7 # 0 G G R X.J / w 7 J T =.s L 2 2 =.L E L q ",
"c ' +.>Xk.+.w.7.U BXBXJXkXkXbXc.>X} @.q.-XBX1.a.i.=.=.=.-.. 8 U o + r J i r 8 U 7.J i H R R R P o.0.I i U *.;.&.L 2 :.hX-.. G 8 ",
"q.5X-Xo.r o.y.] d bXBXbXkXkXkXkXbX5XmX2XxXxXjX=.j 2.=.*.L q # H ) r i ) U ] H ] I 9 P P R R T T J J 7 9 P a &.:.&.&.&.>.q E O.U ",
"Q >XKXt K p q.-XXXNXjXVXJX&.l.-.NX2.d.mXv.v.l.a g g Y Y a 8 8 ] ] i 8 6.q d I Y T L L *.P T *.X.k.w.i I # R s ;.:.2 &.2 0 U & ~ ",
"Q t } $XQ ! e M 1.h f.jX=.lXGXhXsXg j BXR R . q ] 7 y I q ] I 7 I i q .   T I Y a L P d Y I T 7.k.) X.J i 6.s ;.=.s hX-.q + t ! ",
"~ & & ! ! z z <.y g =.hX:.lXhX:.;.;.a.a P H ] o 8 X.w.0.p / i i o i ] q 9 T q a *.a 6.8.` y <.] 8X:Xw.J J i g =.=.a.jXR i w z z ",
"& & #.z @.@ ( 0.y =.g 3 :.hXhXlXi.j 3 a Y w & & K o.X.J w / 8 I P i i   0 P a a a 9 9 d ,.i [ nX8X>Xe.Q Q t f d xXkX*.9 J t z ! ",
"U % Q e.@.z c u 7 3 lX2 3 &.;.;.s *.q *.f ;Xv @ ) $ J i i p I q q 7 f y a a -.a x.Y ` 8.i ` ;XnX>Xe.ZX .= } * [ _ H 5 ,.w & z ..",
"8 K ) #.z * & o.1 9.h.&.hX:.j VXa Y d I ( | v z t $ U H J # 8 8 # I ] I 0 L bXv.6.x.r.r.<.u.{.6XZX_. .n K.eXb c * r i y.& z z ..",
"G E r $ e.~ K H G L F lXhXs g 5 I ] / ( b v v { _ p q o q X X H # r U 9.v.c.bX9.bXbXBXnXt.`.[._. .{.n n - K.U.'.#.7Xk.w.& Q @ { ",
"L T J r Q & K E L F 3 F L =.2.y P ] } { b b v v ( w I R L L G $ i 7 0 E v.v.s.v.kXc.1X-X_.{ `.3X6X}.B m - K.K.^ $X#.k.:X& & @ b "
};
