/* XPM */
static char *_d6375461e9e4bd2a3236ea7e1ecb40fqOo5fjCKDtBtZ23v[] = {
/* columns rows colors chars-per-pixel */
"64 64 241 2 ",
"   c #011A33",
".  c #3B2D2C",
"X  c #3F3232",
"o  c #3F2F30",
"O  c #092139",
"+  c #6E1C29",
"@  c #432E2E",
"#  c #592629",
"$  c #47312E",
"%  c #433334",
"&  c #4B3334",
"*  c #443639",
"=  c #4A3639",
"-  c #4D3A3C",
";  c #463939",
":  c #543434",
">  c #53373A",
",  c #543A3D",
"<  c #5B3B3D",
"1  c #5C3436",
"2  c #502C31",
"3  c #623C3D",
"4  c #6B3B3E",
"5  c #673439",
"6  c #75333A",
"7  c #743A3E",
"8  c #7A343A",
"9  c #6D2831",
"0  c #581411",
"q  c #63403E",
"w  c #2B3445",
"e  c #4B3D42",
"r  c #553D41",
"t  c #5B3E42",
"y  c #633E42",
"u  c #6B3D42",
"i  c #6D3B46",
"p  c #743C43",
"a  c #7B3D45",
"s  c #783947",
"d  c #3C495A",
"f  c #4C4145",
"g  c #554245",
"h  c #5C4245",
"j  c #5D454A",
"k  c #5E494D",
"l  c #564449",
"z  c #594A51",
"x  c #54525B",
"c  c #634245",
"v  c #6B4245",
"b  c #63454A",
"n  c #6B454A",
"m  c #65494E",
"M  c #6B494D",
"N  c #724345",
"B  c #7A4246",
"V  c #73464B",
"C  c #7C444B",
"Z  c #734A4D",
"A  c #7B4A4D",
"S  c #644B52",
"D  c #6C4D53",
"F  c #694C56",
"G  c #734D53",
"H  c #7B4C53",
"J  c #784A54",
"K  c #6D5155",
"L  c #6C535A",
"P  c #655257",
"I  c #745255",
"U  c #7C5255",
"Y  c #74545A",
"T  c #7B545A",
"R  c #75595E",
"E  c #7C5A5D",
"W  c #7F5A57",
"Q  c #77564F",
"!  c #475566",
"~  c #5C5A63",
"^  c #765A62",
"/  c #7B5C63",
"(  c #795D67",
")  c #6B5963",
"_  c #5A697A",
"`  c #566976",
"'  c #68656D",
"]  c #7C6166",
"[  c #7C626B",
"{  c #746569",
"}  c #676A76",
"|  c #786D77",
" . c #871D30",
".. c #852C3B",
"X. c #86323E",
"o. c #833C44",
"O. c #853C4A",
"+. c #893A47",
"@. c #933B4C",
"#. c #99374A",
"$. c #983B53",
"%. c #8A3246",
"&. c #B92A53",
"*. c #A53C59",
"=. c #AC3D5C",
"-. c #A73755",
";. c #B33C5C",
":. c #B63959",
">. c #A6344F",
",. c #C8345D",
"<. c #C53C60",
"1. c #83444C",
"2. c #8B434D",
"3. c #834A4E",
"4. c #86474A",
"5. c #94434E",
"6. c #834551",
"7. c #8C4352",
"8. c #834C53",
"9. c #8B4C55",
"0. c #844E59",
"q. c #8C4C5A",
"w. c #8C4458",
"e. c #944253",
"r. c #9B4255",
"t. c #924D55",
"y. c #9B465A",
"u. c #944C5C",
"i. c #9A4B5C",
"p. c #944758",
"a. c #835355",
"s. c #83555B",
"d. c #8B545B",
"f. c #835A5D",
"g. c #8B5A5D",
"h. c #8B5556",
"j. c #95575C",
"k. c #A5445B",
"l. c #AB445D",
"z. c #A44A5C",
"x. c #A84458",
"c. c #B6435E",
"v. c #964D61",
"b. c #845D63",
"n. c #8B5D62",
"m. c #8B5663",
"M. c #9B5363",
"N. c #925D63",
"B. c #985865",
"V. c #AC4561",
"C. c #A44D63",
"Z. c #AC4B64",
"A. c #A84864",
"S. c #B34562",
"D. c #BC4563",
"F. c #B24B65",
"G. c #BA4B65",
"H. c #B54D69",
"J. c #A45264",
"K. c #AB536B",
"L. c #A6586A",
"P. c #B3526A",
"I. c #B7546C",
"U. c #AD5C71",
"Y. c #A75E72",
"T. c #B75C73",
"R. c #846264",
"E. c #8B6265",
"W. c #83636A",
"Q. c #8B636A",
"!. c #8C6A6C",
"~. c #85696D",
"^. c #936265",
"/. c #936569",
"(. c #946A6C",
"). c #9A6A6D",
"_. c #99666B",
"`. c #866B73",
"'. c #966A71",
"]. c #997478",
"[. c #847275",
"{. c #A3636D",
"}. c #A96878",
"|. c #B66A7A",
" X c #A27275",
".X c #A4757B",
"XX c #A9787B",
"oX c #B3737F",
"OX c #89605E",
"+X c #C74867",
"@X c #C8546D",
"#X c #C55B73",
"$X c #C6657A",
"%X c #D16179",
"&X c #677888",
"*X c #747884",
"=X c #5C6F80",
"-X c #997983",
";X c #917D89",
":X c #A77A86",
">X c #B67886",
",X c #D27A89",
"<X c #CC7285",
"1X c #798897",
"2X c #748A97",
"3X c #7C94A7",
"4X c #7B8EA2",
"5X c #92878A",
"6X c #9B8C9E",
"7X c #978797",
"8X c #888990",
"9X c #A9868B",
"0X c #B5878A",
"qX c #AB8A95",
"wX c #B58994",
"eX c #AA919D",
"rX c #BA949B",
"tX c #9D8EA1",
"yX c #849BAD",
"uX c #8C9BAC",
"iX c #8795A7",
"pX c #9998A9",
"aX c #8A9DB1",
"sX c #9B9CB0",
"dX c #A596A5",
"fX c #B79DA7",
"gX c #A08EA4",
"hX c #8CA3B4",
"jX c #93A3B4",
"kX c #96A8B9",
"lX c #B4A7B2",
"zX c #C9959D",
"xX c #CC8994",
"cX c #D0B3B6",
"vX c #CB98A1",
"bX c #A8B6C1",
"nX c #B9C0C6",
"mX c #DAC5CA",
"MX c #CCCED0",
"NX c #E6D1D6",
"BX c #F2F1F2",
/* pixels */
";Xs.y.y.e.n.b.s c 4 / ~.@.p.@.m.!.r.7.O.q.E.2.7.1.H { B @.e.2.b.9.r.e.p L Z p p y P M.D.D.>X|.>.2.2.O.a a C 1.O.8.a.a C 2.u.q.].",
"U B B C C 7 5 c u h j M D v , - 1 v u u v 5 4 3 n M 2 4 a p N 6 C H N 4 4 G V 3 c u c z.=.U.P.C J H y y u N u N 4 5 3 v y u p ^ ",
"M M c G G G I G Z v b D y h t c n c V V V V N v v V n y t < j m m M c , h c b < : 3 : /.}.-.y.A v Y L g - g j h , r < c > , L K ",
"M t y b M n c b n M c t t r = > < y n c < < t c t 3 c q y - , t , r - , g h b < < < # ].>X*.y.V c D I c c b M c < < , = % m ( ( ",
"v t < n b y c < b b t l h h h h c Z G Z N v v t k g v n - - r h j g * r M b t % - 3 : $.G.A.p.a v j h m D M c t < c D K c K K ^ ",
"n t > 3 3 < < > ; e t v v N V N C V v y h < t g e e h < v N c t < = % - < , ; ; * y 3 7.P.-Xm.8 n h m h r t > > t b M D m m b F ",
"n t - t < t , , b g t , < t c < , e * - g h c r r c V 3.3.Z t , - % * % & & = - % 3 3 %.l.}.u.6 3 , t m , M r , b M m t k F M M ",
"n t = > , c h r c b t c v M c j k b n n 3 > , r , N A V a.Z , c , @ : & . @ 1 % . 1 # / }.-.$.< t , t m r h , > D D b b F ^ D D ",
"n c , j D T D f = = , < 3 c n I F n c t c c h b , * > U U g ; , * % > & * > > X . < 0 | :X=.i.J b h b h , - - , c S m F [ ^ I D ",
"c < n U I b l t b t b G H I D K U H 8.H 8.h.a.Z c v N V c r - X % X = > & : . @ % : 2 p *.=.y.1.y , c j r * = - h S F D ^ R Y I ",
"< < r r - e y n c b M D M b l D V V V Z V Z M h h M N n n b t , t X @ % < & o < $ : & 1 C.9Xu.9 c g t r b = . , c h b S D Y Y I ",
"< & % * g n n b j D Y M b D I Z U W V v < e l t r b c V G M b S m X . , < @ < c & r h v J.:Xi.6 t D D r t % % r h m m Y K S R G ",
"< j - % b n F I T T U Z b I I U M Z n V U a.U U c M Z n c g j j h = = : r t y y & , v N $.=.$.7 c S M m P g j h h b G I ^ Y D b ",
"3 n v - t D G Z Z n V 3 c j M Z ; < n V Z v v v 3 V A V v u 3 < h c > > c t < < = t 1 $ 7 V.y.c D U M n I Y I M D D M M D D D m ",
"V 7 9 1 n f.4.o.+.9./.9.+.+.6.g.v # 6 p V B 6 9 6 A A o.8 o.A A p 6 a u 3 4 1 5 v v 5 @ s :.c.e.p C A G V a C G I b p p C U G C ",
"v p ] / C 8.C E U 1.8.p A 8.1.h.C f.^.O.C s d.W.C 1.C V K u N N v K B 4 3 7 6 3 N A a O.V.>XG.c.L.J.C.M.y.M.M.M.B.u.u.M.u.m.q.9.",
"*.x.qX>X=.=.l.9X.Xk.-.$.-X:Xk.*.P.xXzXP.Z.D.<XrXP.I.D.}.qXZ.Z.F.}.fXU.k.e.p.].v.k.F.S.;.G.>XG.:.rX>X;.I.;.wXwX;.P.;.>XrXS.Z.=.}.",
">XP.l.V.|.wXF.F.S.T.vXT.H.I.T.zX$X<XvX@X;..X{.r.y.J.z.z.J.r.z.z.z.J.r.z.z.z.L.z.z.J.x.x.-.#.e.@.j.u.@.e.@.d.d.@.i.r.M.{.x.J.z.C.",
"{ J p 5 D { V i a s.5Xm.O.6.0.5XB.c.#X>.7 P D I a.d.g.8.4.C M U H B V G G J a B H U C V V G D M u G R E T V V Z A 3.o.X.6.!.j.#.",
"W.y R D v i D G V H J I G D S V D w.<.x.c V T 8.4.2.t.u.t.5.S G J 8.t.J D 0.8.D V C C 1.8.9.q.8.8.8.8.q.t.9.d.B.j.8.8.8.1.J A H ",
"I v f.!.G f.g.j.j.h.h.g.U a.a.G D J +Xl.c H S U g.h.a.8.8.^././ T s.a.U I Y I D m K I Y Y Y I U T G M J a.m.g.d.g.s.H H A V 8.m.",
"c D U E.).s.M h.g.a.M b M 3.V A V a D.$.v V S D D M m D F E. XE g.N.A A h.8.h.g.n.N./.n.U V a.a.A H Z M G U h.a.H G I G c M G T ",
"m M I U Q.[ L m D S j k b A b A p a.zX9.v A M j F R / b.Z a.g.M V n n Z Z V V a.N.).). X).y n V M G f.b.Y Y E Z W H a.A n A V N ",
"m b b D F Y L G M M D L L Y S C 7 N >X7.p J M m G H a.g.a.V c N v v n v v n c n y Z Y b.E.U G M m K b.(./.].{.j.B.^.a.v 8.A < A ",
"Y I m D G T F D G D M M K L S C N 5 >.+.A 3.V h b 4 y /.XXV v V v u u v V v 3 3 v c 3 c n v c D I D H g.h.g.a.B h.W 3 y V 3 n U ",
"OXI M U G D K D T S c y t c S Z 4 4 k.2.f.9.V , n E.3.g.E.t N n.a.h.(.(.(.(.n.f.T U I I I y c n M M Y E (.E.f.M c c < c n v Z b ",
"W b G K L K D G S S S k j r b G N i #.+.o.2.u 2 g..XV j.U U T b.f.!.!.!.!.!.~.'.R.Y E E R Y D I / E E R.f.E Y I I I R Z n n 3 3 ",
"D m I D G K S z S S b r r k S T V U wX8.8 9.c 3 3.3 N H 3 U T v Z < : y N n I R G t b M / b.] / / T Y I D b n n n M M n I M t c ",
"E.T G D S S K I D m g S S S K Y Z j.xX4.8 4.V c n v n.V : c v f.V U E.E.n.n.^.f.V T T T / Y I G c < y < b n n n n I Z V Z y b n ",
"E.W S F I D D M j S k k j j D I I k.D.7.4.2.1.h 4 A ^.y < H h.(.(.].].].).].].].!.~.!.`.`.~.R.b.E I n n c m b h t t h b M D D < ",
"m D s.U S S S L R P S S S k M U K z.G.8.^.e.H t 4 h.a.& c Z E W.R.W.E M I I U b.R L L K D K K D D m U s.I M K K m b t k M b b , ",
"b G ^.K D I F S K L L S k j G 8.D y.-.4 4.5.C < H j.V b h k m h b I M Z U H b.E.U m m : > t b L S > < n c I I M h j g , h h , r ",
"r E E.K G D m k M D m j D j E f.u L.9Xv o.9.n y g.V Q.I : M c M m j b t n E E E R.R K R / b.T I M c h u Z s.a.n b b h b b c g b ",
"h Z Z U D m k m m j j m m l Q g.i {.0XN O.9.M , v ^.!.c , I T G Z M n b c n U f.f.E.T U E T I D Y Y D Z U H s.h.b c I b j h L D ",
"n V Z Z D b k k j k G I D n m 8.I u.=.5 p o.V m V A v V V m s.M c n y < t h h c 3 V n c M D n D D R / Q.R.R U A v j R R D m m j ",
"b N C V 4.8.C C 6.1.h.h.4.B a 8.Z q.8.< 4 7 3 c N B p N N 4 u v V C p V H H C C C 8.a 4.3.C A p N Z a.B.j.2.+.2.B.4.v m c b b c ",
"8.N 6 X.2.h.3.%.%.t.m.9.O.6.d.9.S C ..: 3 < g 5 4 N C o...X.t.W 7 + 8 a.n.+. .X.3.U o. ...a v < # + : < 5 + + 1.^.t.#.X.C 3.C o.",
"#.#.:X:X#.$.>.wXeX$.e.#..XeXB.q.6.B.0X< @ $ - P p a O.C ^ C 2.2.6.5Xn.e.C.i.5XW.s G 6.7X:X$.q.q.[.[.6.q.a { ' u v a ].qXC.q.6.d.",
"|.+X,X,X@X<X+X,XxX+XU.Z.}.:XC.B.Z.U.qXC.y.u.B.>XJ.y.z.P.xXI.D.D.+XzX$XD.G.c.zX$X+XI.A.9X}.V.T.H.oX>XH.U.F.oX:XV.L.A.oX0XH.U.v.}.",
"mX%X+X+X<XNX<X&.c.J.;X_.u.u.M.].'.p.u.M.:X.XC.K.K. X_.J.Z.l.|.}.r.%.+.t.j.2.>.:.|.9XC.=.P._.[.B.q.u.{.qXB.e.w.q.Q.v.r.*.J.eX-Xv.",
"j.i.M.d.d.E.0.H T T H H T T G G D F G G T T E s.J H H D G 6.A 8.C M G T s.J D G G 0.l.G.T.^ ) R b.m.d.B.9.6.8.1.6.6.7.9.8.s.d.s.",
"D P K K G G T I T / s.T T T I I G D I E E b./ T s.G H G Z 8.A V G D G a.H G T T 8.+./.U.V.R / s.s.j.d.h.s.a.H V V H m.6.H 8.b.b.",
"m D I D F L Y Y Y R R Y L S S L L Y R Y I S / / f.b.b.f.E T Y D G D j j m S D G k u ].}.C.T I I I U I K ] [ [ ^ ^ L S Y K L ] Y ",
"L F L F k k F G Y R T R P ) L L L L L K S (. X_./ )._._./.T G G I h.s.b.b.Y G M M b 8.C.C.C V D U W W D Y [ [.[.[ / ^ ] ( D M D ",
"W.h F S m j k S Y Y Y D ^ ^ L L D S S S T )./.g.f.b H g.n.T K F Z U _. Xf.s.V t M v a Y.dXH N D R R R Y ^ R / ~.[ / ~.[ ] ^ D D ",
"Y j S P P P L S S P S Y Q.n.S S K L D k b._.b.M G m h D M S G Z G n I f.g.U b h M v B L.:XH n L Y R R R R ^ R / [ [ / W.^ ^ Y M ",
"g.g./.Q.b./ W.'.]..X.X(.E.(.E.S S S m b I E f.I S D V Z G b m b c n M h g c m S b V c y.S.0.D Y R ^ ^ / / ^ R ^ ^ W.] / / D m D ",
"h.g.^._.N.n. X.XXXXX).n.n.^.n.D k M G U m c c b n n A H a.Z V n c G I I m m D M n a c u.Z.J D Y I R / / ] [ / / ( / / / [ L c D ",
"V N 8.g.N..X0X:X X)._.^._.f.G j D G f.E.K l M U H G Z b Z M h c G n.T H M b M n n V b u.V.Z b I Y Y R ^ / ^ / ] R ^ / / I ^ D M ",
"b.N.).).g.).0XXXXXXX_.f./.Q.Y S j m I Y I G M U U Z M M G G b c G h.W U s.M b M n V b _.eXk n D Y G Y G Y R Y [ [ ( R I | [ M D ",
"R E.].(.).(._._..X.XE.I F S j k j j M I U g.s.G m D D W T M M Z n c H G G M c M n C n B.].> u Z K M M G D Y L / ~.| / I [ ^ b Y ",
"I m T Q.!.!.!.R.b.R.b.R.n.G g b m j D H G M D b D G D M D D m l g = n G D G n Z G B n s %.j p c D M c g m m M Y / / [ R I ^ D D ",
"G k T ^./.(._.E.f.f.E.E.n.G m S m S j m D U H G H U s.a.H U T I m l D I I D c b b 1.V G v.M C c D c k Y K Y L F Y R Y T ^ ] Y b ",
"b g f./.n.^.E.b.T U G c G D m b m D b m G Z Z M Z H G G U U Z G s.T H T G j j b M C n @.$.b v I E k m f.f./ ] / L D R ^ K D b b ",
"V y C 1.C U C 1.1.2.h.9.4.8.C U J C C C G H C C C n.j.2.5.2.9.V C B c d.8.1.4.1.V b p l.}.g b G H V 8.s.Z G V 8.E.H V C V M j t ",
"a.2.2.o.o.A B a o.B G V 1.8.H f.U a p u m D J 1.B E d.+.8 u b n v p c M Z C 6 a M m e.c.Y.j k b t y Z U A A D S Y H C 2.7.q.6.G ",
"5 c b c , 9 a s.m.1.6 p s.b.w.@.7.E ] J O.O./ [.0.s o.1.~.0.a %.}.cX|.;.;.Z.cX|.&.;.S.|.G.:.$.O.R T i # n G D m 5 V G G C X.o.m.",
":Xv.w.w.B.:XK.U.U.P.>XP.K.U.V.|.T.T.|.H.|.T.U.oXZ.}.K.y.oXI.T.T.#XzX#X$X$X+XxX#X#X$XD.>X#X%XxX+X#X@XI.:XL.C.v.B.-XB.y.u.M.:X{.l.",
"fXF.F.S.|.lXT.c.l.K.lX|.=.V.Z.fX>X:.H.P.fX>X=.K.k.qX-X*.V.*.eXeX=.-.=.wXdX*.>.-.:XdXS.c.:.xXcX@X<.,.<XcX#XS.k.U.dXU.=.l.Z.qX}.;.",
"F.F.S.V.F.F.S.V.V.l.Z.l.S.S.S.P.F.F.F.S.F.l.x.z.*.x.V.S.c.:.F.U.S.P.S.G.F.;.F.S.F.F.;.;.&.<.,.&.,.,.,.@X+XV.Z.V.V.C.Z.K.Z.Z.K.K.",
"sXsXsXsXdXdXsXpXtXtXtXtXtXtXtXgXgX7X7XgX6X7X6XtXgXtX6X6X6XtX6X;XtXtXtXtXtX6X6XtX6X7X6XfXNXNXmXmXmXNXNXNXlX6XpXpXpXpXsXuXpXiXiXiX",
"kXhXjXkXkXkXkXhXhXhXhXhXhXhXhXyX&X_ yXaXyXhXhXyXhXyX3XhXjXyX2X2X4X_ 4XkXhXhXjXkX2X2XkXkXnXMXBXBXBXNXMXbXuXhXhXhXjXkXjXjXuX1X4XuX",
"kXjXjXkXkXkXkXkXjXjXjXjXjXjXjXsX*X} *Xz } uX8X~ ' f 1XjXuXx x 1X*X' sXuX' iXjXkX} *X1XuX_ pXNXMX5X' x } ~ *X*X} } uXjXuXuXjXiXiX",
"aXaXaXyXhXhXaXyX3XyXyXyXyXyXyXyX_ &X_ _ _ 4X&X! =X` &X4X` ! ` ! d ! iX&Xw &XyX&X  O   d w } 1X~ w d &X&Xd ! ! _ ! &X1X1XyXyXiX4X"
};
