/* XPM */
static char *_1835e90ce454605de601dde081290b4Tj8sIefK1BxugfHM[] = {
/* columns rows colors chars-per-pixel */
"64 64 210 2 ",
"   c #283A1C",
".  c #313D1F",
"X  c #2D3C21",
"o  c #323C25",
"O  c #353E2A",
"+  c #3B3D2C",
"@  c #2F401F",
"#  c #2F4A27",
"$  c #2E4226",
"%  c #344424",
"&  c #3B4624",
"*  c #354A25",
"=  c #3B4D24",
"-  c #35432A",
";  c #3B452C",
":  c #354B2B",
">  c #3C4C2C",
",  c #355127",
"<  c #37542C",
"1  c #3C532D",
"2  c #3D5B2D",
"3  c #3C4532",
"4  c #3D4B33",
"5  c #3D5233",
"6  c #3E5D31",
"7  c #3B5339",
"8  c #3D6233",
"9  c #424D2D",
"0  c #484E28",
"q  c #425426",
"w  c #43542D",
"e  c #48562C",
"r  c #445D2D",
"t  c #4B5B2C",
"y  c #4A5525",
"u  c #525C28",
"i  c #5B5F2C",
"p  c #414633",
"a  c #424C33",
"s  c #494E33",
"d  c #444539",
"f  c #454C3B",
"g  c #4A4C3C",
"h  c #514E3E",
"j  c #435333",
"k  c #4A5435",
"l  c #445B33",
"z  c #4B5C34",
"x  c #45543B",
"c  c #4B543B",
"v  c #455D3A",
"b  c #4D5C3B",
"n  c #505434",
"m  c #525C34",
"M  c #52553D",
"N  c #535D3C",
"B  c #4B632D",
"V  c #4A682E",
"C  c #46652B",
"Z  c #506128",
"A  c #57692E",
"S  c #446334",
"D  c #4B6334",
"F  c #426C32",
"G  c #4C6A34",
"H  c #45643A",
"J  c #4C643B",
"K  c #4B6A39",
"L  c #536335",
"P  c #536D37",
"I  c #5B6E35",
"U  c #53633C",
"Y  c #5B643D",
"T  c #536B3C",
"R  c #596A3C",
"E  c #5B6333",
"W  c #4F733D",
"Q  c #4A7335",
"!  c #527437",
"~  c #55713B",
"^  c #5D713A",
"/  c #666E3E",
"(  c #4C4E42",
")  c #514D43",
"_  c #584E48",
"`  c #475242",
"'  c #4D5443",
"]  c #4D5B43",
"[  c #4F564A",
"{  c #4D5A49",
"}  c #525544",
"|  c #5A5245",
" . c #535B44",
".. c #5A5D45",
"X. c #545549",
"o. c #5B554B",
"O. c #555B4A",
"+. c #5B5C4B",
"@. c #5D5651",
"#. c #5D5D51",
"$. c #62554A",
"%. c #625C4E",
"&. c #605650",
"*. c #645D52",
"=. c #685E50",
"-. c #4C6343",
";. c #4C6942",
":. c #546343",
">. c #5A6444",
",. c #546A43",
"<. c #5A6A44",
"1. c #56644B",
"2. c #5C644D",
"3. c #53694A",
"4. c #5C6C4B",
"5. c #577146",
"6. c #5C7344",
"7. c #5C724B",
"8. c #5D7C49",
"9. c #5C7942",
"0. c #5D6453",
"q. c #5D6B53",
"w. c #5D6759",
"e. c #5E6B5B",
"r. c #5E7253",
"t. c #626D45",
"y. c #62654C",
"u. c #626B4C",
"i. c #696C4C",
"p. c #637343",
"a. c #63724C",
"s. c #6B744A",
"d. c #627A4B",
"f. c #6D7C4D",
"g. c #6E7A43",
"h. c #717E46",
"j. c #727A4E",
"k. c #636553",
"l. c #696555",
"z. c #646B54",
"x. c #6B6B55",
"c. c #646558",
"v. c #6B6659",
"b. c #646C5B",
"n. c #6B6C5B",
"m. c #70675D",
"M. c #716D5C",
"N. c #647353",
"B. c #6B7354",
"V. c #647953",
"C. c #6C7C54",
"Z. c #65735B",
"A. c #6C735C",
"S. c #64795A",
"D. c #6D7B5C",
"F. c #717554",
"G. c #73735D",
"H. c #727C5D",
"J. c #656F61",
"K. c #6C6D61",
"L. c #736D61",
"P. c #786E66",
"I. c #6C7462",
"U. c #6E7B64",
"Y. c #6C7768",
"T. c #6F796A",
"R. c #737563",
"E. c #797663",
"W. c #757965",
"Q. c #757A64",
"!. c #797965",
"~. c #797A64",
"^. c #757668",
"/. c #757669",
"(. c #79766A",
"). c #757A69",
"_. c #777E6E",
"`. c #757B6A",
"'. c #797B69",
"]. c #797D69",
"[. c #7D7C69",
"{. c #7A7D6E",
"}. c #7D7D6D",
"|. c #7A7D6B",
" X c #757E71",
".X c #7B7E72",
"XX c #807E60",
"oX c #807F6D",
"OX c #66814D",
"+X c #678150",
"@X c #6A8153",
"#X c #758453",
"$X c #7F8857",
"%X c #72815B",
"&X c #78805C",
"*X c #78885C",
"=X c #728163",
"-X c #7B8364",
";X c #788960",
":X c #748168",
">X c #7C806C",
",X c #7C816C",
"<X c #778070",
"1X c #7D8172",
"2X c #7C8172",
"3X c #7D847A",
"4X c #80816A",
"5X c #848264",
"6X c #818373",
"7X c #828779",
/* pixels */
"n.} b.{._.>X>X>X].Q.7.v } n.R.R.W.R.`./.(.L.> v :.:.:.H z.,.D T J +.W.1X2X<X].1X}.'.Q.I.0.~.E.{.{.].].}.W.z.f o ; c *.k.k.k.k.n.",
"L.} x.`._.R.>X_.R.a.U ,.' v.n.G.R.R./.R.^.N c > U :.:.l 4.,.,.>.H +.W.~.6X6X1X}.].[.B.,.O.G.~.'.'.~.'.].'.N.d + k k +.l. .k.l.n.",
"v.) z.W.'._.`.R.7.S.>.>.f R.n.n.m.R.R.R.x.c c j j k z N :.D l D J } W.}.6X6X[.1X}.B.d.,.+.G.R.E.R.E.~.'.W.A.f & k k  .+...c.k.k.",
"l.) 0.A.A.n.4.} a c >.c ' G.L.n.c.n.n.m.v.k.; w N l k  .z >.z l J > ^.1X'.R.R.x.z.<.K b O.R.M.G.G.G.Q.R.R.G.p a 9 k M c k k.k.k.",
"W ) +.+.2.g A.} g c.g z.( X.X.a z J z c f ; 3  .% : > a 5 > > 1 ' - 5  .O.x j x * > > c  .R.n.R.G.v.R.R.R.R.R U c c j a f k +.T ",
"K 2.} k.f <.N ' ' g c b f } c } <.N +.+.c.c.*.o.*.*.X.+.%.%.*.*.+.2.0.k.k.g X.+. .c > } * % ; a p p o o % j D b g M X 2.2.c.y.1.",
"R.~.^.R.z.' N N 2.c.n.l.v.c.N - b.W.E.R.R.(.(.v.P.E._ l.L.L.M.b.n.G.A.A.n.} A.~.~.~.4.<.D <.D c c +.b 2.z.R D 1 } U p x.R.z.A.H.",
"~.].{.~.R.O.z.c.l.M.x.n.x.v.l.p K.(.W.E.(.R.(.(.(.P.o.*.v.n.n.R.R.^.R.I.A.> R.~.~.[.R.[.~.a.T 1  .M.M.M.R.R.<.T j  .( 4.x.u.<.A.",
"'.{.`.W.R.c k...n.M.L.n.n.R.R.; b.'.Q.'.}.{..X(.{..Xo.=.L.m.R.W.`.`.Q.I.R.: 4.W.{.G.W.[.~.B.U r } M.n.n.R.z.,.>.w j p 4.:.4.A.'.",
"_.`.W.].k. .v.n.b >.B.G.R.R.>.g n.{.(._.{.}..X.X{..Xo.*.L.R./.R.I.I.W.Q.x.> 3.Q.'.5.~.{.].}.u.j c R.R.R.R.<.R.>.A.k g z.4.W.].].",
"W.R.^.{.R.O.R. .P U L x.R.B.B.> O.W.W.].{.(..X(..X.X@.*.m.L.R.D.B.`.Q.W.J ; I._.`.8.].'.].].B.c +.R.R.R.G.R.'.A.M.R.X.,.4.R.Q.W.",
"W.].'.'.R.} n.J r C b <.N.>.<.; b.W.W./.{.{.(.(.(..X@.y.v.G.R.6.^.Q.Q.A.J a I.`.=X7.Q.].H.~.G. .#.n.n.R.R.R.R.G.R.v.' l Q.Q.W.>X",
"A.].R./.R.g A.b w A D z <.>.U & z.G.U.~.~.'.'.E.E.(.&.y.t.N.B.z.C.A.A.4.4.' ^.Q.d.d.W.Q.~.Q.G.z.+.M.n.R.R.M.M.G.R.K.3 :.W.A.,.>X",
"N.R.].W.R.g R.z.z w z z >.U t & z.n.n.Q.R.R.~.R.(.E.o.*.v.v.x.B.f.B.A.b l ' Q.Z.+X9.H.%XE.G.x. .+.n.l.M.M.l.M.n.1. .% K 6.A.N.A.",
":.:.4.A.x.> b 4.:.z b L N e z ; b.A.b.A.G.G.M.L.A.R.| *.x.x.x.z.z.s.U T T p.a.@XV.! @XC.H.A.A.k.g  .v.l.v.l.v.v.<.w   J I >.>.<.",
"> : > ' x 3 ' a ( x f ; p p d p 3 ' c a j K } g ( ( ( g ) g p % 9 g.N >.U <.<.,.,.x  .:.:.2.O.2.X.J <.l.+.+.+.} m > D D D R > % ",
"j j * j 1 5 b ] 0.1.. a ' ' ' {  .O.O.' K l S z J U x.u.x.Y u.x h.>.G.G.b.A.G.O.2.b c } 2.x.k.b.0.} 1.z.0.#.o.k.*.U l U J > = > ",
"a 4 > 1 x b  .z.b.b.; 3 1.0.0.0.0.0.0.k.> o B D F.E.~.[.~.XXB.f x.R.Q.].Q.Q.`.].Q.~.:.7.*XW.~.(..X].~.].0.c.n.n.A.l.k.l.v.+.z o ",
"] j 1 c ] :.2.c.b.b.f f 0.0.1.0.0.c.b.z.a O L u.5X4X4X,XH.~.G.' x.G.~.~.Q.].`._.].'.( 3.%XW.~.{.{.{.{.~.O.#.R.M.M.n.m.n.l.c.<.; ",
"c j v l ] k.b.n.z.b.p ' 0.O.0.z.b.b.b.c > ; z.Q.1X6X,X4X,X[.[.X.B.4X~.~.{.].`.`..X_.:.8.8.-X^.{.>X2X2X.X} +.G.M.L.M.n.x.M.n.R.} ",
"O.c b b 2.z.z.z.n.A.d } 0.0.b.c.b.J.I.z.j ; 6X1X[.1X[.4XoX,X[.+.L [.[.>X}.>X1X.X`..X} v.D.OX.X}.{._. X_.+. .R.R.G.R.R.M.R.R.E.| ",
"c +.v b k.A.n.A.n.A.g ' k.c.b.b.b.A.A.A.x - A..X[.[.[.[.~.~.E.c Y }.,X>X>X>X1X.X.X_.O.R.D.d.;X.X}.<X.X2X} k l.R.R.R.M.R.E.R.E.} ",
" .2.j v 2.1.z.:.y.I.g  .k.c.k.b.n.n.G.4.] $ <.}.'.'.].].[.~.G.p Y ,X4X[.,X,X[.[.}.W.O.+.~.z.a.{.`.{.}..Xf a y.R.E.R.W.R.R.R.E.j ",
":.2. .b :.D U U y.R.a } k.2.k.z.n.x.A.J ] 3 Q.~.~.~.~.[.[.G. .P i.[.[.-X4X4X[.4X[.~.} R.G.~.4.H.~.~.G.z.; a N R.R.R.R.E.R.R.A.3 ",
"b j z.....>.U N y.z.- } 2.z.x.y.y.2.b l j ; 4.M.G.Q.R.R.M.n.> + U p.G.}.G.~.~.4XG.A.' n.n.M.i.j.R.R.>.l % >  .l.l.G.R.G.M.n.x.3 ",
"x k.:.n.z.:.:.U :. .- O.7.J 5 R ^ L ] c x - v <.A.R.n.M.n.:.a L 9 k y.>.Y i.B.^ >.z.' y.x.k.s.t.m >.z e % % v c.l.m.M.n.v.v.k.g ",
"g N U c g a > a c X.} '  .J 1 r R % X & - ; p p ; d 2.f - % f } c +. .2.X.d d z z 3 d d d g k Y k ' ' k ] >.' j j ' ( ( ' f p } ",
"A.>.A.W.v.5 4.].~.~.'.{.W.W.C.] L = > > w > = w j % > ,.R z.x.R.].R.].W.+.k m k z N N c. .+. .+.s.Q.D.G.2Xa.6.~ K K > 7.4.4.4.].",
"Q.Q.W.Q.2.} B.].Q.{.{._.{.].(.' % ; c s c k c c  .1 - d.C.{.{.{.~.W.~.G. .s i 0 M n N i.k.l.k.} t.D.C.d.Q.Q.5.a.9.<.> H.A.].`.~.",
"Q.R.`.W.n.} ].].~.].]..X.X.X(.p - % > +.k  .k.c.k.b > G.~._.R.].].~.G.G.} s u y m c ..>.N z.A.f :.D.:X%XD.V.T 6.6.Q.a A.W.R.].>X",
"`..X{.^.v.2.'.(.>X.X>X2X2X.XD.>.p c c +. . .k.K.2.>.4 _.`.{..XW..X].{.>.L U t q t t t Y >.>.U g v d.V.=X7.=X5.7.7.>XJ R.].].].W.",
"{..X{.`.x.k.'.].>X{.].}.2X}.,.D 4.>.+.+.k.l.n.n.n.v b {.1X.X[.}.W.].[.U T R t e t z m :.B.4.4.a l d.D.S.,X,X7.S.S.D.z f.`.W.R.].",
"W.{.W.`.z.k.b.~.E.{.}.}.}.I.6.t M +.@.+.k.l.v.v.v.J a.`.[.{.].~.[.G.i.>.D b N >.L b >.D D D J 4 v V.7.6.:X7.~ Q.A.S.x G.W.'.R.`.",
"'._.`.^.b  .R.].{.~.(.E.R.N <.e i.) $.*.*.n.c.+.z 4.~ :.~.W.'.~.~.E.M.U w s N b B b z.r z J U ; < N.D.S.V.7.,.A.u.S.' G.{.W.}.`.",
"W.R..X~. . .:.B.R.E.(.R.x.b N j ..| %.%.l.%...2.P l D ,.G.Q.~.G.M.E.x.k * 9 9 k w b u.,.2 J U > < 4.V.V.U.=X7.4.<.<.} R.Q.`.`.W.",
"`.}.G.G.2.{ :.>.b :.x.y.2.>.j 4 g | $.=.M c c j 1 r G G >.M.G.M.x.n.c.y.k ; U b y.b ,.J 2 2 2 4 * ;.,.H J U B.4.,.,.x A.G.'.].'.",
"c.k.v.c.1.x  .b j c v j j a c k o + ; O 3 3 3 O p D l r k y.+.z.s.+.k.}  .- k p.f a 4 > * F % a 5 5 1.] H l { 1.x x ' v.n.v.z.n.",
"I.b.v.n.n.n.b.z.n.c.} U :. .e j v j 1 r w ; k f N B - B t c  .v ..O. .#.} ) #.>.c 4 > O.K H ` ] 5 j 4 4 H l b R.k.b.n.x.n.v.n.c.",
"n.R.G.Q.].].R.G.~.{.} J 4.R.z.T z l b B w N  .b D 1 U 1 ~ Q.B.l p ,.b 2.A.R.A.v.U :.4 ,.0.O.1.b.1.1.b 1.U X z.R.^.].{.'.~.~.~.z.",
"z.`.].{.].{.].R.~.[.' <.B.R.R.:.z.a.<.z l h <.u.R J R u.A.{.G.N % N +.z.R.n.R.W.W.:.f ' 2.0.e.J.b.b.b.b.n.4 A.Q.].{.{.}.~.~.E.c.",
"c.].1X1X<X{.>X].~.^.' :.R.`..X$X#Xs.S.U z g u.B.A.G.R.`.>X}.~.4.p 4.M.n.R.G.N.R.W.I.a ` c.w.b.b.0.b.n.b.R.4 ^._.2X<X>X].'.'.'.c.",
"+.2X1X{.<X].>X'.{.].c 2.{.{.&Xa.R.1XS.B.>.M B.R.W.].`.Q.>XQ.R.k.c x.R.R.Q.R.>.>.z.x.a ' 0.b.b.Z.z.I.I.I.>.> R.{.].1X{.].>X{.{.b.",
"z..X2X1X1X}.}..X].].' z.R.f.#XW.H.B.<.u.U } 6X(.].`.R.{.].'.(.z.4.k.L.R.R.G.,.:.>.4.a ' w.b.I.w.z.b.b.x.z a K..X{.1X[.].[.~.'.c.",
"v.1X}.{.{.{.{.>X_.[.O.B.6.f.6.4.4.R L u.k } 6X'.W.`._.A.].W.n.4.:. .n.M.R.R.B.4.J 1.( ' b.b.A.b.b.b.b.G.i.4 n.].].'.].{.~.~.R.c.",
"c.}.E.[.~.[.~.W.`.].O.,.9.W.~.G.u.a.R m Y  .G.].W.Q._.].`.W.n.0.+.z.N 2.z.M.y.r D b f ' 0.b.Z.b.b.b.x.y.m w R.~.'.E.~.'.~.~.E.c.",
"y.E.G.G.Q.E.E.M.].~.X.c R.R.E.x.B.I L E m s 4XR.Q.<XW.Q.`.].R.0.X.b j b >.>.y.j 1 z > ' c.b.b.A.A.G.n.N m a R.R.G.W.~.~.E.M.R.c.",
"+.n.R.G.G.x.B.M.B.N.T  .A.>.N t.L R E m m 9 ~.A.A.G.a.A.I.A.R.2.g b j k = > v j j v f X.c.0.b.y.4.z.N >.U a n.G.G.G.G.G.G.M.n.c.",
"..k.0.+.}  .+.L ' U K K b k 9 T b 9.N U } ( '  .O.k D > c O.O.O. .; d f 4 - f f ) ( ( ' O.0.0.x j  .b  .k j 0.0.a.c.k.k.k.k.2.k.",
"n.n.c.n.} d ..N } U b Q J 3.o.#.c U >.w 1.>.1.c j l o z ,.q.]. XW.,XI.].z.0.^.^.b.A.b.I.I.^.b.j > s c c 9 s N 1.:.o.X.n.A.A.I.z.",
"~.].R.W.A.g k.+.} ,.b.n.:.<.l.#.w B.B.t.S.`.~.Z.6.D : r D 4.`._.{.~.W.~.z.c Q.~.].{._.~.Y.~.].% q t Z t L L y.y.l.n.1.b.I.R.`.[.",
"~.'.].A.n.d v.| x.0.n.x.x.<.n.+.j B.F.u.(.W.{.>XA.<.< ,.:.`.<X<X{.~.~.E.0.> <.Q. X{.].].`.~.B.> w r q b <.x.R.R.M.M.( b.R.].~.~.",
"^.W.R.`._.g } c.R.c.R.M.L.>.R.{  .A.Q.{..X{.2X}.2X0.4 z..X{.2X<X].1X{.`.0.j Z.Q..X<X].{.].{.U * w = q N A.K.'.~.R.G.} n.].~.~.R.",
"R.W.].W.Q.p v.n.v.^.R.R.R.R.'. .j A.{..X].{..X.X.X Xx A..X`.2X'.].>X}.'.{ } A.{._.].{.{.].W.4.s > B b a.4.R.E.(.E.M.g x.{.W.A.Q.",
">X}.Q.W._.' v./.^.R.^.`.`.W.].O.4 ].`.~..X_.<X_..XZ.x b._.`.`.].{.'.~.H.1.b 7.A.{.].R.W.G.<.R 9 w 9 U z.z.G.].R.R.R.) b.`.W.].].",
"].>X>XW.`.4 n.^.^.I.I.Q.`.`.R.k 7 Z.`.`.`..X_._.`.I.< I.`._.~.].{.~.~.B. .+.6.u.~._.u.u.<.>.<.c w b l y.<.n.R.R.R.R.c n.].'.`.[.",
"].I.].W.Z.j b.I.n.I.I.T.Y.Y.A.4 v q.I.`.`._. X`.`.4.* w.`.Q.`.Q.].].R.u.*  .u.L a.6.P <.i.U i.k j N e U >.N n.M.M.G.D :.~.].}.^.",
"W.].,X7.7.j q.I.A.n.T.I.I.Y.1.< , v e.I.I.q.-.] 4.;.5 b.I.I.I.Q.A.B.U D j +.U R u.u.L U t.U U T l b z N >.j >.c.v.v.z D P G.].].",
"A.G.N.:.l 4 :.-.b.b.I.J.I.-.H < : J e.e.-.1 S 6 H 6 7 w.q.b.w.q.l l 5 ]  .S.] D l b >.:.1.l ;.U J z * ; > j b ..v.<.w G D u.B.G.",
"% - p 3 4 - p 3 f ` ' : 3 f f 4 f [ O.{ ] 5 > l S # 4 ] v 5 7 v { } v.b.c.c.c.c.0.k.k.H ; 3 a c J z % @ X ; / ] f O G r r D T j ",
"; o A.A.^.b.I.`.I.I.`.I.{ b.e.b.Z.b.e.b.b.0.> l 8 8 H 8 F 8 < 8 S ' 7X6X7X1X2X6X[.`.`.:.: 4.,.4.4.>.T D V D :.} c 9 4 D D +.+.c ",
"c O n.E.W.`.Q.W.T. X`.I.' b.w.b.Z.J.b.b.e.w.{ b ,.;.H -.S 6 6 6 K 3 1X.X<X<X{.1X1X{.].Q.a W.4.A.S.].A.4.U T v ) } f > z j k.k.%.",
"*.p n.'.W.`.`.`._.`. Xq.} b.b.I.I.I.I.I.I.^.z.:.r.3.;.H K ;.H 8 ,.O./..X1X}.'.1X1X{.}.S.O.(.Q.W.].}.<XD.,.4.' ( X.c ; j } c.k.x.",
"o.3 } {.~.{.<X>X<X`.A.Z.Y b.A.n.R.R.^.^.^./.z.b J H 3.;.J J ;.H 4.O.2X2X'.'.>X.X'.2X3X4.k..X]..X{.{.2XA.a.,.g g M j l D b c.v.v.",
"*.a v.W.>X{.{.1X<XY.4.4.} b.R.^.^.R./.'.^./.1. .z S 4.J ,.Z.,.Z.7.O.I.2X`.{.}.1X].}.R.A.2.].].{..X].1X].4.4.( ; 9 a b z N  . .l."
};
