/* XPM */
static char *b9999ddd872e4ce994d653f67d908508DviCVfLCO77hU5xh[] = {
/* columns rows colors chars-per-pixel */
"64 64 202 2 ",
"   c #504E3C",
".  c #445630",
"X  c #4D5C36",
"o  c #475538",
"O  c #485938",
"+  c #535D3B",
"@  c #585A3B",
"#  c #476137",
"$  c #4C6136",
"%  c #47613C",
"&  c #4C633A",
"*  c #4C6B38",
"=  c #566D37",
"-  c #54633B",
";  c #5B653B",
":  c #526B3C",
">  c #5D6A3F",
",  c #54743F",
"<  c #534E44",
"1  c #4C5040",
"2  c #555445",
"3  c #5A5445",
"4  c #545A43",
"5  c #5B5E44",
"6  c #55554B",
"7  c #5B564C",
"8  c #545B4B",
"9  c #5C5C4C",
"0  c #5C5552",
"q  c #5C5D52",
"w  c #635D4D",
"e  c #615D52",
"r  c #635E59",
"t  c #4E6541",
"y  c #566244",
"u  c #5C6444",
"i  c #556C43",
"p  c #5B6A43",
"a  c #56624C",
"s  c #5C624C",
"d  c #57694B",
"f  c #5D6B4B",
"g  c #557443",
"h  c #5C7344",
"j  c #5F714C",
"k  c #5D6253",
"l  c #5D6953",
"z  c #5E6459",
"x  c #616744",
"c  c #606C44",
"v  c #61634D",
"b  c #636B4C",
"n  c #686C4B",
"m  c #637145",
"M  c #6A7345",
"N  c #677A46",
"B  c #64734C",
"V  c #6C744D",
"C  c #63784C",
"Z  c #69784D",
"A  c #727A4D",
"S  c #636354",
"D  c #6B6554",
"F  c #636A54",
"G  c #6B6B54",
"H  c #64655A",
"J  c #696659",
"K  c #656A5B",
"L  c #6B6B5C",
"P  c #716E5C",
"I  c #647354",
"U  c #6B7354",
"Y  c #667853",
"T  c #6C7850",
"R  c #657359",
"E  c #6C735C",
"W  c #6C7B5A",
"Q  c #72725D",
"!  c #747C5D",
"~  c #797F5D",
"^  c #6A6661",
"/  c #676E63",
"(  c #6C6D63",
")  c #6C6C68",
"_  c #716E63",
"`  c #726F69",
"'  c #6D7263",
"]  c #6D7963",
"[  c #6D7368",
"{  c #6F7A6D",
"}  c #737364",
"|  c #787664",
" . c #757A65",
".. c #7B7B65",
"X. c #74746A",
"o. c #79766A",
"O. c #757A6B",
"+. c #7B7C6C",
"@. c #7A7671",
"#. c #757D71",
"$. c #7C7C72",
"%. c #7D7E78",
"&. c #817D6C",
"*. c #817E73",
"=. c #837E79",
"-. c #6E835A",
";. c #7A865B",
":. c #778267",
">. c #7A8462",
",. c #7D8A66",
"<. c #76826C",
"1. c #7D826D",
"2. c #778274",
"3. c #7D8273",
"4. c #7D8874",
"5. c #7E8479",
"6. c #7D8978",
"7. c #838566",
"8. c #83836D",
"9. c #8A876D",
"0. c #83896D",
"q. c #838474",
"w. c #898674",
"e. c #858975",
"r. c #8A8A75",
"t. c #858179",
"y. c #838578",
"u. c #858578",
"i. c #85847A",
"p. c #858679",
"a. c #84817C",
"s. c #85837D",
"d. c #84847A",
"f. c #888278",
"g. c #8B877B",
"h. c #88867B",
"j. c #88877D",
"k. c #88877E",
"l. c #8A877D",
"z. c #8C867C",
"x. c #89867C",
"c. c #868D7B",
"v. c #848A7C",
"b. c #858C7D",
"n. c #858A7B",
"m. c #8B8B7B",
"M. c #888978",
"N. c #898D79",
"B. c #8B8C78",
"V. c #8B8F7B",
"C. c #888A7D",
"Z. c #8B897E",
"A. c #88887D",
"S. c #8C897C",
"D. c #8D8B7D",
"F. c #8C8A7F",
"G. c #8B8C7E",
"H. c #8C8C7C",
"J. c #8C8E7C",
"K. c #8D8D7F",
"L. c #8B8C7B",
"P. c #928F7D",
"I. c #908E7A",
"U. c #859073",
"Y. c #8C917C",
"T. c #92927C",
"R. c #848681",
"E. c #8B8780",
"W. c #8A8681",
"Q. c #868981",
"!. c #898F81",
"~. c #888C80",
"^. c #8E8D81",
"/. c #8B8D81",
"(. c #8C8C8A",
"). c #918D81",
"_. c #908F80",
"`. c #938F80",
"'. c #918E83",
"]. c #918E88",
"[. c #8C9080",
"{. c #8E9180",
"}. c #8D9382",
"|. c #8C9280",
" X c #8D9183",
".X c #8D948A",
"XX c #909380",
"oX c #929282",
"OX c #949180",
"+X c #959585",
"@X c #929383",
"#X c #9A9583",
"$X c #949884",
"%X c #9C9987",
"&X c #92948A",
"*X c #989788",
"=X c #949889",
"-X c #999A89",
";X c #938F93",
":X c #959292",
">X c #989690",
",X c #9C9B92",
/* pixels */
").D.g.J ( q.q.O.E  .1.1.O.O.H O.<.O.{ O.O.' 8 K } X.J D.q.b.{.{.@Xm.H.q.q.J +.o.+.F o.C.X.q H @.X.X.+.J X.S l.t./.l.f.X.X.L e f.",
").H.H.D.e 9 9 q z z q z k H 8 ' 2.[ / { ' 9 9 K } L ' O.v.c.{.+X@X!.m.3. .H J L J q.q.q.q.} S 7 9 K J J S @.*.p.l.t.z.t.=.) *.z.",
"+X).H.H.S X.$.$.$.d.3.H 9 8 8 H H K K F 8 8 J J } K S K 3.!.{.{./.H.M.4.O.H S o.+...M.m.r.+.J +.e.+.} o.X.} y.g.W.C.a.a.$.r f.g.",
").OXH.P.L p.$.5.p.d.3.} X.( K e.3.q.q.3.K i b K K H S [ $.C.+XD.e.m.e.q.O.H +.} } q.M.M.8.X._ $.o.+.+.+.X.G p.C.l.a.t.$.X.J *.f.",
"H.OXH.D.( y.p.C.C.H.v.v.q.O.S } q.1.e.q.B # q H H J S ' 1.q.G.C.$.p.q.O.K ' } } +.w.r.q.e...L q.+.+.+.$.+.} m 1.l.t.*.@.X.o.f.D.",
"@X@XD.L } $.oX/.Q.v.d.C.p.o.S o.+.+.w.M.O.a 8 K ( H q 4 ] ] +.[ O.( J z 7 f.} O.q.q.q.w.q.+.J *.} } O.q.f.U : t.~.t.a.*.) f.w.D.",
").@Xw.} X.3.(.^.v.C.C.3.s.O.H *.f.q.w.8.E 4 q.q.l.s.*.9 S ' H J ( ( [ @.J } _ +.H.q.q.O.&.K 9 E X.X.+.O.$.| S X.*.o.` ^ 7 *.m.q.",
"H.T.M.o.( v.~.v././.v.q.$.O.( L *.l.q.E U s 1.f.t.a.@.K 2 K =.&Xs.y.@.$.@.6 e S q.+.} O.J ' q.+.E ( X.X.o.} L e 9 < 2 7 e +.w.m.",
"H.H.H.+.[ v.M././.oXv.} X.L K H J ( U p = C } D.C.*.@.J 6 Q.W.W.W.y.o.%.$.3.O.L 9 J v ( 3.1.q.7.1.O.J X.J X.~.W.D.7 e S J o.q.m.",
"H.@XH.} X.q.C.~./.G.3.J H @.$.O.$.@.R & o F +.H.D.^.=.( 7 p.&X(.(.s.@.a.o.m.b.d.3.3  .e.e.c.e.1.1.1.} e y.t.g.&Xl.J 9 J L J /.q.",
"m.H.H.L X.$.q.v.p.$.+.J y.@.@.o.+.@.O.> 2 q.( 8.).'.l.( 7 @.].;X(.].*.s.X.O.XX4.e.L q.m.q.p.3.q.1.+.F *.p.&X!.^.t.X.7 J P e q.m.",
"} L J 7 9 } +.3.q.L S +.f.y.$.d.$.O.O.O.8 q.f._ f.!.l._ 0 @.s.(.(.R.a.y.X.v.G.!.4.' } e.Y.Y.1.} K 9 9 p./.oXD./.^.$.2 D J < e _ ",
"w.q.q.} 2 2 F s J 9 e @.y.~.l.@.X.} X.X.S @.y.p.+.D.*.X.S $.$.W.^.W.~.s.` C.!.{.q.O.S 8.e.o.K 1.q.L s q. X{.C.v.l.+.u e } +.+.O.",
"q.w.e.} 9 J ] 1.o.$.L S +.q.d.X.X.J J e q O.@.f.s.~.*.o.r @.@.@.$.@.a.X.q p.b.G.n.[ S 9 F X.H. XXXn.9 o.G.p./.).s.@.J r.r.w.+.8.",
"r.M.w.} 9 q.1. .+.+.X.J S q q _ S S $.d.$.S X.$.C.3.$.H 9 J @.$.$.@.( 7 7 } d.n.4.X.z S } n.G.G.~.O.' +.C. Xv./.s.H _ w.r.....w.",
"q.+...9 p.q.H.q.q.q.+.+.E ( 2 S @.=.X.3.y.L L @.( S J X.} ( _ _ } o.*.f.D.( O.4.6.O.9 O.f.q.3.p.!.G.} ~.C.C.oX@XX.H +.w.....8.e.",
"1._ 2 7 +.q.H.q.q.p.d.p.+.' 9 $.$.3.$.~.d.@.8 q o.p.v.M.p.q.D.D.D.^.C.H.M.a.J O.n.] v O.} p.v.v./.^.X.( q.e.H.&XH T ! Q | L } } ",
"S ( $.X.S 3.*.q.q.*.C.^.H.+.9 d.s.Q.^.R.R.*.( E q.q.q.8.+.q.M./.M.H.M.].M.3.L +.p.U 2  .q.p.~.C.O.$.} 8 k O.( L 3 u & m h > h v ",
"+.o.v.p.O.J +.} +.q.e.).!...q X.$.Q.(.W.~.$.( ..1.q.M.M.w.M.M./.C.C.l./.f.q.J +. .h 8 W q.d.p.q.+.] a c 5 4 q L  .U $ F E ; L e ",
"d.+.^.v.$.L e } p.M.M.+Xq.X.q @.@.a.R.Q.y.O.W  .1.O.e.H.G.H.C.v.p.q.D.D.q.M.S L g : # F } X.( X.} 4 4 8 F s G.Y.Y.H.B.0.1.} } S ",
"3.p.!.M.$.' J } 1.H.!.Y.3.} z ( @.y.W.R.a.O.E U :.3.+.+.q.w.d.+.o.q.p.q.q.L _ } * , = s J X.o.z 9 s S H J K e.G.T.H.m.M.M.q.L ( ",
"$.1.p. Xq.q.+.q ..M.q.M.s.X.k ) @.a.R.s.y.O.I   G J L } +.*. ...+.+.*.} _ q.o.$. .}  .} L S 3 9 9 S K J K J  .m.m.M.q.M.H.q.J _ ",
"$.1.q.C.g.p.+.4 +.f.v.p.q.$.J ( X.@.a.=.X.E n + 1.$.O.X.} ' L } *.X.J q.*.f.p.q.p.q.1.3.3.$.S 9 q J K K K K e.+.H.1.1.e.r.o.S $.",
"O.d.w.v.g.v.1.4 ] } q.q.+.@.q 6 q r @.) X.K > A } y.+.3.m.1.O.L 9 9 *.e./.p./.D.p.q.+Xm.M.p.} 9 k J H J L J /.q.r.Y.H.H.H.+.J q.",
"q.d./.C.~.M.W - I E +.$.L S J q.$.X.r 0 9 - f } } y.C.oXY.+.q.q.( 9 o.q.q.q.M./.C.M.@X/.H.H.$.9 v J L e.M.L ( w.Y.H.Y.Y.H.+.o.3.",
"M.p.v.p.q.1.R X - a } H S [ $.X.*.*.@.X.< 9 ' X.$.p.M.C.{.r.v.p.o.9 v L 3.+.+.C.m.@X+XH.H./.+.J 3 q...H.H.} _ q.e.Y.+XH.r.L $.q.",
"q.C.s.q.q.U 4 p s 4 8 X.q.q.3.f.~.q.*.@.q } o.$.p.q.q.m.H.m.e.p.+.v L P J K O.*.q.G.p.*.$.M.f.L +.+Xq.+X+X8.` ( e.q...q.} 9 H +.",
"y.$.p.q.o.9 E E  .L O.n.p.e.p.D.H.^.f.@.e s.8.)./.H.p./.@X+Xm.!.o.s G } E S O.q.+.+.+.q.M.D.f.J m.q.B.+X@Xm...S } } J J _ X.L S ",
"( q S J q } } +.q.} O.p.d.p.3.D./.~.^.O.q y.q.y. XH.p.{.+XY.M.H.( K O.+. ._ } O.+.O.o.o.o.+.} e g.1.Y.m.T.H.+.S L @.*.f.p.p.f.o.",
"+.} H 7 $.+.q.q.H.} O.Y.c.e.e.M.M.H.p.$.S v.q.p.@XH.M./.+X&XM.M.s J } w.} ..X.L O.J L L L _ 9 _ D.r.r.H.@Xm.+.J L *.q.*.q.3.q.$.",
"+.X.( } O.+.Y.Y.H.$.O.b.e.n.p.M.m.G.M.q.H C.C.o.H.C.!./.{.oXM.q.9 L } !  .o.} +.} } ( O.@.} J o.P.M.I.r.T.T.+.K K +.q.r.q.$.q.q.",
" .L L q.3.q.@X+Xm.( E e.q.p.n.G.G.p.v.+.K q.M.G.C.!.oX@X/.oX{.3.L  . .....} +.1.+.1.M.M.M.w.} } +.m.T.@X#XH...F p W  . . .f.X...",
": T ,.q.e.H.).@Xq.( q  .3.q.e.p.p.M./.e.L X./.{.H.!. X@XG./.{.s F Q  .} ( q.e.e.{.{.Y.Y.p.m.q.} &.8.+X%XOXXX>.v v E F s S H H J ",
"X - >.M.D.H.Y.H.e.} 9 ( 3.3.q.e.q.c.3.e.+.( b. XG.!./. XH.q.1.& & f I e.3.3.G. X X{. XH.8.w.+.X.M.r.m.XX+Xm.+.s 0.M.M.p.e.^.).7.",
"n ;.8.f.q.f.H.H.q.+.k f S :.>.O.1.1.O.O. .F $.q.v./.G.q.3.J a & g Y c.Y.Y. X{. X{.{.H.+. .} S j P.H.w.M.8.w.I d M.H.+X XoX>Xv.p.",
"S  .X.X.O.w.Y.G.o. .h 4 f - x F R  .' [ s a s O.L $.L K 2.3.] I U  .c.c.~.~.~.b.|.p.4.L F } O.J +.o.L J J J u g 1.M./.^.&XC.g.*.",
"_ +.+.o.$.$.q.f.( J 2 s n - B - s K K ' K I 8 K /.q.q.q.H.G.1.K 1.c.b.Y.G.e.m.3.q.L K +.q.XX{.K 9 v D D D J e l q.M. X&X+X/.g.f.",
"e L ( J X.o.+.o.7 2 9 K F F B s <.e.v.b.3.E p Y.M.H.M.M.T.@XH.K O.c.n.p.+.O.q.H o.p.c.q.q.T.Y.T a L D L D D F 3 +.e.q.q.&.&.+.*.",
"H ( ^ J S 9 9 < 3 S D G Q L K  .}. X X@Xc.>.F e.H.+X{.H.$X$XM.' [ 3.1.1.O.E } H.M.Y.H.{.-XXXB.U 5 D L Q | L v x } L L L r e e e ",
"a.l.t.p.f. .@ s v D P L } Q E O.p.-X}.{.@X3.K m.}.$X=X+X=XT. .O.F I O.O.L H m.H.q.@X$X$X+X$X0.y G P L Q E P U - 2 2 2 S *.a.t.s.",
"$.*.*.y.@.Y M 5 s D L } } } ( 3.e.@X=Xb.=Xv.L p.H.,X=X+X+X@X3.+.c & F K ' J Y.H.M.-XY.@X-XU.C # F Q L G L Q v 9 P J S J q.y.*.=.",
"a.*.*._ _ G : N b D J } L K K d.q.&X&XY.@Xn.F 3.e.G.H.@X+X$Xe.e.U R e.+.+.O.+.m.Y.@X*XXX$Xe.! : U }  .Q | Q 4 } +.o.J 8 3.%.~.^.",
"*.l.m.*.( U + . V J } ....} ( 3.M.=X}.{.!.O.k K +.3.q.e.Y.H.q.1.F 1.3.q.C.1.( c.H.H.m.M.+XB.R y G Q Q | ..} k L  .+.k S ( @.^.$.",
"@.l.y.*.+.q 1 Z } } +.M.w...J p.p.+X&X Xb.K v.X.L K K U } o.+.+.K e.q.m.p.q.$.q.M.M.Y.Y.-Xm.f % y P J L E v 4 F o.} 8 L @.s.g.$.",
"t.v.a.$.L q U +.8.o.q.M.1...H p.p. X X}.d.X.d.s.v. XE F O.n.q.K 3.4.q.G.m.q.1. .e.M.G.r.Y.E d # + - F K F y y 4 S J S ( t.l.q.y.",
"D.s.s.q.q.S 1.8.8.q.w.g.q...J q.d.@X&X!.3.l.s.Q.~.s.O.] b.b.5.p. .q.H.m.{.Y.3.W  .G.8.K G F W  .] 3.b.p.$.}  .O.o.J X.@.z.E.s.y.",
"s.t.l.p.O.9 1.+.&.w.p.m.8.O.S /.q.{.+X Xo..Xv.v.^.5.d.O.4.C.M./.[ @XH.Y.G.Y.e.1.F b K [ e.e.{.}.G.c.m.@X!.C.q.$.*.J ` =.*.t.+.f.",
"@.$.$.o.k 2 7.1.q.w.M.H.B.O.H G.e.M.=Xc./ p.v.v.^.y.d.3.q./.M.!.$.p.+.+.e.H.q.3.a R c.3.!.^. X&X X X@X X).M.f.*.*.r < 7 L @.` @.",
"` ( J L 4 O B ~ w.9.M.M.r.+.J !./.b.b.e.K b.!.Q.!.s.2.q.q. XoX~.+.O.o.+.$.+.3. .I R d.b.b. X@X&X.X X!.M.G./.M.*.@.7 7 9 9 3 0 H ",
"2 9 3 6 t i t h ..m.r.m.O.q.J G./.v.q.1.E 6.n.Q.v.2.3.-.n.&X+X/.$.J L } } } } ] R k [ v.v. X&X.X&Xb.e.d.~.H.s.s._ 2 7 D D D D S ",
"S S +.o. . .} k E 8.w.m.+.w.H M.3.O.1. .F ] O.y.q.[ '  .q. X/. X3.+.q.e.q.q.q.1.<.O.F K 3.6.$.4.4.4.d./.v.C.~.W.J 7 w D P P D S ",
"L q.+.X.+. . .} L } q.w.} ..K o.' ( F U 8 : E X.X.( L ' 3.!.{.!.q.1.q.e.+.+.1.c.e.b.3.K H K X.' X.O.+.p.+.l.t.$.2 3 9 S } L J L ",
"H +.q.q.X.@.*.*.X.S +.O.o.o.F 9 q k k 8 * * x X.d.v.O.L 1.p./.!.$.1.1.q.w.e.e.Y.|.Y.c.O.H 8 ( S k z H ( X.$.} S r w D L _ P L L ",
"e o.y.q.o.+.y.y.$.e s J J 9 9 8 q.e.1. .:.f k q.+.!.e.K <.G.q.p.L  .q.8.3.w.T.V.XXe.3.3.l X.R.v.' $.X.z e ( J t.s._ D P P P J L ",
"9 q.g.D.*.o.*.*.o.2 w S v S L J v.e.+.O. .O.v O.O.p.1.i R 4.} ( O.X.} 8.I.8.e.8.e.1.1.O.H #.$.4.d.d.%.@.+.( $.~.^.*.J J L L J L ",
"J o.q.*.*.y.*.$.X.9 9 S J L J J 4.Y.H.m.e.[ q o.O.O.<.i : I O.3.3.q.( P V.w.e...' E [ k K O.$.$.$.$.*.l.l.@.*.E.^.^.o.J J L L *.",
"p.^ @.*.t.t.} } S 7 w S K ( L F 1.m.@XXXH.O.J @.@.p.+.a F q.3.n.4.q.p.X.J J q.+.} K H 3 y.O.O.@.@.+.X.*.f.@.X.E.].^._ $.].C.oX&X",
"l.( o.o.+.@.} q 2 9 S J L _ J S 1.e.@XY.G.q.H $.3.p.} k 3.3.e.M.H.3.H.C.K o.e.X.1.q.K S s.3.O.X.X.X.X.@.*.} @.l./.f.J v.D.&X&X>X",
"~.X.6 S H K J +.+.J k 9 S J S y q.3.G.Y.m.M.L $.@.v.$.L q.q.M.H.G.H.@Xm.K X.q.o.H.e.o.% d.q.X.X.[ _ ( ( o.H *.~.].s.S ~.D.D. X:X",
"s.J +.*.*.H.f.+.q.+.+.w.3.K 5 F  .q.q.m.e.3.L S _ *.L o.q.q.M.b.H.M.H.G.O.o.+.8.H.r.+.q *.q.X.X._ [ ( X._ r @.l./.s.( l.t.^.].].",
"` q t.*.q.q.&.q.w.1.q.m.v.+.s ' O.e.e.c.G.4.[ 9 q S S $.q.q.H. XH.q.H.M.} ( m.q.m.e.1.S ( 3.O.X.( ( ( ( } ( %.^.^.p.) z.~.&X].'.",
"=.9 *.*.f.f.q.e.p.q.1.q.q...s E 3.1.c.c.p.4.X.e J J e 3.q.q.{. X!.M.M.M.} J q.1.m.H.q.q O.g.$.X.( ( _ X.X.J $.p.=.s.E *.@.&X,X~.",
"` 9 &.*.&.w.q.e.p.e.c.e.d.O.k O.4.4.3.n.b.4.K S ' K S d.d.b./. X{.H.H.r.+.S $.+.M.m.+.e y.s.*.O.X.X.+.X.@.H X.( @.i g +.@.@.a.t.",
"r ( J +.+.m.*.e.q.O.3.p.q.#.F q.4.O.3.6.2.3.H D } ' S s.q.{.+X@X{.{.H.e.q.S +...q.p.L S 9 J L s.@.@.*.$.$.S @.@.*.y.W ( ` @.^ q "
};
