/* XPM */
static char *de053c292a7942b6e762a0fae281a408yTHa7cBOgOP4vbCG[] = {
/* columns rows colors chars-per-pixel */
"64 64 216 2 ",
"   c #2E452D",
".  c #354B2D",
"X  c #3A4C2D",
"o  c #39472D",
"O  c #385025",
"+  c #3D522E",
"@  c #34522C",
"#  c #3A4633",
"$  c #364C34",
"%  c #3C4C32",
"&  c #3D4D3A",
"*  c #364633",
"=  c #3C5333",
"-  c #3F5D35",
";  c #3E5439",
":  c #3D5B3A",
">  c #345230",
",  c #434E2E",
"<  c #42522E",
"1  c #4B532E",
"2  c #455A2E",
"3  c #4D5D2F",
"4  c #424E33",
"5  c #4C4F34",
"6  c #48463E",
"7  c #444C3B",
"8  c #4C4D3C",
"9  c #43423B",
"0  c #445434",
"q  c #4A5534",
"w  c #445B35",
"e  c #4B5B35",
"r  c #45543A",
"t  c #4B543C",
"y  c #455B3A",
"u  c #4C5C3B",
"i  c #505535",
"p  c #525D36",
"a  c #585B35",
"s  c #53563D",
"d  c #525D3A",
"f  c #585E3C",
"g  c #4B622F",
"h  c #456236",
"j  c #4D6236",
"k  c #4E6C33",
"l  c #45623B",
"z  c #4C633B",
"x  c #46683D",
"c  c #4C6A3C",
"v  c #536236",
"b  c #5A6435",
"n  c #546B36",
"m  c #5A6A36",
"M  c #54633B",
"N  c #5A653B",
"B  c #546A3C",
"V  c #5B6B3C",
"C  c #447038",
"Z  c #54703D",
"A  c #5B723D",
"S  c #616937",
"D  c #61673E",
"F  c #626C3C",
"G  c #696E3C",
"H  c #63713D",
"J  c #69743E",
"K  c #62793E",
"L  c #4A4C42",
"P  c #4C4E48",
"I  c #524F4A",
"U  c #475340",
"Y  c #4C5342",
"T  c #4D5A42",
"R  c #4F554B",
"E  c #4C5A48",
"W  c #535544",
"Q  c #535B43",
"!  c #5A5E43",
"~  c #53544A",
"^  c #59564D",
"/  c #545B4B",
"(  c #5A5B4C",
")  c #565752",
"_  c #595650",
"`  c #565953",
"'  c #5C5C53",
"]  c #5E5E5A",
"[  c #645F41",
"{  c #615F4D",
"}  c #615E53",
"|  c #625E59",
" . c #755846",
".. c #4C6441",
"X. c #4E6B42",
"o. c #476543",
"O. c #546342",
"+. c #5A6444",
"@. c #556B43",
"#. c #5B6B42",
"$. c #546249",
"%. c #5D644B",
"&. c #566948",
"*. c #5D6B4A",
"=. c #4B7346",
"-. c #557442",
";. c #5C7243",
":. c #5B7A44",
">. c #5D724B",
",. c #5C7B4B",
"<. c #5E6253",
"1. c #626545",
"2. c #626D43",
"3. c #6A6D42",
"4. c #61664B",
"5. c #6E604B",
"6. c #636B4C",
"7. c #6A6E4B",
"8. c #637442",
"9. c #6A7442",
"0. c #647A43",
"q. c #6B7B44",
"w. c #64734C",
"e. c #6B744B",
"r. c #637B49",
"t. c #6C7B4B",
"y. c #707D43",
"u. c #727E4C",
"i. c #626354",
"p. c #6A6554",
"a. c #646A54",
"s. c #6A6C54",
"d. c #64645B",
"f. c #6A655C",
"g. c #666A5B",
"h. c #6B6B5C",
"j. c #726F5C",
"k. c #6B7254",
"l. c #6F7951",
"z. c #66705E",
"x. c #6D745B",
"c. c #68765A",
"v. c #717B51",
"b. c #73725C",
"n. c #737B5C",
"m. c #6C6762",
"M. c #656C61",
"N. c #6C6B63",
"B. c #656460",
"V. c #706560",
"C. c #726D64",
"Z. c #726E69",
"A. c #7A6F65",
"S. c #6E7263",
"D. c #6C7468",
"F. c #747265",
"G. c #7A7265",
"H. c #767965",
"J. c #7A7967",
"K. c #74736A",
"L. c #7A756B",
"P. c #757B6B",
"I. c #7C7A6C",
"U. c #757770",
"Y. c #7A7670",
"T. c #777974",
"R. c #7D7B72",
"E. c #8A6642",
"W. c #80776E",
"Q. c #827A6D",
"!. c #827D73",
"~. c #887E74",
"^. c #837E79",
"/. c #5D8849",
"(. c #668343",
"). c #6D8244",
"_. c #62864C",
"`. c #6C844A",
"'. c #718346",
"]. c #788246",
"[. c #758A46",
"{. c #748449",
"}. c #7B864C",
"|. c #798946",
" X c #6D8755",
".X c #7C816C",
"XX c #7E8261",
"oX c #7E8074",
"OX c #7C8078",
"+X c #838C4D",
"@X c #848175",
"#X c #898375",
"$X c #83837B",
"%X c #848278",
"&X c #868279",
"*X c #858578",
"=X c #858678",
"-X c #84817C",
";X c #85857D",
":X c #87867F",
">X c #85837A",
",X c #888679",
"<X c #89867E",
"1X c #89847B",
"2X c #878978",
"3X c #868979",
"4X c #8A8A7B",
"5X c #89897D",
"6X c #8C887C",
"7X c #8C897C",
"8X c #90897D",
"9X c #888680",
"0X c #8B8781",
"qX c #8C8A81",
"wX c #928C82",
"eX c #959185",
/* pixels */
"N B N.@X| u N d F z %.8X&XF.> w F.<X<X%XO.-.:.c V B ;./ !.*X' 0 7 ^ T W *X,X5X@X<.u z F V $X:X9Xm @X<X-XN.; T R.,X-X9X<X<XI.d #.",
"B c t Y ; q 0 N j w Q @X&X#Xr x !.:X0X^.X.-.T.*XR.O.A z u u u z w e z ' 6X,X<X%X:X+.B e M 9X:X%Xa.a.^.R.W u x N.%X9X%X%XR._ % e ",
"qX5Xu u e p p q 0 #.t &X*X!.u c f.:X%X!.h d.:X*X*X&XQ r.B y q % ; % B / @X,X*XqX:XU.+.b N.9XqX%XR.z t t v z A d f.K.R.K.+.V f.*X",
",X*XN.0 0 a 5 q q e v ~ _ t 0 X.c f.!.W l T.4X5X2X@X!.;.B 8.j 0 e ; < M L.*X*X*X<X-Xt D R.:X9X:XR.0 0 N e 0 n n Z 0.B z c $.@X6X",
"5X5XR.V Y %X6X:X, a j w t &X&XJ.@.l % z w K.4X*X*X2X&Xr @.b.d r 0 v l . W K.%X,X*XL.0 q.K.%X<X-Xi.+ w v A m < m '.u.g.d w K.&X@X",
",X4XC.V &X:X*XL.a u 9.X ,XwX:X&XI.w c 2 = / *X%X4XqX@X+.L.I.I.e N y . ; B e / W Y s u 8.t :X^.:XO.z j 3 V +.f.V <.R.K.E z !.<XqX",
"qX:Xt N N.K.f.p f./ V $.*X*X6X1X&Xu ,.w h - R.@X%X*XK.Q K.W.G.t 9.e w A < d F.b.#.v :.B A t Z.^ V M M M V 1X-XO.N.K.m.T M R.*X4X",
"*Xf.u = v M % N.OXR.4.t &X@X@X&X*Xd.@.w > c w L.L.d.t i.K.L.C.1.N %.z 0 G.!.C.f.@.0.`.y ; B M #.B t.v M ( <X^./ t | s.y N K.*X2X",
"~ r r w w e 0 Z.%XoXC.e S.@X*X@X.Xh.h B u G.I./ d u < %.C.C.v.H !.#Xa.u !.J.C.m.{.s.L.R.^.R.i.u u M 0 v N.^.R.p F u w V V t N.g.",
"0 M t w y o u N.-XR.N.u p d.P..XS.T z z t !.&X!.g.0 w < _ W {.M Q.&Xh.e *.s.f.s +.H.&XR.T.%XR.#.0 , v V / N./ D T.<X1X%Xh.u B M ",
"M M %   $ c y K.K.N.u 0 0 u 7 t u y A 0 W !.&X1XF.w M e e M 3.B !.L.Q e e t u O.h.P.I.R.T.!.^.W M N v B p N N T.^.^.%X:X0X9X+.V ",
"V V ; > : 0.|.^ <.&.*.4X@XO.V B ; w A < $.!.!.!.C.e V 0 V % w = ( m.u K V w ;.j K.I.I.@X%X!.R.+.v m k.!.L.D v R.1X<X<X%X:X9X9Xu ",
"p v w w w x B B :.@./ @X@XP.B 1 e < 0 j N !.1XR.Y B w e u y y v V 0 %.j B ;.Z 0 P..X@X%XT.T.^.M N :X6X&X!.&XN K.%X:X,X%X!.R.%XQ ",
"X 0 w > h c `.-.l -.z h.H.g.e 2 A w < M m N.K.^ V j j -.y 0 B z @X6X1X,XL.V 8.M S..X*X*XR.R.^.d s.6XR.R.!.!.i.i R.^.%X%X%XR.m.y ",
"0 u 2 z -.: B z o.z =.z T z z 0.n e v m 0.q A 1.<.v B > 1.h = &X4X&X!.I.J.<.#.w.h.P..XR.I.T.Z.+.g.!.!.1X1X^.' b 2.%.} } i.d v (.",
"e B w y c z c -.X.- -.B q.Z M 0.i.g.v 3 2 q.6.N.F.C.8.J : u F.5X%X@X!.I.H.N.q t +.F.oXoX!.K.~ e.M N.K.K.L.d.t 2.9.*.N u M >.e V ",
"N B :.w -.;.V _.:.o.y N < w 0 F.I.!.h.b b F N.G.I.F.Q v $ + &X#X!.!.!..XH.t 9.d W t N.K.K.' 6.l.w.#.#.#.f +.v M t.#.m 7 R.0X^.+.",
"0.B %.Y.!.!.*.;.o.-.B q.H V Q H.F.I.C.N v N C.G.F.C.6.u v 0 &X!.&X!.L.S.W d Q 1.i.W 4 6.+.t./ s.*.8.B N.R.R.F.6.t.O.V N.9X%X%Xf.",
"#.Q J.!.W.!.b.B -.B b M v K i.J.J.J.Y J D %.C.G.C.C.3.Y ; N R.!.L.F.<.s 1.G.!.!.Q.!.i.d O.K.%X&XR.u / !.%X!.!.!.N.M 8.d.^.R.R.a.",
"v I.!.Q.!.~.L.z z f.*X5X:XQ M s.~ 8 N e a d C.G.G.G.j.u #.M i.C.d.t #.d W.!.!.!.W.!.K.v K.!.R.T.I.V N.!.!.^.!.@X^.w.h j ' K.F.M ",
"e R.1XQ.!.Q.G.y i.qX%X&XR.K.w v w.p.{ N p 0 f.h.C.C.+.q M M M N #.z % G.W.I.!.!.Q.I.i.t &X!.R.L.!.8.6.T.!.!.!.^.^.>.B r.M O.u 8.",
"O.!.!.#X!.I.f.y g.,XI.@XK.`.8.w.C.C.C.C.M M 0 ( s.d.$.u u K.*.8.V M 0 !.!.I.I.I.G.' u / T.L.T.J.C.r.M K.R.!.1X!.<X&.r.#.e f.%X<.",
"@ L.!.!.W.C.u u B a.' Y }.0.v K.G.G.C.C.Q N u B M # O.u K.!.I.d M e a C.I.J.K.d.~ +.M u g.N.K.m.t B z O.N.R.R.!.K.Q S.2Xa.K.9X%X",
"w <.G.F.| t V 8.{.a.s.k.O.e o C.C.C.K.C.t y ; w I.L.C.y F.%X!.J.N N v 0 u Y r M / ^ d e #.M u y B e A ;.#.~ p.d.Q Q qX=XJ T R.R.",
"z M e W ! v v G.%X6X%X&X&XN.N C.C.C.a.f.e N 2.r C.A.f.y W L.P.N.u 8.@.% % M 4 C.G.F.N.u B Q !.,XXXs.M z ..u #.#.M P.%X@X{.M W ' ",
"B c F.8X#X#.f.&X!.%X&X&X!.R.+ 0 / %.q v u M 0 &.Y } B % j t / t Y <.f.r # 0 W f.L.C.{.;.0 @X&X&XW.!.&XF.@.O.c u / <XoXg.N N e O.",
"h = wX1XJ.w K.%XR.R.!.&X%XL.N w M 8.8.B z e ; X z $ & r z 0 r 7 f.C.W.G.6.o.T C.N./ u.b r I.J.!.I.!.T.L.%.u e * u d./ u p M N A ",
"y s.&XQ.~ w Q f.&X!.&XR.R.^ e %.,X6X@XW = y % l ; ..z ..& T u f.s.N.F.F.G.i.z r q.w i.K.% F.L.!.I.I.L.K.N.0 < M e #.#.V 0 0 < e ",
"c / f.Y l w w 7 d.N.C.d.Y q F.wX#X!.R.P.z ; $ : -.r z z O.r 0 a.g.F.K.K.G.C.@.-.$ wX,X!.a.u 4.F.I.I.K.K.} z N.R.T 0 4 ;.0 M 0 w ",
"M 0 - = O w 0 0 j b y X w g.*X1X!.!.J.R.x.B r y 0 !.1X!.Q V p 9.f.N.C.T.I.F.+.c & @X!.!./ B 0 z O.i.C.i.d %.&X5X&X+.O.u y ,.w z ",
"G.%X!.W.r 0 w M j B k.+.e I.I.!.%XR.I.I.K.% r O.~.!.!.!.J.# v +.N.g.N.C.C.C.<.e u d Y Y @.c ; y ; y r y r K.%X*X:X!.;.M e y l ;.",
"1X!.!.&XW.w e N +.1X@X!.M R.I.&XI.I.I.P.] M e W.~.!.!.!.s.d V N x.h.C.h.f.h.4 X ; e 0 r X.w f.L.I.K./ M u L.%X,X%X6XK.M 0 B t R.",
"!.!.1X&X!.} z z !.!.%XK.d F.I..XP.P.F.' u X j W.W.!.!.p.M 8.z V p _ ' ' ' ~ w > u c y 4 0 q C.L.K.K.K.p.@.N.%X^.*X%X:Xq.j b ^.-X",
"<X<X<X!.!.C.0 h.*XT.K./ N N d.z.).#.;.0 t ! e J.I.K.~ u q M q 0 0 < B u t u wX!.Z w < 4 q p C.F.K.K.Z.Z.u T L.%X<X^.%Xa.2.] ,X%X",
"6X<X!.<X%Xf.j N.K.6.W q e H +X[.A B a.R.!.Q.L.t 7 y e M O.f.!.!.!.G.Q H y M @XW.%.w H r 0 % l.N.K.K.K.C.f u / K.!.R.K.d.N C.:X%X",
"0X%X!.,XZ.Q m M v q <.^.!.K.).F M C.R.%X!.&X!.<.N V h z R.eX6X,X!.!.6XG.k M I.#Xa.u B p d < 8.f.N.K.Z.N.t u z u _ ' / @.0 <.:X0X",
":X%X!.h.Y g v N M u R.T.R.oXh.N ~ L.!.!.!.!.&Xk.).0.a f.qX@XR.R.I.&XR.!.f.k r } v F u u o 4 M s.C.N.N.s.u w.O.z M #.M u A u K.-X",
"N.w.).u = h h u 8./ T.$XR.R.@Xy d.R.&XR.!.!.&XC.z d j N.@X!.R.&X!.!.!.I.Y.e w y 8.|.d d q d , k.f.m.N.<.#...T M &.a.R.^.K.r y f.",
"M V N e #.e v 0 0 T T.%X$X%X%XM f.I.%X!.!.!.#Xh.M w 2 t R.I.!.@X!.L.!.I.' X z v e N #.r.N N 4 / ' d.( u F.0X@Xr Y %X<X%X:X:Xs.V ",
"N q M u #.N M q e e K.R.%X$X!.0 f.!.!.!.!.!.&Xf.M N % #.M %.K.U.!.I.L.N.Q b F v 0 V 8.s.R.I.s.t t N u L.0X1XR.M 0 !.-X:X%X*X!.= ",
"H z Q W F d N H d M / R.!.^.,Xu / !.!.!.!.6XI.Y M J.*X:XL.z N O.L L t M z b.s.1.m m C.:X&X%X&XI.Q e t wX!.!.R.M #./ L.*X:X6X<Xa.",
"u q / y $ N u d 1 f q _ Z.^.K.u i.I.!.!.!.C.9 u N.,X6X@X,XF.B p , 0 w ' &X6X#X*Xe y.' &X&X^.^.^.!.u ( %XR.!.t O.O.;.$.N.^.%X!.8.",
"F N.K.K.N.O.r D D u # +.t P f M z f.G.L.6 # u N I.,X%X<X%X!.v z w e 0 *X@X,X!.R.y.y _ !.!.1X!.!.^.f.t ' ` %.$.K.^.!.%.[.Q Y u z ",
"N.F.L.G.K.V e m V 8., V M N ' m.r y /.:.:.u 0 t !.,X&X%X%XR.w z u v N f.R.R.F.W M v N F.I.!.!.!.!.C.d t #.Q !.-X%X!.%Xw.;.M [.= ",
"F.G.G.L.Y.$.#.I.%XL.d #.Q h.Z.C.4.#.r.B M # r t 1X!.!.!.R.~ H z 6.s.s.2.+.#.u ! !.L.#.d m.J.!.!.C.W O.#.M R.,X!.!.^.,X*.M 0.u.d.",
"K.Y.K.I.K.O.2.2XR.-X2.H f.Z.C.N.' r.M ..u z t 7 C.%XL.N.R Q M s..X%XR.R.N.d O.N.<X%XR.#.V O.i 0  .+.#.M s.!.!.R.R.#X!.D y y ..C.",
"K.Y.K.Y.U.q 4.*X@XL.0.F b.N.f.%.V V M 8.l y t u M #.N #.e.>.d.K.K.U.D.K.K.i.M N.T.%XR.W 9.7.I.K.Q q N u T.1X%XR.R.%Xx./.(.#.m.Z.",
"K.I.K.Y.K.N M Y 4.2.q.H e.i.I M #.B 8.; z r Y %.O.r +.w.&.M b.K.U.S.M.M.K.K.@.Q N.R.I.3.s.@XK.F.l.v.0.t %XR.I.R.R.f.N -.#.V Z.K.",
"Y.L.K.C.N.e b p , N e 1 % t 4 !.6XW.M N M r & W r Y *.t.*.N u N.N.N.S.K.S.6.p M d W 8 s P.C.Z.N.N.n.8.Q %XK.T.N.) #.7.J.u O.C.K.",
"K.N.| i.M 0 1 C.^.-XY.N M 4 ,X1X!.!.I.N #.# ^ R.&XT.^.a.2.M N f.N.C.K.F.N.2.N d y.M O.C.K.K.N.N.N.s.V q ' _ 4.N b ;.!.!.J.N d.K.",
"O.r M M z j g.^.!.^.6XK.1 4 <X!.W.!.%Xv u ~ 1X&X!.R.!.<Xf.t N e #.d.6.u q.O.M K.N.+.v K.N.K.h.N.x.).'.V V 8.N V ).8.Z.^.1X4.e Q ",
";.u C.C.#.E.I.%X-X1X!.%Xd # !.!.!.!.K.u M Y.&XR.!.^.1X^.K.d d 4 t 4 u t.t S.T.L.%.0 N s.n.N.d.7.].9.G m N N F 8.+X).W &X1XC.#.;.",
"y a.R.L.#.z %X%X1X^.^.1XM u m.L.R.Y.' O.o.K.&X#XR.!.T.R.^ #.R.1XR.C.V p 2.<.<.I u z 2.2.6.f.} d H m N p w F D A V 0.F ~ &XN.M d ",
"B I.Y.Z.U U 0X6X%X%X^.!.e r #.^ | ^ u w.6.~ | h.f._ W t e N.&X!.!._ m u M M u y V u m d ! N b *.C N b e % 0 9.m m.C.p.m W W 0 q ",
"%.I.G.C.r +.%X%X1X%X1XL.y ;.u V M &.#.M d t T M O.#.V d 0 Z.!.R.^ d #.O.0 2 # 0 0 u u @.;.M :XR.`.c w e u v J e C.K.C.h.S q V V ",
"W C.N.' O.O.!.^.,X*XR.' '.@.d 4 R.&XK.u %.Q y M i.K.K.f.a q Y ! p 0 X e ; z r % r T <XR.y u qX^.V 8.m u `.e 8.B ( C.Z.C.W F 0 V ",
"v W 7 V u M C.^.%XK.e.{.F v ! !.!.R.R.t T M u %XR.T.R.L.K.e e 0 G.+.% . h c ; . 0 g.R.%XE / %X X_.H J 2.M q N A 8.' N.h.^ V , V ",
"N a b p 0 M M ^ ^ ! d 1 v e ^.1X-X-X!.T z t ^.R.K.R.^.I.F.N.d I.@X#X+.w h h l % X.W ^.%XR y t.$.e e V B 9.N w M '.0.f O.f 5 v G ",
"% 4 d N M B 0.q *.6.F p , I.%X%X<X<X^.d M N.0XY.R.R.K.T.L.N.w &X@X&X!.j z c -.z w y N.R.# e b b A V 2.F d N ;.C.&X!.R.l.0 N N b ",
"N H N V 0.y N W wX,X%.q } !.^.,X1X6XR.B 8.R.-X^.K.K.L.T.L.' 0 !.#X!.1XN u y #.u 0 h z 7 j V t.B J B j B A ).N.1X6X0X<XwXI.m d S ",
"V '.[ b y q B I.!.!.h.N !.6XT.-X1X!.O.v j K.^.T.R.K.L.K.N.r w @X,X!.Q.t F.R.n.#.-.g.L.a.z V #.e v 8.+XV N {.L.0X!.^.0X1X6X! N N ",
"b V 0.q v 5.v #X!.!.i.w 1X6X!.!.^.` z ;.q.<.R.R.F.K.C.N./ e e !.&X1X!.Q F.F.F.e @.$X0X:XK.r.a 0.0 v #.M @.0 L.:X^.^.^.^.,XR.#.D ",
"J 0.V i.,X!.7 L.&X!.u e N.!.!.C.T o.f./ ).M ' K.C.d.i.d %.C.2.C.&X1XW.u ^ B.i.#.r.g.-X%Xi.p F 2.N V ,X:X&.;.K.*X!.%X%X^.%Xn.M V ",
"0.H T qX:X/ 8.e T O.V H.*.z r w y ,X:X*Xz ;.#.r Y t O.a.6X&X!.M !.&X^ B ;./ >.z 8.#.t V }.q.+.F V S.qX-X<.X.Z.<X&X%X%X%X*XF.v M "
};
