/* XPM */
static char *c713162b9b314d7cbec3290d95c7ab9fk4NRDjU4vslrYJC2[] = {
/* columns rows colors chars-per-pixel */
"64 64 192 2 ",
"   c #43572C",
".  c #4A5A2E",
"X  c #4A4734",
"o  c #4E4D3E",
"O  c #514E3C",
"+  c #435833",
"@  c #4C5A32",
"#  c #4E513E",
"$  c #4C5D3A",
"%  c #535C37",
"&  c #53533E",
"*  c #545C3D",
"=  c #476137",
"-  c #4D6436",
";  c #4D643C",
":  c #4F693C",
">  c #54633B",
",  c #5B643D",
"<  c #546A3D",
"1  c #5B693F",
"2  c #4D4F40",
"3  c #544E41",
"4  c #5B4F46",
"5  c #555443",
"6  c #5A5544",
"7  c #555A44",
"8  c #5C5A45",
"9  c #545549",
"0  c #5B564A",
"q  c #565A4A",
"w  c #5D5B4A",
"e  c #5E5D51",
"r  c #615745",
"t  c #615B45",
"y  c #61564D",
"u  c #625D4B",
"i  c #685E4C",
"p  c #635D51",
"a  c #685E53",
"s  c #546342",
"d  c #5C6344",
"f  c #556D45",
"g  c #5C6B44",
"h  c #5D624C",
"j  c #5C694A",
"k  c #537246",
"l  c #5E7546",
"z  c #5D7148",
"x  c #5D6152",
"c  c #626343",
"v  c #656D46",
"b  c #64624D",
"n  c #69634C",
"m  c #646A4B",
"M  c #6A6B4B",
"N  c #637346",
"B  c #687146",
"V  c #657844",
"C  c #64744B",
"Z  c #69704E",
"A  c #64794A",
"S  c #6D7C4D",
"D  c #646352",
"F  c #6A6553",
"G  c #656A53",
"H  c #6C6B55",
"J  c #63665A",
"K  c #6A6559",
"L  c #6C6C5A",
"P  c #726754",
"I  c #716C55",
"U  c #716759",
"Y  c #726D5B",
"T  c #677453",
"R  c #6C7354",
"E  c #697850",
"W  c #6D725B",
"Q  c #6F7C5C",
"!  c #737356",
"~  c #707A50",
"^  c #74735C",
"/  c #7A755D",
"(  c #75795D",
")  c #7A795D",
"_  c #6D6E60",
"`  c #736E61",
"'  c #796F65",
"]  c #6D7463",
"[  c #747462",
"{  c #7A7562",
"}  c #767A64",
"|  c #7C7B64",
" . c #7B7569",
".. c #767A69",
"X. c #7C7C6A",
"o. c #7E7E70",
"O. c #827665",
"+. c #827D64",
"@. c #82776A",
"#. c #827D6A",
"$. c #887F68",
"%. c #847E72",
"&. c #897F74",
"*. c #6D8050",
"=. c #6D8A50",
"-. c #718256",
";. c #75825F",
":. c #7D8265",
">. c #7E816E",
",. c #7D816B",
"<. c #7B8170",
"1. c #7D8274",
"2. c #848166",
"3. c #818865",
"4. c #82806A",
"5. c #83836B",
"6. c #83876B",
"7. c #80806D",
"8. c #81826D",
"9. c #83816F",
"0. c #85816C",
"q. c #84826C",
"w. c #86826E",
"e. c #84836F",
"r. c #83856D",
"t. c #85856D",
"y. c #85876D",
"u. c #84826C",
"i. c #8A846F",
"p. c #89846C",
"a. c #858B6D",
"s. c #858A6E",
"d. c #8C896D",
"f. c #928D6D",
"g. c #838170",
"h. c #838370",
"j. c #878170",
"k. c #808470",
"l. c #838773",
"z. c #848470",
"x. c #878570",
"c. c #858771",
"v. c #868670",
"b. c #858575",
"n. c #848674",
"m. c #848472",
"M. c #888570",
"N. c #898771",
"B. c #8B8773",
"V. c #8D8570",
"C. c #8F8573",
"Z. c #888474",
"A. c #8A8572",
"S. c #868A70",
"D. c #858975",
"F. c #878974",
"G. c #848A74",
"H. c #858973",
"J. c #888870",
"K. c #8C8971",
"L. c #898A76",
"P. c #888874",
"I. c #8D8874",
"U. c #8B8F77",
"Y. c #8B8A74",
"T. c #85877C",
"R. c #8B8679",
"E. c #858A7A",
"W. c #8C8B79",
"Q. c #918D75",
"!. c #908F78",
"~. c #938F7B",
"^. c #948D79",
"/. c #918D7A",
"(. c #8D9275",
"). c #8F947B",
"_. c #8F957C",
"`. c #8D917A",
"'. c #929075",
"]. c #95917D",
"[. c #95937D",
"{. c #93927B",
"}. c #99957C",
"|. c #98977D",
" X c #8D8C82",
".X c #938F80",
"XX c #8D9180",
"oX c #949480",
"OX c #989084",
"+X c #979D84",
"@X c #9C9884",
"#X c #989988",
/* pixels */
"F P r ^.#.O.Y Y { { @.#.X.X.@.#.F / } [ } ,.,.} ^ } } [ D L } X.X...n.X.1.>.X.} r.| 5.} u [ #.} | w.c.M.M.M.( h :.| w.I.#.Y 0 n ",
"/ I 8 C.j.O.{ { @.@.X.X.{ { @.w.D D w 0 w w 8 w h q h J D h D w L G K K K K K G G G b w w L { L  .{ ^ X.8.4.~ > 3.5.C.~.Y.4.u Y ",
"Y F u #.%.@.#.#.#.@.{ K / / @.X.u H Z.>.[ X.} h ,._.D.>.>.X.} [ w W W W K L G h } } [ 8.#.X.} { } [ F [ ^ [ m $ *.s.I.].y.p.w b ",
"F F 8 Y Y Y ` Y Y Y u u i H Y G b ^ | c.>.>.,.G ).G.D.h.l.X.n.W u r.} | { | 1.D L h.c.w.c.c.h.>.w.8.L | X.} L 8 R I.M.~.Q./ u b ",
"| / Y F F Y Y Y Y K F w 5 5 5 6 0 ^ y.y.c.,.>.G U.c.P.H.D.n.l.L h X.X.X.} ,.c.D X.#.P.n.,.w.X.y.D.X.F L h.c.^ w / I.~.].}./ Y ^ ",
"h.I.I.M.#.A.R.Z.w.w.,.b 7 b D D w W w.,.y.X.| D H.Y.L.c.h.1.H.L b X.} X.} >.>.D [ ,.y.c.X.>.| s.X.Y K Y M.L.I.w I.~.I.^.[.w.G / ",
"y.p.Q.^.I.P.R.b.R.| ( g % H H G i F #.s.Y.5.} b s.4.y.,.X.h.X.L d L { X.X.X.X.w D [ ^ L H K Y L K G L { W.I.U.u I.K.M.M.}.M.^ M.",
"I.y.I.I.P.W.W.R.Z.#.a.v B v F H D t [ I.r.y.,.G } / I.y.X.[ Y G g h H X.} X.[ x X.} 8.L H c.r.^ Y 4.L / W.M.M.u Q.M.p.2.I.s.^ Y.",
"4.4.w.#.{ { {  .{ #.R < . D Y F u 8 [ X.X.5.X.g R ^ / / L J b G d G L ..[ >.} x } | y.y.b H.} | >.{ Y X.I.Z.~.w 2.2.H Y | :.R ! ",
"8 r t 8 8 8 0 8 8 8 8 s > H L H D 8 | ~.~.5.m $ y.y.#.X.L K >.W 7 R [ L } X.[ x ,.l.:.Y.b D.>.h.D.n.Y M.I.C.Z.6 F D u t m m > d ",
"^ / u ~.w.| F H w.h.| j * F L F D b | Y.I.y./ b s.y.+.} } ,.[.X.q } } X.L } _ w } y.y.y.F h.>.c.W.n.L [ #.M.{ { P.:.{ { I.! m h ",
"| ! t M.y.w.#.j.j.h.4.j < F H Y F H X.~.I.h.} D y.#.| | 2.I.H.L 5 [ K W [ L D p / | ,.{ b 4.,.I.U.y.F 4.c.j.Y G 8.I.p.K.I.| ) ) ",
"p.^ t { 4.2.w.M.w.y.y.h b L H F I Y 4.4.w.X.| u 4.Y.2.8.Y.I.s.] 9 D D D b D h D H H b 0 0 [ 8.Y.'.w.H y.y.c./ G { 2.p.2.$.+./ / ",
"2./ t F / M.M.A.M.I.2.b b H H t D H 2.+.4.| { 6 H +.4.8.I.Y.H.W 7 `.8.>.H.U.s.r.4.} X.[ G [ 5.I.W.8.D / w.X.X.[ { / / / / 2.#.+.",
"b b u I Y +.M.U.I.2.) G 0 w t b C =.F H H Y F # D #.I.'.`.'.U.{ q h.W./.W. X.XH.h.,.X.w.G X.>.I.I.,.0 D u D u F b b u u b b D b ",
"} I 8 I ! ) p.Y.I.) { w M ^ F M ) R ! { { | | 8 Y.I.I.Y.{.Y.j./ 0 ` L.R.n./..Xh.h.4.4.8.D ^ D.Y.h.[ 5 5 5 6 6 0 w 8 w u 8 X.8.| ",
"| w.8 ! $.+.p.Y.I.4.:.R / +.) :.| 2.2.| w.2.#.0 4.w.H.U.c.b.#.L 0 } j.@.j.P.R.c.h.I.c.[ D #.y.I.8.#.& 5 6 5 3 3 0 u b D t X.p.+.",
"y.+.8 | { | C.I.c.4.| H ^ / | p.d.4.2.#.p.w./ u | +.+.2.X.j.Z.X.w %.b.Z.#.h.b.Z.#.y.w.| b {.I.U.8.,.O 5 w u w 8 b D F F p H +.C.",
"/.Y 8 L { I { | #.| H D H / / +.p.+.#.p.2.#.| u 4.$.2.| j.I.W.8.w X.Y U K K  .' Y [  .X.D `.U.#.X.,.# 2 5 w h D D D K H D Y A.^.",
"R.Y 8 8 t t w u w u i u w / { { [ / | 2.{ p.+.c H F H D L `  .W 7 d 5 5 4 4 4 5 5 6 5 0 0 D b b h 8 d 5 w b b b H H H b u [ i./.",
"Z.#.8 H p.+.b #.4.Y { { b H / { { / +.+.| $./ > g H ^ F D K Y ^ G h >.Z.` [ Z.p P.D H |  .[ ^ 0 L R G w D b D 5 b H H F i  .#./.",
"Z.p.0 w  .A.w.I.Y.M.#.X.Y ^ +.@.| / { { / / / , H.I.2.y.#.n.M.j.h.w h.L.w. .Z.u #.X.X.4.X.X.>.w oXI.y.4.5.8.X.D L H.w.w.F { R.W.",
"R.[ 8 4.| @.C.I.I.Z.#.} b u F H b u b b t b n m | I.d.y.I..X/.R.[ p #.].j.R.A.0 o.} b.#.X.j.P.w y.`.U.I.Y.I.8.D ,.c.c.2.{ { O.w.",
"j.| w 2.p.#.Q.y.I.w.| { 6 M.w.^ I I.{ H 2.2./ H ( I.M.M.I./.oXOXX.a L &.&.b.%.e X./ X.} } n.I.u H.>.`.U.y.#.H D [ y.A.+.{ ` R.A.",
"/ ^ > V S / / P F { / F w w.| +.y.2.| F '.f.Y.| { W./.I.Y.W.^.^.R.p ' %.&.Z.L d R R ^ v D ^ } b 2.G.Y.'.c.4.{ D L c.A.@.| F { X.",
"8 b > @ M 8 Y { i F R.[ u U.y.#.p.| r.F +.Y.'.| G w.w.p.I.~.^..X Xa  .&.A.#.W , 1 - $ > , X 6 5 W.U.{.'.P.I.| D  .j.A.A.X.3 3 6 ",
"u b b v b 6 F @.A.@.#.{ b ,.y.Z.4.#.w.i w.~.{.| H | +.y.I.P.W.L.Z.a &.@.%.r.^ , d 1 & > b D b 0 X.8.U.L.I.P.X.D { R.A.A.| & 6 w ",
"D u b b u 8 ` #./.R./.{ w I.y.c.y.2.4.b #.w.c./ { ^ #.+.+.#.Z.#.X.F &.%.&.I.^ > 5 w w F b D h 7 { X.w.X.[ #. .D ` M.Z.w.^ 5 0 t ",
"p i D i u t { c.Z.w.R.@.u p.c.y.c.w.w.u / | +.Y ,.| | | | | Y [ X.u #.R.%.#.} > * 0 D H F D s + R } L D Y ^ [ D Y X.Z.M.^ 7 0 0 ",
"i i F F t t { { #.M.j.{ t M.I.c.w.w.j.b D b b b u u p b i i D w p 6 j.[  .[ G 5 8 w w b w h ; < < ; D Y H L Y u / X.Z.w.H & 0 t ",
"8 8 0 u u 8 Y @.R.R.w.{ 0 c.P.I.I.y.P.b I.| 2.#.#./ O.p.| H Y X.%.K F p F F D D 5 6 u 9 3 :.(.a.Y.} w X.#.b./ D [ X.p.M.^ g O 6 ",
"I +.i u { / p  .#.j.A.@.t w.M.I.p.w.8.n #.| 2.I.p.I.2.+.8.d.Z.#.h.L } { b.W.#.%.@.#.j.Y w s.:.(.6.X.D | X.j.8.D X.#.%.w.+.t I.| ",
"#.+.} { { Y i { #.X.@.Y t  .8.I.w.#.^ 8 / | +.2.d.Q.M.I.5.5.y.M.y.H } `.Z.P.%.E.L.j.P.X.w | 2.Y.p.j.D {  .X.X.u #.#.w.p.) u y.+.",
"+.| +.{ / Y K Y #.#.@.K t w. .} / { / w / ! H F H ! ^ / [ | ^ r.8.h w L.E.w.b. XR.X.U.:.h W #.W.Y.X.u [ Y H Y 0 [ Y / Y b t +.i.",
"p.O.| | +.{ / Y @.#.#.Y 8 6 6 5 7 8 6 8 t 8 8 7 7 7 6 0 * N h w 0 8 L X.n.X.b.h.Z.c.5.^ m -.,.{.].{ 5 D K L L Y Y L Y Y H 8 p.C.",
"w.O.{ O.2.{ { j.#.A.%.{ 6 u F b h u ^ I.} | :.D C ( / R R # h h 8 0 0 u p p p 0 5 5 6 k A ;.| ~.[.#.0 | 8.M.P.M.A.#.#.| [ i / R.",
"p.2.+.+.$.I { A.R.W.j. .0 i F H H b ^ I.U.~.4.H | | { [ | b d.+.Y { +.p.#.@.X.3 3 5 w b 0 [ ( ].{.8.u  .} | #.#.w.j.Z.#.| i #.#.",
"d.| | { $.I Y  .Y H ` L 0 u F F D b L I.P.I.) G 2.{ | w.X.H p.2.$.#.w.M.c.w.| 5 5 0 b b w X.X.h.~.X.w K F X.8.X.4.w.A.j./ w 2.2.",
"I.y.2./ | F 3 5 i u 0 6 6 5 8 8 u 0 D H D.I.,.H p.$.#.w.^ F $.2.2.2.2.w.c.c.H 5 6 b D u w ,.8.8.W.y.0 Y X.8.#.X.y.Z.j.A.| b 2.+.",
"d.d.p.{ | F F | #.X.X.| | | | K L G 0 / 4.P.w.H 2.w.M.p.#.I / +.+.| | w.c.y./ 5 8 F H D u #.4.,.h.y.w X.w.#.c.>.w.c.h.| } v :.2.",
"^ / | ^ H F F X.#.#.#.8.| | | / / H [ | s.y.X.D F { #.) | H / | | | ! 2.w.c.| & 8 F b D D #. .D ^ X.0 W ,.Y h.,.r.s.X.W ( @ S ( ",
"0 b Y F K F L L  .X.P.#.#.#.{ ^ | G { >.| j.#.Y F u H H b 8 b t u , m b b u 8 d & 5 5 5 0 L w 0 w > f d w b G < T W H H G ; b w ",
"u `.~.].'.w.[ L L |  .X.Y Y Y [ Y H X.j.X.I.4.Y t 2.y.y./ { +.{ | Y s.2.2.) 4.8 G 2.2.+.2.+.2.G > s m G H H G z ).+X,.8.5.5.I.8.",
"F | ~.'.].M.D b b p w 0 u D D u u b  .M.8.I.#.b #./ 2.| / +.+.2.I.^ 2.} X.| 4.f 2.{ 2.2.2.d.2.4.l * b L [ W G h Y.c.U.L.D.D.Z.P.",
"F w.'.oX].| F 4.Z.y.j.[ I.4.8.c.4.} X.M.Z.M.4.b | | 2.p.w.w.C.I.M.{ | 2.#.2.:.8 G :.2.2.2.p.2.:.H 6 b D L K G D Y.Z.P.X.#.} h.j.",
"D 4./.oX{.R.D  .I.n.~.n.R.P.Y.L.~.,.{ w.I.j.+.F { | 2.y.I.C.C.{.].^ #.$.4.y.4.w H ^ +.| p.2.5.) ^ w w D H L K D #.c.X.| #.8.2.{ ",
"D I.I.@XY.M.D c.M.j.R.M.P.D.W.L.I.w.H #.I.P.{ b { 4.#.d.I.p.i./.W.L +.2.#.2.+.u / +.| +.p.2.4.#.[ 0 p H L / L D h.c.h.4.Z.P.~.W.",
"F I.P.].].c.F b.M.#.w.c.n.L.c.h.P.w.H } M.w.+.G I 2.w.y.p.p.I.M.j.L #.| | 4.#.u [.2.| p.2.2.{ { / 0 u H ^ L L D 4.8.h.M.W.U.W..X",
"L I.R.I.I.n.H | j.w.#.8.h.I.h.8.W.w./ Z.I.Z.#.D 4.2.2.| +.w.w.X.I.Y / +.+.2.X.6 y.2.+.2.2.| +.| / w u D D L L w L 8.W.M.W.c.n.W.",
"Y w.h.n.j.#.L w.M.#.#.X.j.L.h.#...} Y #.M.Z.2.F y.2.+.2.{ j.w.C.y.I #.| 2.+.@.6 Y | 2.2.p.i.4.2.{ 6 D D D K L w G { X.[ X.#.h.L.",
"F h. .| j.} D / X.w.#.w.j.n.n.>.X.X.D j.M.w.,.b { | #.{ { [ | | +.H / 4.X.^ | 6 F / 2.2.y.i.p.+./ o w D L L H d G ,.X.| [ c.M.#.",
"F  .4.8.Z.h.u / Y } [ Y [ | [ ^ [ } D ^ [ [ G Z d d c d d w u u u c ; w w 8 t 0 | 2.p.f.2.p.p.+.^ 3 O 5 0 w w j , d [ } } } X.[ ",
"3 O o & 6 5 & 3 D D D D u F F F 0 D D D 6 6 7 8 0 6 0 7 g P.M.:.w.2.5.4.8.+.#.0 ^ 2.2.d.+.#.#.| Y ^ M.8.+.| X.:.,.^ I 5 5 5 5 6 ",
"F p o p D F D 0 } X.X.b.b.c.Z.#.#.#.h.} 0 w w u w b G D w Y.I.y.2.8.I.2.2.A.X.6 / +.| p.#.2.2.+.Y Y X.w.$.#.w.y.y.5.L.p 0 D D H ",
"D D O D F L K 0 h.y.#.h.Z.#.w.P.h.M.c.| 8 u b D Y Y F L u L.#XU.w.w.j.Z.Z.U.w.0 2.2.$.+.+.4.2.+.^ u ^ 8.b.X.#.c.w.y.j.u b F H L ",
"F H 5 b Y Y H w Q X.U.j.#.j.j.#.X.w.{ X.d m b D L L D F w n..Xw.4.j.Z.h.j.c.h.u p.2.+.) +.#.p.| Y L [ | j.X.#.X.w.w. .i D H L F ",
"L L 6 F H L L s ; G | { { { L Y Y ^ ^ R N d m F G K L G w >.E.j.c.n.P.j.M.y.#.b 2.2.2.+.#.p.i./ H ^ A.j.j.8.X.#.X.#.} b b Y H L ",
"K K t L [ L H b - h D p F K F F b G H G g v G G G [ [ G 5 g.D.D.E.E.n.n.#.w.| m T 2.2.2.2.p.i.2.^ F | n.h.X.X.X.X.>.4.m b H H L ",
"H I 0 G H L L h ,.(.I.w.M.~.W.].| y.H.2.H.U.:.,.D.W.h.`.D [ ] { h.n.X.| / { ( = : m | | | #.4.w.Y u ^ h. . .%.X.w.X.:.d d E N b ",
"w b g C G W Y b l.`.~./.~././.'.#.} Y.U.n.h.X.X.E.XXh.W.D w w D F b 0 w u u m * 1 $ w 0 8 0 t 0 8 w 0 w p w b u F H m f <   * d ",
"^ ^ 8 m G ^ L u | I.I.#.X.w.c.4. .| 4.y.n.h.h.h.E.E.X.>.x ..X.W K W [ L W } } W Q W ^ [ F y.n.P.y.H } 8.j.4./ u { p.) 2.( > E ^ ",
"p.| b D D Y L t [ #.X.| {  .| | / 2.#.#.n.X.c.E.1.D.X.} e [ X.] [ X.[ [ X.8.r.4.5.:.} | p 8.j.w.4.X.| | #.w.#.L {.'.K.K.Y.p.d.Y.",
"2.Y u 6 i p y 0 t p F D a u p b G #.c.X.U.n.X.E.h.E.X.X.w L o.[ X.1.X.X.o.c.c.5.4.,.+.#.w Y [ | | 4.4.4.w.8.#.K s.4.w.M.w.s.w.y.",
"6 6 6 F %.{ { K Y { / K u p / { b X.D.h.W.c.>.n.n.L.D.h.w [ } X.<.>.n.n.o.8.c.y.r.H.I.4.w [ #.#.X.+.| | j.#.[ u w H Y Y Y L 0 & "
};
