/* XPM */
static char *_8e2f53f2b0b4a48c5225b2d49830c910CfSE7AOw7lqgjOx[] = {
/* columns rows colors chars-per-pixel */
"64 64 256 2 ",
"   c #533238",
".  c #6A3E35",
"X  c #7A4A3A",
"o  c #724D3C",
"O  c #523740",
"+  c #6A4746",
"@  c #764B47",
"#  c #69544A",
"$  c #73524C",
"%  c #7C554C",
"&  c #7C5A4A",
"*  c #695A56",
"=  c #7C5452",
"-  c #7C5B54",
";  c #775A58",
":  c #764F54",
">  c #79644B",
",  c #75645C",
"<  c #7B635B",
"1  c #6C615B",
"2  c #795C61",
"3  c #7A6865",
"4  c #7B6E6D",
"5  c #5D424B",
"6  c #84503E",
"7  c #8A713B",
"8  c #845343",
"9  c #845B4C",
"0  c #8B5C4C",
"q  c #885549",
"w  c #925A4C",
"e  c #835C54",
"r  c #8C5A54",
"t  c #835E5C",
"y  c #8C5D5A",
"u  c #875654",
"i  c #935D53",
"p  c #945D5A",
"a  c #854F4A",
"s  c #88674C",
"d  c #95664C",
"f  c #95764D",
"g  c #856253",
"h  c #8C6353",
"j  c #8C6C53",
"k  c #83625C",
"l  c #8C645C",
"z  c #8C6B5C",
"x  c #856B5C",
"c  c #936454",
"v  c #946B54",
"b  c #9B6C55",
"n  c #94645B",
"m  c #9B655C",
"M  c #936C5C",
"N  c #9C6C5C",
"B  c #9B6454",
"V  c #8D7456",
"C  c #947355",
"Z  c #94735C",
"A  c #9B745C",
"S  c #947B5C",
"D  c #9C7C5C",
"F  c #997955",
"G  c #8D7449",
"H  c #A26C5B",
"J  c #A36959",
"K  c #A3735D",
"L  c #A47C5C",
"P  c #A67A59",
"I  c #8D5D63",
"U  c #846362",
"Y  c #8B6463",
"T  c #8C6B63",
"R  c #8C6C6B",
"E  c #856A67",
"W  c #946563",
"Q  c #9A6563",
"!  c #936B63",
"~  c #9B6C63",
"^  c #956D6C",
"/  c #9C6D6B",
"(  c #9A6569",
")  c #8E7263",
"_  c #89756A",
"`  c #947363",
"'  c #9C7463",
"]  c #9C7B63",
"[  c #94736B",
"{  c #9B746B",
"}  c #957A6C",
"|  c #9C7B6B",
" . c #957964",
".. c #956D71",
"X. c #887675",
"o. c #937473",
"O. c #9B7473",
"+. c #9D7B74",
"@. c #967B77",
"#. c #8A6B70",
"$. c #A36C64",
"%. c #A26D6B",
"&. c #A26566",
"*. c #A37464",
"=. c #AC7464",
"-. c #A37C64",
";. c #AB7C64",
":. c #A4736C",
">. c #AC746B",
",. c #A37B6B",
"<. c #AB7C6C",
"1. c #B27E6A",
"2. c #A36E73",
"3. c #A37473",
"4. c #AB7574",
"5. c #A37C74",
"6. c #AB7C73",
"7. c #A47C7B",
"8. c #AC7D7C",
"9. c #A9767A",
"0. c #B37B74",
"q. c #B47C7B",
"w. c #B57976",
"e. c #9D825C",
"r. c #9A8157",
"t. c #A7865C",
"y. c #9C8264",
"u. c #9D836B",
"i. c #9C8577",
"p. c #8B807E",
"a. c #A48364",
"s. c #AB8465",
"d. c #A58A64",
"f. c #AC8B64",
"g. c #A4846B",
"h. c #AB846B",
"j. c #A58A6B",
"k. c #AB8B6C",
"l. c #B3846B",
"z. c #B28D6C",
"x. c #B48967",
"c. c #AE926C",
"v. c #AB9163",
"b. c #B4936C",
"n. c #B89569",
"m. c #A48372",
"M. c #AB8473",
"N. c #A68A73",
"B. c #AC8B73",
"V. c #A3837B",
"C. c #AB837B",
"Z. c #AC8C7B",
"A. c #A48C7B",
"S. c #B28473",
"D. c #B38B73",
"F. c #B4847C",
"G. c #B38C7B",
"H. c #BB8B7C",
"J. c #BA8679",
"K. c #AD9273",
"L. c #AC937B",
"P. c #B49373",
"I. c #BB9474",
"U. c #B4957B",
"Y. c #BA947C",
"T. c #BB9B7C",
"R. c #B79A77",
"E. c #BBA178",
"W. c #C39A77",
"Q. c #C19073",
"!. c #C3A47B",
"~. c #B07F81",
"^. c #8E7E81",
"/. c #9C8583",
"(. c #8E8482",
"). c #AC8482",
"_. c #AC8C85",
"`. c #A58784",
"'. c #B58483",
"]. c #B38C84",
"[. c #BC8C84",
"{. c #B48D8A",
"}. c #BB8887",
"|. c #AD9587",
" X c #B49382",
".X c #BC9584",
"XX c #BB9B82",
"oX c #B4938B",
"OX c #BB958C",
"+X c #BB9B8B",
"@X c #B59A88",
"#X c #BC9C93",
"$X c #B89792",
"%X c #AA9794",
"&X c #B9A288",
"*X c #BAA595",
"=X c #BFB09D",
"-X c #C38C87",
";X c #C3958B",
":X c #C39C8C",
">X c #C69786",
",X c #C39C95",
"<X c #C79793",
"1X c #D69C9A",
"2X c #C4A28C",
"3X c #C7A68A",
"4X c #C5AB93",
"5X c #CBAC99",
"6X c #C7A598",
"7X c #D5A99A",
"8X c #CDB39B",
"9X c #C7B499",
"0X c #D4B49B",
"qX c #D7BA9B",
"wX c #CEAC8B",
"eX c #CAAAA3",
"rX c #D4AAA3",
"tX c #CCB3A5",
"yX c #CAB7A7",
"uX c #D2B4A3",
"iX c #D4BBA3",
"pX c #DCBCAB",
"aX c #D8B8A8",
"sX c #D6BDB3",
"dX c #CEBDB1",
"fX c #E3B8A9",
"gX c #E5B4AD",
"hX c #E0AC9E",
"jX c #DAC3A8",
"kX c #DBC7B5",
"lX c #DDD0BD",
"zX c #E4C7AA",
"xX c #E4CBB4",
"cX c #E7CAB9",
"vX c #F3CBBB",
"bX c #E8D2BA",
"nX c #F2D6BC",
"mX c #E1C59E",
"MX c #E8CFC2",
"NX c #EAD3C3",
"BX c #EAD7C5",
"VX c #F5DAC6",
"CX c #F8DCD5",
"ZX c #ECDCD1",
"AX c #F8E4CB",
"SX c #FDE4D2",
"DX c #FEEAD5",
"FX c #FEECDB",
"GX c #F7E3D6",
"HX c #FFF3DB",
"JX c #EEE1D0",
"KX c #FFEDE4",
"LX c #FFF3E3",
"PX c #FFFAE9",
"IX c #FFF9F5",
"UX c #D9C8C0",
/* pixels */
"4X0X6X6X,X_.oXoX#X_.oXoXOXOX'.4.J.>.0.0.-XF.6.M.,.m.B.g.g.,.M.H.H.;.9 0XLXXX] g.,.-.s -.I.t.s.L L v c -X7X*.K K l.l.l.Q.n.n.t.G ",
"N.g.| ].OXk T [ V.[ [ T | 5.n Q $.m $.H.<.,.M.| ,.,.B.g.g.B.M.h.D.l.Z 2XnX .g ,.D.*.<.;.b d L L L <.0 F.>XJ.;.l.b K L x.W.n.b.b.",
"U.U.g.B. Xz } [ T ) z & M ,.n n c *.n ,.*.*.H.h.' *.-.D..XU.N.B.S.h.M Z.fX} M g.<.N <.b d b P K *.n q ;XF.S.l.l.;.;.P b t.z.I.W.",
"g.j.| +X+X[ [ T x ) $ & 9 g h g g 9 & ,.G.0 c c ' S.N M..XM.g.B.,.{  .C.6X` ! 6.:.>.$.w w w H B u a u %.a i S.*.;.<.;.L s.R.B.-.",
"m.m.m.+XoX[ R < T k + % @ o % e - $ < +.5.! :.n n :.Q ~ ,.B.Z.Z.+.^ @.oX{.7.C.;Xq.4.4.q.q.4.q.%.( &.9.}.9.( q.}.[.H.M.B.G.aXcXxX",
"Z.m.].#X6X`.@.U E - U t = Y Y T o._ @.|.`.[ y n y u %.6.5.OX+XoX6X).7.OXC.C.'.F.<Xq.-X1X7X'.Q %.2.2.3.'.2.I ..9.}.[.[.rX,XpXnXVX",
"cX+XOX#X#X@.R o.; 2 o.k E `.O.R p.%X/.@.i.+.^ 3.( u ( '.OX).C.].].m.{ m.' *.<.<.>.0.0.-X0.n q ,.m.& o & +   + Y y ~ *.H.m s F L ",
"uXZ.V.V.`.i.E E : ; t ; ^ o...o.3 4 3 4 X.U E t t Y @ / [.! :.5.M.M.| ,.*.*.<.*.=.<.N H.c q N M g j > # ,     + e :.>.J.H 0 P x.",
"g.| V.} _.`.R ; $ + t k Y k ; E 3 * 3 _ , * , $ ; [ t e ~ ~ Q *.| M.M.h N -.*.*.*.N ' ' 9  .g & > > > > , ; 5   t y 6.;X*.b P P ",
"G.m.m.) } } E # $ $ - t [ T ; < _ _ 3 3 , * 3 , < < - % :.0.n m ' ,.G.,.m *.*.N :.*.' o ` }  .)  .x x ) X.E 2 @.. ! 3.F.:.<.h.s.",
",.,.5.+.@.@.R + + $ t T +.R < ; 3 X.3 1 3 1 3 1 , , < = W 6.$.$.~ { 3.8.:.:.~ / 3.{ k _.oX@.@.`.).7.o.R #.; O ; + R ^ {.).T u.*X",
"C.C.[ o.[ o.E : $ + = Y E U o.E 3 E 4 X.p.(.X.X.X.X.; $ Y 8.}.4.4.8.3.4.'.3.W 5.).k i.*X#X|.`._.).7.)._.%X`.@.o.U Y +.6XrXeXkXMX",
"rX6X7.@.@.o.R R ; : t ..#.R /.X.X.X.* ^.4 4 4 3 4 #.3 - t 3.~.4.:.5.:.4.'./ ( C.T x _.i.|.i.V._.C.V.#X6X/.< _.oX` e :.<.G.6XcXcX",
"OX$X7.V._./.R o.: = ; Y ..E #.3 3 3 * X.X.1 4 * 3 * E E U ( W %.n h m 6.F./ / ^ = } x A.A.) u.Z..X| +.|._ # i.} % 8 *.N K v *.Y.",
"5.{ T T o.@.E R t = = t U ; 3 3 ; ; 3 4 X.* 3 * , # < k z ~ l h ~ n Q 6.q./ l % ; ; - x x ) Z j a.-.} _.i._ i.[ e n $.b l.x.x.h.",
";XC.{ T [ @.R ^ $ + t ! t : ; ; ; < _ 3 * 3 * , # # # # $ e l e n { W 3.4.( = @ ; E } +.[ z z Z j ] } |.A.} T T = n i $.1.I.D.] ",
"5.5.Y ^ o.+.o.7.Y $ t U U t U 3 R E k ; 3 3 , 3 3 * * $ ; g [ e l { ^ / ~.u $ R V.).O.^ O.R @._ o.o.R oX$X@.O.y %.q.&.%.[.6XeX#X",
"].C.5.5.^ +.O.[ t $ = Y R - ; R ).O.[ T ; ; , , X.4 X.@.x g ! Y T 5...9.I + R +.t Y ^ 3.O.{.eX/.@.@.o.$X6X].].J.J.;Xw.$.;XpXNXBX",
"aXOXG.5.} C.C.5.! % = k - k R R 5.V.5.T T R x x E _ `.|.[ ! { 3.T ^ 5.W + = T T Y ).3.O.O.).@._ } ` ` g.B.h.<.H J K =.J h.B.XXXX",
"Z.| ' M m.m.` { ! % % l e { V.[ - [ | ! [ } ) ) E < T T l ! ~ ! = = ! @ % l Y l 5.C.C.F.8.{ T  . .Z B.M.A A *.J B J J B D.z.d.k.",
"] ]  .g Z Z M ' l e % e % e $ + % % ! | Z z z ) x - ! z ! ~ N c M g & & n q h ' G.D.H.>XJ.*.| | | ` m.| 6.<.c q =.$.0.1.A -.P.B.",
"| ] ] z z  .5.~ ! n y l l { C.+.| ` { | | ' M ` T e ' ' 6.~ B c ,.g 9 n n ' ' M.G.D.H.1.1.H.3XT..X5X:XM :.:.m 0.0.$.-XhXH.D.wXqX",
"MXsX#X`.V.V.{.8.9./ ( ^ ^ {.rX6XZ.oXZ.| M.G.,.C.OX{ ' ' :.:.m B q @ q m n H.F.;X<XJ.J.>.K >X7XD.B.:X:X6.;XF.$.w.0.0.=.H.3XP.T.qX",
"sXtX_._._.{ 5.8.8.3.W W 3.{ 5.+.) [ V.+.M Z { C.5.{ <.*.Q Q w i q r u m p c :.6.H.H.N c 1.>Xh.h.h.v -.S.-XN p 0.0.<.S.l.z.d.!.b.",
"4X&X XZ.+XM ' :.*.~ *.c v <.g.] } } `.5.| ' 5.5.{ { n ~ ~ Q B w w q i $.m q 0.$.*.N b d K -.D.-.*.A *.D.>X<.$.N *.*.h.k.z.R.E.v.",
"&XZ.| m.G.M ' ,.*.*.;.v X b a.h.z T $X_.Z.Z.| l ! n 9 n / %.n a J i q.>.i B $.0.S.K c 0 *.C C h.*.*.N *.H.*.i B c ,.| C y.P.R.e.",
"oXV.Z.#X+X{ 5.].F.6.F.*.N N H.M.+.i.eXeX` ,.l 5.[ { { 6.:.%.%.m &.p q.-Xm %.%.$.>.$.<.~ Z Z ' -.' ' 6.:.-X:.:.~ F.6X,X+X Xg.g.j.",
"xXcXVXSXxX#X#X,X;X;X[.;XS.X :XvXcXoXOXZ.m. X| 5.].oX{ :.[.'.Q $.w.w.1X<Xa n 6.$.m :.<XuX:X X6XfX.X6.[.gX<X4.3.'.rXCXLXFXSXSXVXnX",
"3X4X0XaX2X X].M.C.,.-X-X*.N 0 .XOXZ.G.| | g. .]  .` ,.C.~ $.>.0.J =.>X*.@ ,.S.*.=.J.S.2X3XY.D.S.M.N >.>X<.n $.H.;XpXPXDXxXxXqX8X",
"L -.g.k.a.N.B.| M <.S.<.N N X X 9 ' -.-.Z v j ] j g ! :.N $.$.>.=.=.b v S.Y.h.H H H.S.D.D A h.K *.*.=.8 i q *.*.h g.VX5XS K.y.S ",
"W.n.R.b.k.j.k.a.g.A S.H.J.*.c c ' M -.D B.] g.k.j.Z { ,.N =.H w =.;.v a.2XD.S.H.J.S.h.Y.Z v ;.=.b J w q w d K <.-.j zX3Xy.j.y.j.",
"c.D D D ] S ] ] ] M S..X*.<.c c *.N K *.| G.B.g.S g.{ ! *.<.i m i c M.M.,.M q c F.F.6.M.` ' c 0 B B J J B B K b ] Z bX&XS g.j.j.",
"kXeXkX6X6XoXeXtX#XOX5XaX6X<X;X4.%.q.q.6.3.{.oX_.+XoX`.,X8.%.4.'.6.).OX).O./ 8./ ).).,XeX{.7.~.Q H J H =.m N N ' S L.ZX@X) u.g.j.",
"MXsXkXGXsXV.tXeX#X].OX6X:X7X7XH.0.-X-X:.F.].oX+XOXoX_.].{ 6.;X-X,X,X].OX<XOX).{.$X6X6X,X$X,X6X6.>.J >.&.F.rXSXSXAXDXPXKXVXbXVXSX",
"U.N.y.xX4Xj L.] ] -.k.D.h.z.I.l.J =.Q.;.S.g.| g.N.g.] A ' <.<.*.M.:XG.g.<.| Z h.U.P.A ] -.h *.<.B J 4.>.>X:XzXzXjXbXkXcXxXjXjXqX",
"K.&Xk.jX3XS g.a.a.-.a.s.x.x.s.P J d ;.K d b A D D y.a.C -.L L z.] B.XX] a.D -.D C a.j j v s d 1.K =.n F.k.s Z y.r.e.] N.g.k.d.v.",
"P.T.g.qX2Xh.a.-.h.h.-.h.D.x.h.l.;.d J K d b L a.L a.s.C D C C D ] N.&X] m.Z z g S N.A C A K 8 w 1.;.c 7X3Xe.j.k.b.v.I.P.s.b.t.t.",
"g.P.P.vXXXj ' ] Z A ' -.<.*.' h.*.d c c b c v v A j v v C j C j > A.@X} } ` g T ` ` M ' *.*.q B H 0 ! fXwXS K.j.d.d.s.s.a.j.t.7 ",
"aX8X4XSXbX4XuX8X5X5X5X8XpXiX5X6X;XF.:.~ ~ 4.F.6.5.C.C.Z.].Z.,XuXoX*X6X_._.oX+.+.O.+.3.W W Q p u h { eXKXNX|.L.i.L.K.B.2X5X2X3XwX",
"nXzX3X0XqX8X8XqX9XuXuX8XuX8X4X2X,X[.%.6.y }.7X}.rXCXvXaXcXaXuXpXsX+X#X#XoXoX).).).).].O./ ~ :.u { rXCXKXFXAXxXbXbXAXFXKXDXVXjXzX",
"f.f.b.d.d.d.e.e.y.S XXj.j a.g.h.h.<.<.S.S.0 X q H.fXG.D.G.Z.g.K.B. .j ` z  .! 5.[ C._.{ l { 6.' ] g.B.:X2XXXU.R.E.j.cXVXB.K.k.k.",
"t.f.f.f.c.b.P.P.k.c.0X2Xg.B.j.P.s.;.h.h.D.K d q =.3Xh.a.P.P.P.K.j.a.D A g.Z  .` } } ! g h ~ c N C L s.s.R.P.b.d.e.f uXnXj.b.f.z.",
"D -.D D a.g.j.k.g.C U.Y.] g.M.a.h.s.s.L ;.;.H d ;.W.L C j.P.b.d.j.j.a.h.] ' ! z z e z M 9 M g N t.f.x.t.n.W.n.t.v.f uXVXC f.z.t.",
" XU.N.B. X&X4X8X8X4XbXnX5X5X5X2X:XY.Y.S.<.N B c S.wXh.A D k.a.k.B.V j M 9 ,.+.{ } { { { e n r N k.c.T.k.z.P.f.t.f V jXAXS V C s ",
"FXLXLXPXPXFXAXAXAXFXHXSXVXNXkXcXpXfXgX6X}./ n u <XgXrX6XfXvXpXpXpX5X#X+._.oX$X~.Y ).! ! / :.6.rXpXkXFXGXMXVXBXNXAXZXKXIXGXGXNXVX",
"&X*XiXbXbX*X&X&X&X@Xi.u.Z.|.A.Z.].OX,X'.F.4.%.y Q '.'.C.6XrX:X6X6XMXeXR O.^ O...Y O.e ! :.*.S.2X*X*XZXKXyXjXkXkXkXkXkXyXdXdXaXbX",
"j.j.K.&X3Xy.j.c.c.d.j.k.s.a.D.D.h..X.X<.6.6.*.c X 0 *.h s s s S > *X6XT [ T t k Y % @ c K l.l.K v s 4XjXs f S S e.D h.h.h.a.r.G ",
"T.c.R.wXiXk.c.f.c.f.f.b.b.a.f.P.-.Y.XXM.D.M.*.c 8 8 n N d *.-.k.m.i.6X$ e l e l l l M n K I.wXW.d.D jXVXf v.c.c.b.R.I.z.P.b.v.t.",
"k.R.T.4XAXZ.u.y.y.S S d.y.y.] ] j 0X X| Z.m.C.].u @ i r *.<.K v ) yX6Xg T y n u W 6.{ % M -.h.D s & NXSXy.c.K.N.N.m.u.L.XXU.K.B.",
"qXwXU.bXLXFXnXbXxX4X9X9X&X2XiX8XiXbX0X+X:X;X:X;X~ @ r :.m *.H.-.Z.+XcXOX5.:.y r r ~ n 6XvXcXzXjXzXnXLXSXqXzXzXpXcXNXVXxXxXxXnXNX",
"zXqX3XwXqXzXzXzXiXHXHX4X3X4XqXqXwX3XY.D.D.D.Y.S.[.n X <.*.h.<.*. .u.U.M.<.>.c q i H.fXaXzXzXqXmXzXzX4XT.!.wX&X9XqXnXLX9X&XwXqXqX",
"3Xf.b.b.P.j.k.K.Z nXVXa.Y.k.a.z.z.P.D.a.s.h.;.;.>XJ.c 8 q ,.H.<.] m.g 9 c 6 6 8 0 vXfX-.Y.D C D E.T.C j.f.D d.k.j &XFXXXv.c.R.U.",
"3XT.R.!.!.E.c.P.a.nXSXY.XXU.T.P.g.g.h.-.a.h.;.-.>XfXn q q B H S. .g & z h 8 6 0 q 7X3Xk.P.Y.R.P.c.k.R.T.b.P.b.T.k.3XHX4Xd.G D 2X",
"N.U.K.y.r.d.F V V FXSX .m.u.V y.u.V S ] D a.-.v H.7X%.:.a p 0.~ [ - l l 9 0 0 r v 6X5X]  .j.j.j.y.j.j.k.k.k.k.j.j 8XLX+XV t.j.g.",
"UXkXkXbXBXkXjXyXkXLXFXdXeXyXyXtXeXeXyXdXjXxXNXcXpXpXrXOX'.@ ( 2.2.{.8.( W :.;X1X7XcXcX4X*X*XkX&X&X@X4X6XiXjX5XaXkXSXIXNX&X&XZ.@X",
"ZXZXGXPXFXAXJXBXJXBXbXkXkXNXBXNXkXJXMXtX9X8XaXzX6X.X,X<X'./ % y I 9.q.4.q.H.<X;X.X6X8XaXkXkXxXbXBXAXLXFXAXbXxXxXxXNXGXFXbXbXaXkX",
"4XU.&XjXj.S j.K.R.R.c.e.G F z.g.m.iXZ.g.XXh.F L k.h.-.-.-.M.0 8 p q w H l.Q.Q.1.I.I.h.h.k.k.D k.T.U.VXpXD f.U.U.g.S L.L.K.R.U.K.",
"qXa.3XqXa.D e.d.v.f.t.v.t.f.n.f.Y.0X:XB.s.f.b.L f.x.f.s.-.s.b 8 *.8 . 6 H x.Q.Q.I.x.x.I.I.n.t.x.b.g.zX2Xf n.W.2XT.K.K.U.T.b.a.k.",
"D.-.XXVXU.g.P.a.b.n.n.n.f.t.s.k.Y.5X:Xh.a.D F t.F s.I.L ;.z.b X X 8 q d b P x.t.L P P L P L P x.b.k.zX2Xt.!.z.h.a.U.P.P.K.z.T.T.",
"N.u.A.KXtX} | g V e.d.d.e.C S g.m.xXaX] y.K.a.D A ] ' -.A c *.X X 0 H.>XK K h.A C C k.T.XXP.k.k.j. XcXrXR.!.Y..X+XL.Z.U.B.B.Y.Y.",
"JXBXFXPXLXJXGXJXJXHXAXBXAXAXBXZXMXZXFXJXZXZXZXSXBXtXtX6X].#X{.y Q q.<X1XhXaX7XCXSXZXGXGXFXJXbXBXxXMXCXCXVXAXSXSXZXZXCXMXMXDXGXGX",
"kXkXlXyX9XkXlXBXBXFXkX9XiX9X9X=X=X*X9XjXdXjXkXkXNXcXeX#X#XeX7.{ 0.>.0.6.F..X:XaXkXGXDXdXdX9X9X9XyX5X*X6XuXqXtX4XA.MXGX*X&XyXtXdX",
"B.k.D P.P.P.k.U.j.0XU.g.K.a.d.t.j.a.a.a.a.j.j.y.2XcXg ,.| o 9 -.-.h.h.L D L a.a.s 9XqXj V F D D e.g.B.P.z.d.d.d.s 3XuX] c.d.j.@X",
"I.I.f.b.b.n.R.W.k.qXY.h.P.s.b.n.n.x.x.n.f.t.b.j.3XfXv -.s v v ] a.z.t.f.f.t.P.c.e.zXzXe.x.t.t.t.s.f.I.W.W.R.n.n.f wXqXk.R.n.T.XX"
};
