/* XPM */
static char *_27b16aff0e342aecdb66e6d9bdd288fHhrF4Z7eQKU0Zz1z[] = {
/* columns rows colors chars-per-pixel */
"64 64 240 2 ",
"   c #020E19",
".  c #0A0C0D",
"X  c #271D1F",
"o  c #1D1D23",
"O  c #292628",
"+  c #292C35",
"@  c #3A3739",
"#  c #352E2E",
"$  c #1F2B39",
"%  c #453B36",
"&  c #504339",
"*  c #383C45",
"=  c #413F41",
"-  c #384053",
";  c #474449",
":  c #574B45",
">  c #54545C",
",  c #494D58",
"<  c #735E4D",
"1  c #685C56",
"2  c #68594B",
"3  c #776556",
"4  c #6C6059",
"5  c #575965",
"6  c #4D5462",
"7  c #786B63",
"8  c #6A6C75",
"9  c #79747A",
"0  c #6B6972",
"q  c #5C626E",
"w  c #846E5B",
"e  c #92755E",
"r  c #89735D",
"t  c #897868",
"y  c #947C67",
"u  c #867B79",
"i  c #9A826A",
"p  c #8E837B",
"a  c #988678",
"s  c #A2876D",
"d  c #A28E7C",
"f  c #A38B74",
"g  c #A5927C",
"h  c #AB957D",
"j  c #A99177",
"k  c #B4947F",
"l  c #CEAA7A",
"z  c #7C7B84",
"x  c #7E7E8A",
"c  c #767883",
"v  c #827D84",
"b  c #817E8A",
"n  c #7E818B",
"m  c #7B8491",
"M  c #84838C",
"N  c #89868D",
"B  c #8B8A8E",
"V  c #888487",
"C  c #938C8C",
"Z  c #988B87",
"A  c #9C928B",
"S  c #858691",
"D  c #898792",
"F  c #868993",
"G  c #8B8A93",
"H  c #8D8D99",
"J  c #858B99",
"K  c #918E95",
"L  c #918E99",
"P  c #988F90",
"I  c #8E919C",
"U  c #8F9095",
"Y  c #939195",
"T  c #9A9494",
"R  c #93939B",
"E  c #9A959B",
"W  c #9D999E",
"Q  c #9A9999",
"!  c #A59382",
"~  c #AC9A84",
"^  c #A89789",
"/  c #B49987",
"(  c #A39C9D",
")  c #A89998",
"_  c #B59C94",
"`  c #B79A97",
"'  c #AB8E8D",
"]  c #B7A28B",
"[  c #ABA39A",
"{  c #BCA39B",
"}  c #BDAB9C",
"|  c #B7A498",
" . c #A5A08C",
".. c #9596A1",
"X. c #9699A4",
"o. c #9B9BA3",
"O. c #9D9EAA",
"+. c #9897A4",
"@. c #9398A7",
"#. c #A39DA4",
"$. c #A69DA7",
"%. c #B29CA3",
"&. c #B79CA6",
"*. c #9DA2AC",
"=. c #9FA0A5",
"-. c #9DA4B1",
";. c #A5A1A5",
":. c #ABA4A4",
">. c #A4A4AC",
",. c #ABA4AB",
"<. c #AAAAAD",
"1. c #AAA9A8",
"2. c #B3A4A4",
"3. c #BCA6A3",
"4. c #BCABA4",
"5. c #B3A5AC",
"6. c #B4ABAC",
"7. c #BBACAB",
"8. c #B6A8A6",
"9. c #BBB1AB",
"0. c #A3A6B2",
"q. c #A4A9B4",
"w. c #ACACB4",
"e. c #ABADBA",
"r. c #AAA8B4",
"t. c #B3ADB4",
"y. c #BBADB3",
"u. c #B6ACB8",
"i. c #ADB1BC",
"p. c #B3B1B5",
"a. c #BDB2B3",
"s. c #B4B3BC",
"d. c #BBB4BB",
"f. c #BCB9BC",
"g. c #BCB9B8",
"h. c #C59D8B",
"j. c #C49D98",
"k. c #C7A988",
"l. c #CBB189",
"z. c #C3AC9B",
"x. c #C6A998",
"c. c #D1AC9B",
"v. c #CAB399",
"b. c #D4B799",
"n. c #D6B28D",
"m. c #E6BB88",
"M. c #C2ACA3",
"N. c #CCAEA3",
"B. c #C3ADAB",
"V. c #C4A8A4",
"C. c #C4B1A4",
"Z. c #CCB3A4",
"A. c #C4B4AC",
"S. c #CBB4AC",
"D. c #CCB9AD",
"F. c #CFBBA2",
"G. c #D1B5A4",
"H. c #D3BCAC",
"J. c #D6BAA6",
"K. c #C3B4B3",
"L. c #CAB4B3",
"P. c #C5B9B4",
"I. c #CCBBB4",
"U. c #C4B6BB",
"Y. c #C4BBBC",
"T. c #CBBDBC",
"R. c #C8B3BA",
"E. c #D2BCB5",
"W. c #D3BCBA",
"Q. c #D5B8B5",
"!. c #CBADB0",
"~. c #E0BEA2",
"^. c #D8C3AC",
"/. c #CDC1BD",
"(. c #CDC0B6",
"). c #D6C2B4",
"_. c #D4C3BC",
"`. c #DBC4BB",
"'. c #DAC8B8",
"]. c #E8CCB8",
"[. c #B3B6C1",
"{. c #B6BAC4",
"}. c #BBBBC4",
"|. c #BDBEC9",
" X c #BAB7C2",
".X c #ADB3C1",
"XX c #C3BDC3",
"oX c #CABDC3",
"OX c #C2BDCA",
"+X c #C4B8C3",
"@X c #D5BFC1",
"#X c #BDC0CA",
"$X c #C4C1C5",
"%X c #CCC2C4",
"&X c #C4C3CC",
"*X c #CBC5CC",
"=X c #CCC9CD",
"-X c #CBCACA",
";X c #D3C4C4",
":X c #D5C9C4",
">X c #DCCAC3",
",X c #D4CBCD",
"<X c #DCCCCB",
"1X c #D5C5C8",
"2X c #DBD2CC",
"3X c #C6C6D1",
"4X c #CBC6D1",
"5X c #CCCAD2",
"6X c #CCCDD7",
"7X c #D2CCD4",
"8X c #DACED5",
"9X c #D4CCD7",
"0X c #CDD2D8",
"qX c #D4D1D6",
"wX c #DCD2D4",
"eX c #D5D2DA",
"rX c #DBD4DB",
"tX c #DDD9DE",
"yX c #DBDBD8",
"uX c #E3CECC",
"iX c #E2CBC5",
"pX c #E3D1CB",
"aX c #E7D3C9",
"sX c #E5CFD3",
"dX c #E3D3D4",
"fX c #E2D5DC",
"gX c #E3DBDD",
"hX c #EBD8D8",
"jX c #F1DCDA",
"kX c #DDDCE2",
"lX c #D7D9E1",
"zX c #E3DCE2",
"xX c #EADDE3",
"cX c #F1DEE4",
"vX c #E9E4E6",
"bX c #F3E9EB",
"nX c #FCFBFC",
"mX c #F5F5F6",
"MX c #F1EEF2",
"NX c #DCE1E5",
/* pixels */
"i g | ^ a 1 = @ @ : p ^ ^ ! 4 0 9 n R R S n n F R A 1 O O * + q b N C C C Z d h j i / h d C A f a d h a 1 1 y f 2   O O O   < s ",
"] ! ) | a ; @ O O O w y ~ ~ 3 X # o p [ ( I I F N ) t   O ; 0 K R K ) ~ 9 V N A ~ j / / d p d ~ / ] ] ^ h f / f e 3 @ # O   < e ",
"^ P C ^ / g 4 # : 3 d g ~ ] ~ a a t a ~ ] ^ A ( G g d : @ 1 u B E T 7 1 ; > c c T ! g h a t : t ~ ~ ^ ! ~ ~ g f i s e w & # e y ",
"z G Y T ) T V V V C V Z Z Z u 1 3 g a 2 a ~ ~ ! Z ~ ! ! a t u 9 a g a 1 % , 8 ; 4 ! a ! t # O X % 7 ! ^ d t < 3 y f s y e e s i ",
"5 9 z c v A C K Y D H M G z 5 6 - 1 4 % % < ~ Z Z ! ~ ] ! a p u h ~ ! d a 1 , 5 . w ! f d % o # $ 5 K M 1 % O O % y i y f y y f ",
"G R G x 8 p Z G G R R E A t % > > + 5 5 * . r ! p i < t a a V V ~ ] ~ h h p > 5 1 d ! g ~ 1   @ ; 9 c z q + % + O w 3 f y r 1 < ",
"( ..o.E G K C H R R R N N B v V z x M B x c v C V u > > > 9 G o.( ^ ^ ^ ~ h u 9 y a ~ g h 2 + , 6 8 z c c > . o & t @ 2 2 % : + ",
"V z E P M R T G ..X.G G G M G Y o.R I ..G G R G G G Y Y G D M x D o.R w.f.*X-X$X5X,X-X1.2.T D R W Z ! Q R H 5 = 7 7 @ + O + O o ",
"V I B 9 M R G N R R N G K G Y G Y B G R F x b M K G G W W K b x x G <.w.X.eXkX}.lXlXd.,.d.}.w.d.d.>.e.;.w.w.M x G G S F M G R F ",
"B R F x G R H G G G F R E Q Y G B G G H G M D R D G G K E K 9 c n M w.R e.vXvXp.s.0X$X,.}.f.r.f.R #X&XM L q.R c D D H R H +.>.O.",
"[ E G M M R G o.H G G #.W Q G B G F B M H G R o.R D M D N v x n M H t.R w.0XvX6Xo.e.t.e.t.w.XXs...kXNXR G H >.G x F H F R R O.*.",
"( F G M ..*.>.o.G M L 6.T Y G G G M x x D D R R R F o.o.F G ..>...W s.>.e.3X4XlX&X>.d.s.r.f.XX#.i.vX5XF R Y H >.F M H H E +.O.>.",
"B G G B o.*...D D N Y E B G G M G M ..R I X.R R G H ,.F ..>.w.:.Y ..&X0.>.#X$XqXf.}.s.w.}.*Xw.X.&XvXo.F R F F G I G S R R R ..,.",
"G W Y G T B G M G G V V M M M M Y M O.*.o.R R G D t.W D G G G K G R s.p.#.w.$X$Xw.eX}.&X5XXXo.q.kX=Xb G G n F D G H F G H H R O.",
"o.[ E R G B S N R G u V G K G Y Y M b F R H R M ,.,.b M F F D K o.#.*.$Xp.>.s.>.{.$X$X}.d.o...#XeXH D H F D D G H M H H D H ..X.",
"[ E o.o.G M G K G M M M G M G E G V M R R R G +.;.b F R R >.o.M #.,.R w.f.;.>.#.o.|.f.d.w.H s.|.K S H D S G F R D D G F D F H R ",
"Q o.o.G M N G M G R M M M M E K M M H G H H R E b M B R H >.s.D L o.R o.;.R ..}.s.,.W R R w. XH M G S F D M M M D L G D D H L H ",
"o.>.E D D M x x ,.Y M B M R Y M b I F G L F W G M G G B G G f.o.R p.o.O.r.;.o.o.w.p.$.G >.p.R M G M M n M D R G M L F D G R G H ",
"#.o.G M D M c M Y N G Y G E M M F R F R F E #.G G R G D R H ;.<.G #.d.;.>.w.,.;.;.o.H 0.e.o.F H F M c 9 c x H R b D H R G R F H ",
"=.R M M M D M M M M K R 6.Y M F H F R G F ,.R D F G D D R R W s.o.R #.>.o.w.s.s.0.J *.>.R H J G H G x c M G M G M n R R I H H H ",
"E B M M G G M G N M M ( a.W M H H G K M o.o.D G G G G o.R G ..*.|.XXd.U.a.6.<.,.<.t.=.o.H F F S S J I S J R F G H M H I O.G I -.",
"E M M z G G G M M z M ( #.#.;.G I R G G #.G G F D M I F u p ~ v.H.H.J.J.b.x.{ _ 3.4.} } [ ;.R I F m m m L G G I R ..I I ....O.q.",
"E M D x R R G M N z K N C :.g.,.R R M #.K D G R o.o.C / l.l n.c.x.c.x.b.b.C.!.!.R.7.5.3.4.| [ >.*.@.I ..O...I ..I R o...O.O.R *.",
"Y B M M G M D M B b G D M :.d.y.E M E E M G o.>.t.W.;XJ.n.Z.Z.G.D.j./ l l l.c.v.x.` ` v.3.` _ ) ) =.q.s.s.s.s.e.0.O.R X.e.*.*.G ",
"Y K M D M M F M K M G H G Y t.6.( R G M D ..;.2.d.oX*Xx.H.H.J.~.b.x.x.v.b.F.D.A.D.E.`.^.v.` ` 5.3.| ) w.8X8X=X&X|.s.>.-.q.e.-.O.",
"#.Y R B G x x K ( N M G r.X.G #.W E E M H ( f y.oXa.oXwX>XJ.k.j.k.J.J.v.x.} 3.d.+X*XtXtXwX<X`.B.2.t.7._ %XxX7X&X|.e.i.{.e.i.e.}.",
"E K E M M M x E T M M O.O.G o.M K #.,.o.o.d / 5.s.A._.gX>XJ.c.` ` k.b.'._.I.V.` _ B./.=X*X6XqXdXE._ 6.y.) <XxX4X{.i.e.r.i.i.{.6X",
"B E K z V M M W B M G H D #.K b G #.6.r.( / z.t.} S.<XpX_.%X1XH.G.B.x.D.y.>XuX>XL.` l.v.G._.U.u.<XE./ 5.5.T.pX<X5X{.#X*.>.}.5XkX",
"Y Y M M D F N K M b H D E #.c N M G ,.,.{ j.7.9.x.W.uX<Xa.%X4X`.'.,XC.k.~ | H.Z.`.uX^.x.v.G.S.K.u.wXG.` 2.a.pXP.%X$X|.{.s.$Xd.XX",
"Y R G M G M N G M M G G #.M G H D G 0.9.x.x.y.M.c.oXQ.wXwX_.oX$X).>X).Z._ 6._.5.3.>XhX'.v.{ 3.C.{ S.:X| 6.7.'.'.%XY.t.#X0X5XG K ",
"R R N M M M N R b D G R N M R G G O.XX!.{ V.K.Z.K.U.Q.wXdX8X_.Y.a.} S.Z.` k b.{ V.I.>XwXqX+X5.U.K.v.^.V.D.U.D.^.dXtXd.t.tXw.G L ",
"E R N M G M G K c F N Y M G G F ..i.%XN.x.M.D.L.U.7.I.wXuX<X:XH.e.$./ k.{ _ n.>Xd.P.S.^.I.%XK.&.K.Y._.H.^.} B.J.>XfX,X&Xt.K E L ",
"o.R G M F M G M M G B R G K F R *.}.I.x.V.A.E.Y.K.M.S.<XiX,X3XE.d.e.y.` C.} b.dX8X XY.H.G.` G.j.h.l.v.Z.).F.h.j.L.fX$X5XE E E K ",
"R R G S D M M D M G E G K G H R w.{.M.3.B.).%X,XI.G.B.E.<XP.7.S.G.t.u.+XA.z.l.'.`.c.l.l.v.` V.Q.N.b.x.Z.G.'.N.x.` ,XrX&X#.R E #.",
"G E M D M M M o.M R E K R R L G |.+Xz.7.K.>XdXdX>X).M.T.d.G.`.N.G.A.t.}.OXB.v.b.^.F.b.k.l.x.j.N.b.b.C.H.G.^.D.c.x.j.<X7Xs.( d.*X",
"R G M M D z o.0.N o.G G R R x w.&Xy.V.a.K.<XxXsX>X'.v.L.2.Q.aX].).v.u.*.U.K.7.A.pXwX_.] k.{ B.,.T.a.y.+X7X%XW.c.l.j.J.wXXX#.$X7X",
"G D b D M M 0.o.K K G R G c M $X|.4.} a.7.7XcXsXsXpX_.y.| '.>X!./.{ 9.,.) K.P.7.8XzX:X9.d.+X5X7XeX&X&XOXqX7X7XV.k.x.c.>X7Xw.XXMX",
"K M M M D G L G M M N N z M R &X Xz.M.8.y.6X7XhXhX8Xy.2.M.:XL.%.y.{ 2.t.;.5.5.,.7XzX7X&X4X4X7XxXtX$X*X7XeXrX7X@X_ x.j.Q.wX=XvXxX",
"R M D R G M H L U F c M H I w.5Xs.{ 7.5.U.5X$XhXuXV.#.7.P.oX&.r.B.{ O.i.O.*.e.5XrXgX5X$X7X*X7XeX5XeX&XeX7X6X|.dXV.k.j.N.<XzX*XR ",
"G D G R G M G G M 9 R w.s.4.U.5Xd.z.y.t.;XOX=XjXoXt.%.B.d.7.) t.N.y.*.w.r.*X5XtXtXzXeXs.*X7XrX$X*.rX&X=X7X&XqXxXT./ ` z.iXdXL M ",
"D G G K M M G G 8 P I.L.T.{ 7.qXa.z.d.a.,X{.8XhXoXr.%.y.a.} %.' $.$Xs.}.}.5XeX5XzXzXeX[.}.7XtX}.e.rX7X$X4X6XkXrX7X) ' b.'./.$.F ",
"G F R G M M E N v XX3X=XwX>X,X7XP.v.d.T.7X&XdXsX*X>.B.U.A.k.{ +.&X=XeX5X5XeX&X*XzXtX7X4X|.*X5X*XgXrX5X}.7XvXkX7XrX,.' n.iX/.;.x ",
"G R o.F D G E z ( &XB.V.>XpXwX5X4.V.d._.8XwX8XhX+Xt.W.d.z.b.v.&X&X}.qXzX7XeX5XrX5XtX7XeX3X&Xf.wX7X$X4XeXtXeXlXqXrXs._ l _.zXO.b ",
"D R G M G K B b t.L.V.{ H.aX8X=X4.{ U.uXaXdX@XhXf.;XE.,.L.J.;X4X{.&XzXqX=X{.tX9X5XrX6X7X6X&X7XzXeX5XzXxXeX7XeXzXtX|.3.l z.gXX.R ",
"G R D G N B x R a.U.XX<.P.b.wX-X7.V.A.>XhXuXE.pX;XuXU.7.Z.K.*X&X7XzXxX6X&X&XrX|.rX$X$X&X3X6XrXtXtXkXvXrX3X4XqXtXrX$X7.k.k.,XO.,.",
"R E G G G G c >.Y.U.}.s.A.] %X%Xd.%.6.I.aX1XL.hXdXiX7.L.N.oXOX$XtXxXkX&X{.6X6X*X7X}.{.&X6X6X5XtXzXxXkXeX4X3XqXrXqXOXy.[ l.2X=Xf.",
"E Y D M B M M >.$XI.s.u.z.A XX7XoX) #.T.pXW.B.jXcXsX<XW.W.4X}.4XtXxXrX}..X7X&X7X&X|.e.|.qX4X5XkXzXrX4XeX5X7XeXtX7XXXd.[ ^.eXqXzX",
"W N N F D M G o.XXT.a.7.v.V d././.2.K._.>XE.3.iX>X<XsXsX>XOXi.4XzXzX5X[.{.5X4X&X|.s.i.3XeX7XrXeXrXkX&XeX7X5XtXeX6X=X X:.a.qXvXmX",
"G G H H M G R O.5X(.u.d.} B ( 2.A.oX+XL.`.L.U.I.H.W.L.uXuXOX|.eX7XqX3X[.#X4X}.$X3X}.4X8X7XeXrXqXlXrX4X5X4X=XqX4X7X=X|.[ <.&XmXmX",
"R R R H H R G >.eXI.| } | T _ ) 8.d.4XK.W.:X*X+X).D.B.Q.>X.X3X7X7X=X|.|.4X{.0.&X&X7XrX7XrXeXqXrXqX&X4X3X5X&X|.&XtX=Xs.[ <.q.mXmX",
"G G G M H R x q.,XC.~ ] { T / 2.( *X=XI.:.C.| %X_.N.Z.Z.T.&X&XqX7X}.}.*X4X*.s.&X*XfX5XOX7X*X5X=X|.|.&X4X&X7X3X4XrX$Xt. .p.eXnXmX",
"R D M H F F q.y.Z.7.8.A.{ ^ ] 7.:.%X/.V.3.M.P.wXu.M.v.` ;X&X7XrX|.}.{.$Xs.0.&X}.8XtX5X4X7XU.5X X|.&X*X&X5X7X&X&X}.$X<. .f.MXnXnX",
"H I F G H }._.c.Z.A.{ D.z./ z.u.2.g.%X{ D.4.XXY.7.v.{ 4./.[.fX&X{.&Xi.&X[.}.&X4XfX$X|.3X%XV.d.s.|.&X5X|.|.&X&X&X}.&X:.] %XmXnXnX",
"M M H I }.S.h.{ y.I.] (.C.x.8.[.6.8.p.I.7.K.T.B.a.7.7.D.P.7X*X{.&X$Xi.6X[.}.-.4X}.*.0.|.Y.} 5.s.}.$X{.X.-.[.|.7X X*X:.2.>.vXmXnX",
"b M M  XR.` E.t.4.} | _.Z.M.W U./.a.a._.8.T.I.[ u.a.K.A./.qXi.|.&X Xe.4XOX|.}.4X0...@.|.g.} #.e.{.[.e.i.&XtXzXxXwX,XW f.O.tXnXmX",
"G R u.U.%._.2XI.Z.} 9._.I.$.2.U.qXu.E.4.K./.4.2.XXE.B.A.<X{.i.#X&Xs.i.rX7X{.5X*XXX{.i.#XY.4.#.[.$X&X&X|.*XqXvXbXxX,XY.f.0.L yXgX",
"G s.oX%.T.>XgXdXM.A.g.:XU.$.I.<Xu.a.K.) T.7.[ ) W.`.M.D.;Xq.}.&X|.[.&XqX&X|.5Xs.|.|.}.3X$X4.t.6X7X8X5X{.}.&X$XxXxXY.'.9.X.D F =X",
">.;X%.U.>XE.bX'.| I.%X2X,.t.wXT.&.4X5.K.I._ ) ) W.W.3.).P.e.OX&X|.{.3XqX{.$X3X}.&X|.&X&X*XC.Y.4XwXfX5Xi.$X}.q.&XtXP.l a.0.s.&XMX",
"L.j.5.1XN.,XwXN.T.2X2XU.:.,XwX) oX7X6.A.D.{ ` E.<XL.z.B.A.s.5X3X&X}.5X&Xs.}.|.3X3X&X6X=XwXH.T.7XgX<X$X<X,X$Xp.%XrXD.k.-XnXnXnXnX",
"x.) -XE.I.*XA.N.wXvXyX<.P.vXU.%.,.4XP.} z.) K.:XoXD.z.4.I.d.6X6X&X|.4X.X{.e.q.|.Y.;.$X4XzX).>XbXbX4.(.I.z.v.k.:XeXC.} yXnXnXnXnX",
"/ d.8XD.*XoX).S.wXL.(.2.gX,X) B.u.%X_.H.A.r.,X;XT.H.Z.%XP.p.[.&X}.e.&Xs.p.;.w.6.1.B }.*XzXaX].xXvXhX$X7XwX>XiXwX5X[ Q hXnXnXnXnX",
"_ 7X).L.oX:XL.S.T.z.) :XvX+.%.7.1X7X%XgXL.*XzX*XA.D.uX:X(.e.{.&X}.e.f.P.:.0.t.8.g.$XtXrXvXjX].aXxXjXD.fXbXbXzXrX&X1.} jXnXnXnXnX",
"U.<XZ.*X;X%XM.M.E.C.%XvX*Xy.' &.7XqX*X<XQ.fXrX+XE.'._.>X$X-.&X&X[.t.*X*X>.[.f.Y.wXtXvXxXxXxX].m.qXhX).xXbXbXgXwX|.$X'.bXbXnXnXmX",
",X).I.oXy.1XE.B.D.7.:XxXhXaXh.L.qXXX*X7XdX1XoXY.<X_.6.T.d.*.|.&Xq.|.eX}.@.OX}.T.fXvXbXxXfXxX].m.wXvXdXxXMXMXvXxX,Xg.-XvXmXnXnXnX"
};
