/* XPM */
static char *_e65e94d3e5540edcadd254aa74232faWp6X95L6DWmmKTsc[] = {
/* columns rows colors chars-per-pixel */
"64 64 218 2 ",
"   c #7E7E7E",
".  c #C77B3F",
"X  c #C47C41",
"o  c #90B25C",
"O  c #BD8D7B",
"+  c #88AE71",
"@  c #CB8C59",
"#  c #D5925D",
"$  c #CB8D65",
"%  c #C98C6C",
"&  c #D58E62",
"*  c #CB9266",
"=  c #D29365",
"-  c #D2966D",
";  c #D89C6E",
":  c #CB9473",
">  c #CB9C7D",
",  c #C4957F",
"<  c #D49C74",
"1  c #D69B77",
"2  c #C28D7B",
"3  c #D4A17B",
"4  c #DDAF7D",
"5  c #CAA27E",
"6  c #727DA5",
"7  c #817F82",
"8  c #7FA8AC",
"9  c #848186",
"0  c #89868A",
"q  c #95918E",
"w  c #928F92",
"e  c #999595",
"r  c #8B9395",
"t  c #B38C83",
"y  c #B99589",
"u  c #A49D9C",
"i  c #AB9991",
"p  c #BD9E92",
"a  c #B59C93",
"s  c #AAA39D",
"d  c #AAA59B",
"f  c #B5A29B",
"g  c #BBA49B",
"h  c #B8A195",
"j  c #8A98A9",
"k  c #9A9AA5",
"l  c #8492B4",
"z  c #8C99B3",
"x  c #A99FA0",
"c  c #86A0A1",
"v  c #9EACAF",
"b  c #85A3B4",
"n  c #99A4BC",
"m  c #ACA5A3",
"M  c #AEAAA4",
"N  c #A9A6A5",
"B  c #B3ACA6",
"V  c #B3ADA9",
"C  c #BBAFA9",
"Z  c #BBAAA3",
"A  c #B7B2AE",
"S  c #BCB3AD",
"D  c #B6B9A8",
"F  c #A3A9BA",
"G  c #AEB0BD",
"H  c #B7B2B0",
"J  c #BBB5B1",
"K  c #BDBAB6",
"L  c #BABABB",
"P  c #C39981",
"I  c #CB9C83",
"U  c #C39D8B",
"Y  c #C79B89",
"T  c #D09F81",
"R  c #C29F93",
"E  c #CCA184",
"W  c #C5A38C",
"Q  c #CBA38A",
"!  c #CEAB8C",
"~  c #D5A88A",
"^  c #D9B38C",
"/  c #C5A493",
"(  c #C6AA94",
")  c #CBAB94",
"_  c #C6A599",
"`  c #C4AB9C",
"'  c #CCAC9C",
"]  c #CBA79B",
"[  c #D3AD93",
"{  c #CDB29D",
"}  c #CFB093",
"|  c #D3B396",
" . c #DBB592",
".. c #D2B49D",
"X. c #DDBC9B",
"o. c #D6B899",
"O. c #E0BC9A",
"+. c #CBADAC",
"@. c #CEACA0",
"#. c #D3AFA3",
"$. c #C7B3A7",
"%. c #CEB2A3",
"&. c #C4B5AD",
"*. c #C4B9AF",
"=. c #CCB9AC",
"-. c #D1B4A4",
";. c #D5BBA4",
":. c #DBBDA2",
">. c #D2BCAF",
",. c #D9BBAA",
"<. c #D1AFB0",
"1. c #C1B7B1",
"2. c #CEB1B1",
"3. c #C4BBB4",
"4. c #CABDB5",
"5. c #C5BEBA",
"6. c #CABEB9",
"7. c #D4BDB5",
"8. c #D6B9B9",
"9. c #E1BEAA",
"0. c #E0BEBD",
"q. c #BEC8BF",
"w. c #DFC19E",
"e. c #DDC2A5",
"r. c #DCC2AB",
"t. c #DBC6AE",
"y. c #CBC1B7",
"u. c #C6C1BC",
"i. c #CCC3BC",
"p. c #CEC8BE",
"a. c #C6C4B7",
"s. c #D4C2B5",
"d. c #DCC4B7",
"f. c #D2C5BD",
"g. c #D2C8BE",
"h. c #DBC7B8",
"j. c #E2C5AC",
"k. c #E2C9AF",
"l. c #E2CAB4",
"z. c #E3C9B8",
"x. c #E1D1BD",
"c. c #8B98C2",
"v. c #9EADC4",
"b. c #96B3C1",
"n. c #B8BAC5",
"m. c #A7AFC6",
"M. c #C0BFC4",
"N. c #B8C1C8",
"B. c #C3C3C4",
"V. c #CCC5C1",
"C. c #CEC9C3",
"Z. c #CFCCCA",
"A. c #D2C6C2",
"S. c #DAC5C5",
"D. c #D4CBC4",
"F. c #DACDC5",
"G. c #D5CDC9",
"H. c #DACECA",
"J. c #D5D0C6",
"K. c #D9D1C7",
"L. c #D6D1CB",
"P. c #DBD3CC",
"I. c #DED8CE",
"U. c #CCCED2",
"Y. c #CCD4D4",
"T. c #DCD6D1",
"R. c #DED9D3",
"E. c #DEDCDA",
"W. c #D4DADA",
"Q. c #E0CBC4",
"!. c #E1CFCD",
"~. c #E0C4C3",
"^. c #E5D4C4",
"/. c #E1D4CC",
"(. c #E1D9CF",
"). c #EADBCC",
"_. c #EDD6C7",
"`. c #E1D6D1",
"'. c #E3DCD4",
"]. c #E9DDD5",
"[. c #E4DED9",
"{. c #E9DEDA",
"}. c #DBE2D0",
"|. c #E5E0D6",
" X c #E9E1D7",
".X c #E6E1DB",
"XX c #EAE4DC",
"oX c #ECE8DE",
"OX c #F1E8DE",
"+X c #F1E5DD",
"@X c #E5E3E2",
"#X c #EAE6E1",
"$X c #EBE6E1",
"%X c #EFEAE5",
"&X c #EDE9E4",
"*X c #EEECEA",
"=X c #F0E7E2",
"-X c #F2EDE5",
";X c #F1ECE5",
":X c #F0ECE8",
">X c #F2EEE9",
",X c #F2EEEA",
"<X c #F8EDEB",
"1X c #EEF0ED",
"2X c #F4F1EC",
"3X c #F8F3EE",
"4X c #F3F0E7",
"5X c #EFEFF1",
"6X c #F1EFF0",
"7X c #F5F4F3",
"8X c #F9F6F2",
"9X c #FAF9F5",
"0X c #F9F7F9",
"qX c #FEFEFB",
"wX c #FFFFFF",
"eX c #FEFEFD",
"rX c #FDFDFD",
"tX c #F7F8F8",
/* pixels */
"XX%X2X[.'.-X$XI.`.>XqXrX7XXX.X2X*X'.'.-X>X2X2X>X>X&X.X'.R.R.$X2X2X2X2X>X:X;X-X2X8X8X3X2X>X:X:X$X2XqXrX0XrXtX2X>X>X%X>X>X$X.X8X9X",
"'.XXXXI.P.5.P.D.3.P.qXrX>XP.'.L.i.i.K. XK.'.D.3.i.5.3.D.D.i.A.K..X.X.X'.]./.4.h.'.'. X{.A.6.i.L.XXrXrXqX7XL.A.i.D.F.D..X].g.].2X",
"'.$X-Xu.A M 3.I.i..XrXqXtX'.I.R. XR.I./.L..XT.i.V.V.i.A.y.y.G.I.'.&X&X.X'.F.i.g.D.D..X'.6.*.4.h.%XrXqX7Xi.S 1.&.V.T./.`.XXF.K.>X",
"XX.XXX[.V.u.C.$XD.T.qXrXrX.XR.XXoX'.P.`.%XXXP.L.A.i.D.4.3.i.A.'..X.X'.'.'.L.D.g.g.A.F.P.4.3.4.H.7XrXrX&X1.S 3.4.A.I.[.P.$X`.g.-X",
"'.$XXX&X.XI.K.:XXXK.>XrXqX.X'.oX$X`.XX,X-XI.i.g.L..XT.*.4.3.i.R.I.i.3.F.'.'.I.I.G.H.H.s.3.6.g.H.7XqXrX>X*.*.4.i.i.P.R.P.-X.XD.-X",
"[.&X%X>X'. X=X>XXXL.[.rX0X'.'..X$X.XXX`.D.i.3.A.%X.Xi.4.4.i.C.J.A.3.4.i.R.XX`.'.[.`.P.6.&.*.i.$.@XrXrX$X&.4.4.4.s.H.P.F.I.P.D.>X",
".X[.$X%X$XXX.X.X.XA..XrX7XD.R..XI.T..X'.P.i.g.I..XD.D.G.g.3.i.A.D.i.i.i.P.I.`.'.`.[.`.i.C &.3.&.'.rXrX*Xi.4.g.g.L..X.XL.F.D.`.2X",
".XG.R.XXXXL.P.'.C.i.-XrX2Xi.i.i.C.L.L.'.`.P.P..X.X'.D.H.A.4.3.i.C.D.L.i.L.[.'.'.'.XX[.D.i.3.*.4.`.tXrXrX{.6.A.g.L.$X@X`./.`.XX8X",
".XG.'.[.[.G..XXXP.L.>XrX2XD.i.i.D.R.R.'.'..X$X%X&XI.D.D.i.i.A.D.L.D.D.L.'.XX{.XX=X[.'.'.G.i.4.i.'.8XrXrX&XG.6.i.D.XX$XXX%X.X.XtX",
"'.[.$X%X.XP.R.'.L.P.%XrX2XD.P.(.'.'.'.L.P..X2X.XL.T.XXI.i.i.D.`.'.P.D.L.[.`.[.XX[.`.'.'.G.A.g.H.`.tXrXrX[.D.i.6.4.F.XX:XXXP.D.>X",
"[.T..X$XT.A.V.G.3.P.2XrX2XD.D.P.XXXXP.i.A.R.'.D.y.D.'.R.D.i.i.D.P.I.h.F.'.'.[.XX{.XXL.g.T.G.i.4.F.7XrXtXR.L.g.4.4.*.D.XXK.y.g.$X",
"[..X.X%X.XT.R.R.V.[.2XrX&XA.H.L.I.`.`.D.L. XXX`.`.I. XP.y.D.g.D.`.S.0.Q.L.XX'. XR.P.P./.'.D.4.4.D.:XrXtX[.G.A.6.6.4.I.%X`.I.'.XX",
"R.'.$X>X>X8X2X-X.X.X7XrXtXR.R..X'.I.P.L.`..XXX%X&XoXP.A.C.1.3.D.D.8.8.7.P..X'.`.A.h.D.S.H.A.4.i.L.XX9XrXR.D.s.g.g.i.T.-XoXXXXX>X",
"[.*X>X.X.X:XXX.X%X.X2XrXrX$XL.XXR.L.3.L.R.P.R.$X$X.Xi.A 6.5.i.D.A.F.F.F.D.'.$X[.L.i.i.i.A.P.D.A.L.$X2XrXA.3.3.i.i.i.G.[..XR.oX3X",
"$X&X>X%XR.@X&X,XtX7X0XrXrXR.P..XL.T.5.L.D.D.G.i.D.i.C s B S 1.3.*.8.F.7.i.L.'.`.L.i.4.6.3.1.3.i.A.XXrXrX.X1.i.i.D.[.$X&X*X%XXX&X",
"%X*XtXrXrXrXrXrXqXrXrXrXrX,X[.&X&X@X@XE.[.[.E.Z.K u.V.V.V.u.5.5.S.S.D.P.L.T.L.T.'.T.T.&X&X.XE.[.2XtXrXrXrX6X*X7XrXrXrXrXrXrXrXtX",
"tXrXrXrXrXrXrXrXrXrXrXrXrXrXrXrXrXrXrXrXrXtXtXtXrXrXrXrXrXrXrX7X7X0XrXrXrXtXrXrXrXrXrXrXrXrXrXrXrXrXqXrXqX2X:X8XrX7XtXrXrXrXrXrX",
">XrXtX2X7X,X*X7X2X2X%XXX.X`.$X0XtXtXtX7X>X*X>XR.G.>X%X*XrXrXrXrXtXrXqXqXrX%X%X2X2X8X7X*X2X7X*X,X>X>XtXrX'.S.H./.XX@X[.`.$X2X:X&X",
".X*XrXrXtXG.D.`.T.I.P.D.i.D.P..XXXXX`.'.R.K.L.K 7 u.C.D..X$X[.2XtXtX7X>XXXP.I.'././.H.D.A.P.`.'.]./.XX:XH.[.=X.X'.XXR.F.K.=X&XXX",
"$X2XtXrX>XD.R..X'.L.g.D.L.D.L.'..X.XT.G..XT.P.C.w G.L.C.'.H.+.7X:X/.$X{.[..X$X'.{.$X{.[.XXH.'.XX$X,X.XT.[.@XXX{.'.[.H.A.`.%X&X>X",
"XX,X&X>X'.i.&XXXT.I.A.A.P.D.P.L.'.R.D.D.G.P.R.Z.7 u.i.V..X'.8.tX{.8.`.{.L.G.T.[.'.XXH.D.L.P.'.XX{.:X<X:X;X>X$X{.{.=X$X'.$X X.X-X",
"P.R.'..XA.T..XP.XX.Xg.A.D.L.i.L.D.i.3.5.i.V.u.i.9 J C.D.[.'.<.&X.X2.T.P.i.A.'.XXA.F.i.H.P.P.{.$X$X[.=X<X$X{.`.'.{.XXF.`.'.'.&XXX",
"T.[.%X`.T.R.P.XX&X`.D.T.[.$XP.T.T.i.u.i.C.A.i.3.9 K D.D.XX'.+.&X@X8.F.D.D..X{.A.D.A.i.P.:X{.$X$X'.D.&X[.T.P.i.R.:XR.i.L..X&X&XXX",
"[.-X&X.X.X$X$X`.L.`..X'.$X,XXXXXXXD.D.L.P.L.A.V.w K D.P.@X'.2.@X&X8.Q.L.`.%XD.F.'.@X7X7X{..X$X.XF.[.XXL.P.i.g.[.[.D.F.L.].:X-X&X",
"'.`.[.'.[.'.C.D.L.$XI.$X2X.X$X%XT.T..X.X'.D.C.C.w V i.L..XR.S.7XtXS.~.L.!.D.H.`.`.>X2X.X'.[.[.P.'.].I.'.`.H.`.{.H.L.'.[.`..X&X>X",
"'.T.R.`.T.L.T.'.&X'.&X9X%X'.'.I.D.$XXX%X.X[.A.1.0 x 3.L..XT.!.tXrX`.2.L.s.g.P.G.P.XX[.'..X'.'.'.'.`.:XT.G.F.XX{.P.'.=XXXXX$XXX2X",
"XXG.p.L.I.'.%X-X[.-XtXXXD.P.'.P.'.$XF.E..X.Xi.6.w e u.L.R.P.{.7X7XP.4.P.h.G.h.H.[.XX'.[.[.P.I.{.H..XXXP.F.[.;X`.P.@X:X'.$X%X&X-X",
".XT.T.'.P.'.XXR.:XqX$XD.J.[.G.g..XC.3.i.I.D.u.u.e u u.V.V.G.[.rXR.&.+.D.G.3.H.[.[.`.`.$XT.I.$X(.].D.i.D.'.2X>XP.'.-X.XI.&XXXoXXX",
"&X2X2XXXG.P.G.%XtX.XD.P.T.D.1.C.V.5.i.5.i.i.u.u.9 m V.G.Z.G.g.$X*XE.G.D.g.i.I.'.'.I.[.'.D.'. XT.L.i.i.D.XX$XL.R.-X$XI.I.'..X&X.X",
"&X2X>X$XV.3.'.>XR.'.L.i.A..Xi.3.5.1.3.3.3.i.i.i.w s 6.R.R.P.6.&XrXqX@X*.i.A.A.D.F.'..X`.%X%XP.L.V.L.L.H.C.V q R.%XD.D.D.'.$X.X'.",
"XX2X2X'.5.A 5.i.'.$XI.'.7X2XA.1.3.u.H V.u.H L u 0 K f.E.R.H.S.7X*XrX.X1.i.i.D.D.P.`.P.L.P.D.6.L..XI.D.B B 5.I.(.P.g.D.I.$XXX'..X",
".X2XtX>Xu.H H P.&X'.'.2X&XA.A.L.T.[.C.S k B.E.L b H D.[.E.H.H.tXrXqXR.L.A.A.D..X.XA.D.i.S 3.H..XC.J i.V.[.I.P.F.P.K.P.P.'.$X&X%X",
"XX>X2X>X'.'.D.L..XXX`.D.y.4.D.I.D.D.K r 6 F V.b.b M D.[.[.E.@XtXrX>XD.R.D.i.A.'.L.C.i.S J i.P.V.A N P.$X$XC.*.s.i.i.g.D.[.$X=X-X",
"7XtX7X7XtXtX2X,X7X7X2X%X@X.X'..X&X*XE.U.U.n.B.W.Y.N S P.R..X%XtXrX.X[.[.T.[..X[.R.L.T.@X*X,X%X@X*X%X@X*XR.C.'.'..X*X*X,X,X*X2X2X",
"tXrXrXqXtX7X7XtX7XtXrXrXrXrXrXrXrXrXrXrXrXrXW.8XrXE.Z.@X@X*X2XrXqXtXrXrXrXrXrXtX5X7XrXrXrXrXrXrXrXrXrXrXrXrXrXrXrXrXrXrXrXqXtX0X",
"2XtX7XtXtX7XtX7X7XtX1X*X7XtXrXtX*X2X2X7X7XqXrXrXqXqXtX*X,X2X2XrXrXrXrX0X0X7X%X$X.XG.E.@X.X7X*XE.[.2X7XrXrX8X3XqXrXqXrXrXrXrXrXqX",
"rXrXrX3X7XrXqXrXrXqX7XrXrX1XR.5.4.C.g.k j n q.}.Y.N.3.S S V.y.'.&XXX.X X'.P.I.I.A.B s x m S d B D. XqXrX7XL.L.'.&X>X>X:X-X3X8X8X",
"qXtX&X.X.X%X XA.A.i.$XrXrXR.3.i.A.G.L.G l z + o b n k N u.i.D.D.R..XR.P.L.R.'.XX.X'.i.H m q C.'.XXR.rXrX2X`.XX`.XX X'..X'. XOX-X",
"qX-XXX-XXX.X.X3.C S *XqXrX2X.X$X'.'.'.B.v m.j c v.M.F G L.P.L.G.K.P.L.'.'.'.`.XX`.L.V e   u L.I.'..XrXrX9X.X$X&XXX.X.X(.`.'.-X9X",
"qX2XXX-X[.L.T.3.A 3..XrXrX.XL.'.XX'.R.D.D F c.j K D.i.D.P.D.D.R.A.D.i.I.P.H.I.`.D.S e V s J S i.I.&XrXrXqXXX'.'.I. XI.F.`.2X3X9X",
"2X&X&X-X.X$X'.i.C.4.[.qXrX[.L.[..X.X'./.D.l 6 d 3.3.*.A.R.C.G.P..X'.D.A.A.J.P.L.L.i.1.A.i.1.3.A.D.&XrXrXqX&XL.i.'.XX`.'.=X:X&X-X",
".X.X>XXX.X2X:XI.P.P..XqXrX'.I.`.P.'.'.I.L.n.z 1.3.S S L.'.R.XX$X.XT.A.A.i.D.L.g.D.D.g.g.y.3.i.D.i.&XrXrXqXR.3.P.XX.X.X].&X&X%X&X",
">X2X3X'.`..X[.'. X'.:XqXrXL.D.R.D.D.'.L.D.L.B.i.i.i.C.P.R..XXX[.T.R.[.`.L.I.L.D.K.L.A.g.g.i.3.i.i.%XrXrXrXR.I. XXX-X'.&X>X2X2X&X",
"4X3X>X.XA.L.P.R.'..X'.tXqXL.D.XXC.J.'.A.L.L.C.L.C.D.p.P.L.P.$X&X.X$X&X].XX.XR.P.F.L.D.g.V.S 5.I.g.E.rXqXqX.X'.2X8XXXXX>X-X3X2XXX",
"2X9X%XP.P.C.D.XX'.'.XX7XrXP..X$XG.>X'.g.D.P.R.D.A.G.V.P.P..X%XXX.X&X$X'..X.XR.D.'.XXD.T.i.3.i.J S V.rXrXtX>XI.2X&X.X>X&X2X8X2X=X",
"2X8X:XL.L.5.i.P..X$X%X2XtXP.2X.X[.$XP.A.G.R.P.D.'.[..X`.`.&XXXR..X.X'.XX&XXX.X`.=X(.P.'.P.p.s m i.D.>XrX2X'.i.R.'.>X>X&XXX3X-X:X",
">X7X&XP.R.'.`.`..X&X2XtXrX[.XXG.[.L.i.D..XP.i.T..X`..XR.`.XX'.[.$X`.[.%X:X&X=XoXXX.XR.P.'.P.3.i.3.1.E.rXrX&XD.a.'.XX>X-X-X=X-X2X",
"2X3X-XI.'.-XXX.X.XXX8XrXrX7X[.P.-XP.i.XX>XL.L..X'..XI.L..X X.X.X'..X%X&X.X[.XX.X[.I.D.R.L.V.u.m u e R.rXrX@X3.3.P.'.$X7X8X8X9X9X",
"&X-X&X/.`..X`.&X%X&X0XrXqX2XI.L.$X`.'.8X'.F.R.[.`.'.'.'.XX$X>X'.'..Xs.$.g Z &.=.s.{ { >.&.f i i g g P.rXrXT.f Z $.4.4.s.7.s./.2X",
"XX.X.X'.'.$XXX%X$X.XtXrXrX$Xg.D.P.P..X.XR.P.`.XX.XXXXX'..X2X$X`.XX.X;.[ U p } | X.3  .e.:...{ o.' ! l.tXrX^.U ` Z &.%.) Q Y %.&X",
"&X[.$X`.P.|..X'.I.XX9XrX8XD.y.D.P.'..XXX'.I.'.{.'.R.$X.X$X.XI.P.I.`.l.k.) p e.k.:. .;.r.r.,.%.X.O. .).rXrXF./ ` $.s.f.d.,.-.7.-X",
">X%X7X2XT.A.L.L.T.2X0XrX7XT.XXL.V.'.%XXXi.a.F.`.G.V.A.L.'..X'.T.L.3.h.l.;.a { e.j.r.r.t.j.:.W ^  .4 _.rXrX/.O U _ ' -.-...W %.>X",
"tX8X9X9X2X*X,X,X2XrXrXrXqX3XrXrX&X*X7X%X.X[.*XtX7X&X[.T.[.XX$X$X2XP.;.,.) h ( ) ) | ) ! ) { >.h.z.^.].rXrX7X`.P.D.f.7.h.F.S.P.,X",
"qXtX2X>X>X>X2X8X2X>X7X7X7X,X>X%X2X2X>X5X>X&X7X,X7X0XqXqX7X7X9XrXrXtX$XXX*X>X*X&X'.I.P.d.H.6XtXrXrXrXrXrXqXrXrXrXrXrXqXrXrXrXrXrX",
"7X>X>XXXG.A.A.G./.D.D.R.R.P.`.'.T.R.I.L.'..X*X$X*X7XtXqXrXrXrXqXqXrXrXrXrXrXrXrXrXrXrXrXrXrXrXrXrXrXrXrXrXrXrXrXrXrXrXrXrXrXrXtX",
",X-X&XP.3.3.G.L.R.XX[.XX.XP.L.[.`.i.H.'.XX'..XXX.X7XrXrXrXrXqXqXrXrX0XXX=X+X+X-X8X8X2X).:.z.].OX8XrX3X=X).j.,.9.d.d.^.F.D.F.F.:X",
">XXX'.T.A.L.'.L.P.`.I..X`.'.`. XD.A.P.-X:XL.`.$XXX>X7XrXrXqXqXrXrXrXj.3 ^ ; 1 < ~ ] > = $ @ @ - 3 ~ 3 @ . X @ * * $ 5 y y y p :X",
"&X.XXXXX`.G.'..X$X[.F.`.&X%X:X[.P.F.'.'.I.I.'.XXXX2X8XqXqXrXrXtXrX>XP E Q I Q W E y P , Y I E : P E > Q Q I Q W ) ) ) ` ` p h %X",
".X$X:X$X[.T.'.[..XD.D..X&XT.D.D.'.`.F.D.T..X'.$X2X8X7X9XrXrXrXqXrX.X*.s.>.=.$.` | [ U O O I E 7.1X].| r.:.....o.{ _ R / _ ] _ `.",
" X-X-X.XT.C.K.K.i.D.G.XX[.L.V.L.'.P.XXXXI.'.'.:X3X8X7XtXrXrXrXqXqXXX^.^.).r.{ ) 3 I Y 2 2 % ~ ^.x.e.X.e.X. . .o...R _ _ ] ' ] F.",
".X%X$X%XXX'.I.F.I.T.XX,X-X'.I.`.P.XXqXXXP.L.+X-X2XtX9X8XqXqXrX2X$XXX^.^.).e.( ! > % $ - : - < : ! X.e.j.O.X. . .:.h _ ] @.#.' /.",
"XX&X%X2X2X&X'.R.'.'.:X3X2XXXP.`. X'..X(.I.:X-X-X2X9X9X2XqXrXrX7XXX$Xx.t.x.w.( Y 1 & & = # = ; T ..X.e.e.w.l.e.:.;.a t t t y y $X",
"&X>X2X2X>X%XXXP..X'.'.=XXX.XXX&X-X.X(.'.OX=X>X3X3X9X9X>XtXqXqXrX7X%X>.E Q ! ` ( E E I > E > E Q ) | ) ( ' { -.' ` g s a f f *.2X",
"*X%X>X>X*X*X.XR.'.[.I.I.T.T.E.:X$XR.I.'..XXX2X2X:X3XtX3X9XrXqXrXqX&X[.[.P.L.(./.D.g.s.>.s././.F.h.F.s.i.7.h./.`.[.XX-X-X:X-X2X2X"
};
